<svg xmlns="http://www.w3.org/2000/svg" xmlns:xlink="http://www.w3.org/1999/xlink" width="350" zoomAndPan="magnify" viewBox="0 0 262.5 97.5" height="130" preserveAspectRatio="xMidYMid meet" version="1.0"><defs><g/><clipPath id="c7d4dc0715"><path d="M 0.421875 0 L 261.582031 0 L 261.582031 97.003906 L 0.421875 97.003906 Z M 0.421875 0 " clip-rule="nonzero"/></clipPath><clipPath id="073a22c32a"><path d="M 71.722656 17 L 129 17 L 129 40.183594 L 71.722656 40.183594 Z M 71.722656 17 " clip-rule="nonzero"/></clipPath><clipPath id="54613be3bf"><path d="M 105 5.15625 L 131 5.15625 L 131 32 L 105 32 Z M 105 5.15625 " clip-rule="nonzero"/></clipPath><clipPath id="93c6b343d8"><path d="M 134 17 L 190.8125 17 L 190.8125 40.183594 L 134 40.183594 Z M 134 17 " clip-rule="nonzero"/></clipPath><clipPath id="9fc8bda1d3"><path d="M 132 5.15625 L 158 5.15625 L 158 32 L 132 32 Z M 132 5.15625 " clip-rule="nonzero"/></clipPath></defs><g clip-path="url(#c7d4dc0715)"><path fill="#ffffff" d="M 0.421875 0 L 261.582031 0 L 261.582031 97.003906 L 0.421875 97.003906 Z M 0.421875 0 " fill-opacity="1" fill-rule="nonzero"/><path fill="#ffffff" d="M 0.421875 0 L 261.582031 0 L 261.582031 97.003906 L 0.421875 97.003906 Z M 0.421875 0 " fill-opacity="1" fill-rule="nonzero"/></g><g clip-path="url(#073a22c32a)"><path fill="#1650ad" d="M 71.863281 17.855469 L 83.417969 40.511719 L 76.78125 22.464844 C 76.78125 22.464844 112.851562 25.496094 128.582031 40.511719 C 128.582031 40.511719 122.804688 22.917969 71.863281 17.855469 Z M 71.863281 17.855469 " fill-opacity="1" fill-rule="nonzero"/></g><path fill="#1650ad" d="M 90.410156 9.550781 L 90.410156 17.855469 C 116.289062 21.175781 130.5625 35.976562 130.5625 35.976562 C 120.132812 17.570312 90.410156 9.550781 90.410156 9.550781 Z M 90.410156 9.550781 " fill-opacity="1" fill-rule="nonzero"/><g clip-path="url(#54613be3bf)"><path fill="#1650ad" d="M 105.617188 5.15625 L 105.617188 12.507812 C 122.066406 19.144531 130.539062 31.558594 130.539062 31.558594 C 124.738281 14.394531 105.617188 5.15625 105.617188 5.15625 Z M 105.617188 5.15625 " fill-opacity="1" fill-rule="nonzero"/></g><g clip-path="url(#93c6b343d8)"><path fill="#1650ad" d="M 190.9375 17.855469 C 139.992188 22.917969 134.214844 40.511719 134.214844 40.511719 C 149.949219 25.496094 186.019531 22.464844 186.019531 22.464844 L 179.382812 40.511719 Z M 190.9375 17.855469 " fill-opacity="1" fill-rule="nonzero"/></g><path fill="#1650ad" d="M 172.410156 9.550781 C 172.410156 9.550781 142.691406 17.546875 132.257812 35.953125 C 132.257812 35.953125 146.535156 21.152344 172.410156 17.832031 Z M 172.410156 9.550781 " fill-opacity="1" fill-rule="nonzero"/><g clip-path="url(#9fc8bda1d3)"><path fill="#1650ad" d="M 157.179688 12.507812 L 157.179688 5.15625 C 157.179688 5.15625 138.058594 14.394531 132.257812 31.558594 C 132.257812 31.558594 140.734375 19.144531 157.179688 12.507812 Z M 157.179688 12.507812 " fill-opacity="1" fill-rule="nonzero"/></g><g fill="#000000" fill-opacity="1"><g transform="translate(8.744327, 70.057331)"><g><path d="M 18.59375 -5.78125 C 20.769531 -6.082031 22.863281 -6.628906 24.875 -7.421875 C 25.1875 -6.691406 25.34375 -5.789062 25.34375 -4.71875 C 25.34375 -2.875 24.789062 -1.445312 23.6875 -0.4375 C 22.582031 0.5625 21.007812 1.0625 18.96875 1.0625 C 16.570312 1.0625 14.3125 0.648438 12.1875 -0.171875 C 10.9375 0.679688 9.445312 1.109375 7.71875 1.109375 C 5.914062 1.109375 4.601562 0.65625 3.78125 -0.25 C 2.957031 -1.15625 2.546875 -2.613281 2.546875 -4.625 C 2.546875 -5.894531 2.726562 -7.8125 3.09375 -10.375 C 3.46875 -12.9375 4.175781 -17.203125 5.21875 -23.171875 L 2.96875 -27.71875 C 6.164062 -29.789062 9.082031 -30.828125 11.71875 -30.828125 C 13.382812 -30.828125 14.414062 -30.03125 14.8125 -28.4375 C 16.738281 -28.550781 18.578125 -28.773438 20.328125 -29.109375 C 22.085938 -29.453125 24.238281 -29.953125 26.78125 -30.609375 C 27.007812 -29.554688 27.125 -28.632812 27.125 -27.84375 C 27.125 -25.695312 26.398438 -24.003906 24.953125 -22.765625 C 23.515625 -21.535156 21.535156 -20.921875 19.015625 -20.921875 C 17.710938 -20.921875 16.128906 -21.164062 14.265625 -21.65625 C 13.984375 -20.039062 13.628906 -18.085938 13.203125 -15.796875 C 14.046875 -15.617188 14.894531 -15.53125 15.75 -15.53125 L 19.578125 -16.515625 C 19.710938 -15.953125 19.78125 -15.269531 19.78125 -14.46875 C 19.78125 -13.257812 19.367188 -12.304688 18.546875 -11.609375 C 17.734375 -10.921875 16.601562 -10.578125 15.15625 -10.578125 C 14.300781 -10.578125 13.351562 -10.703125 12.3125 -10.953125 C 11.914062 -8.429688 11.71875 -6.816406 11.71875 -6.109375 L 11.71875 -5.78125 Z M 18.59375 -5.78125 "/></g></g></g><g fill="#000000" fill-opacity="1"><g transform="translate(34.382192, 70.057331)"><g><path d="M 27.59375 -4.875 C 27.59375 -3.039062 28.03125 -1.753906 28.90625 -1.015625 C 27.289062 0.367188 25.609375 1.0625 23.859375 1.0625 C 22.328125 1.0625 21.15625 0.722656 20.34375 0.046875 C 19.539062 -0.628906 19.054688 -1.675781 18.890625 -3.09375 L 18.46875 -3.3125 C 17.300781 -1.925781 15.941406 -0.847656 14.390625 -0.078125 C 12.835938 0.679688 11.125 1.0625 9.25 1.0625 C 6.988281 1.0625 5.304688 0.5 4.203125 -0.625 C 3.097656 -1.757812 2.546875 -3.488281 2.546875 -5.8125 C 2.546875 -6.863281 2.628906 -7.972656 2.796875 -9.140625 C 2.972656 -10.316406 3.226562 -11.726562 3.5625 -13.375 C 3.789062 -14.507812 3.988281 -15.632812 4.15625 -16.75 C 4.332031 -17.863281 4.421875 -18.789062 4.421875 -19.53125 C 4.421875 -20.351562 4.34375 -21.101562 4.1875 -21.78125 C 4.03125 -22.457031 3.8125 -22.992188 3.53125 -23.390625 C 4.6875 -23.984375 5.894531 -24.476562 7.15625 -24.875 C 8.414062 -25.269531 9.425781 -25.46875 10.1875 -25.46875 C 11.34375 -25.46875 12.179688 -25.234375 12.703125 -24.765625 C 13.234375 -24.304688 13.5 -23.535156 13.5 -22.453125 C 13.5 -21.773438 13.359375 -20.6875 13.078125 -19.1875 C 12.796875 -17.6875 12.5 -16.171875 12.1875 -14.640625 C 11.875 -13.171875 11.582031 -11.726562 11.3125 -10.3125 C 11.039062 -8.894531 10.90625 -7.890625 10.90625 -7.296875 C 10.90625 -6.191406 11.128906 -5.382812 11.578125 -4.875 C 12.035156 -4.375 12.757812 -4.125 13.75 -4.125 C 14.6875 -4.125 15.640625 -4.410156 16.609375 -4.984375 C 17.585938 -5.566406 18.445312 -6.351562 19.1875 -7.34375 C 19.582031 -9.800781 20.375 -13.59375 21.5625 -18.71875 L 19.1875 -22.28125 C 21.144531 -23.445312 22.75 -24.269531 24 -24.75 C 25.257812 -25.226562 26.441406 -25.46875 27.546875 -25.46875 C 28.679688 -25.46875 29.492188 -25.226562 29.984375 -24.75 C 30.484375 -24.269531 30.734375 -23.460938 30.734375 -22.328125 C 30.734375 -21.960938 30.625 -21.289062 30.40625 -20.3125 C 30.195312 -19.332031 29.96875 -18.265625 29.71875 -17.109375 C 29.0625 -14.421875 28.539062 -12.078125 28.15625 -10.078125 C 27.78125 -8.085938 27.59375 -6.351562 27.59375 -4.875 Z M 27.59375 -4.875 "/></g></g></g><g fill="#000000" fill-opacity="1"><g transform="translate(65.750408, 70.057331)"><g><path d="M 7.34375 1.0625 C 5.613281 1.0625 4.351562 0.625 3.5625 -0.25 C 2.769531 -1.132812 2.375 -2.453125 2.375 -4.203125 C 2.375 -5.222656 2.648438 -7.316406 3.203125 -10.484375 C 3.753906 -13.648438 4.367188 -16.722656 5.046875 -19.703125 L 2.796875 -23.09375 C 3.878906 -23.832031 4.921875 -24.410156 5.921875 -24.828125 C 6.921875 -25.253906 7.929688 -25.46875 8.953125 -25.46875 C 10.117188 -25.46875 10.988281 -25.1875 11.5625 -24.625 C 12.144531 -24.0625 12.4375 -23.269531 12.4375 -22.25 C 12.4375 -21.363281 12.320312 -20.492188 12.09375 -19.640625 C 11.875 -18.796875 11.535156 -17.78125 11.078125 -16.59375 L 11.5 -16.390625 C 12.238281 -18.453125 12.945312 -20.113281 13.625 -21.375 C 14.300781 -22.632812 15.109375 -23.625 16.046875 -24.34375 C 16.984375 -25.0625 18.128906 -25.421875 19.484375 -25.421875 C 20.785156 -25.421875 21.816406 -25.046875 22.578125 -24.296875 C 23.347656 -23.546875 23.734375 -22.535156 23.734375 -21.265625 C 23.734375 -19.765625 23.257812 -18.53125 22.3125 -17.5625 C 21.363281 -16.601562 20.023438 -16.125 18.296875 -16.125 C 16.960938 -16.125 15.742188 -15.628906 14.640625 -14.640625 C 13.535156 -13.648438 12.671875 -12.300781 12.046875 -10.59375 C 11.429688 -8.882812 11.125 -6.976562 11.125 -4.875 C 11.125 -3.125 11.421875 -1.835938 12.015625 -1.015625 C 10.515625 0.367188 8.957031 1.0625 7.34375 1.0625 Z M 7.34375 1.0625 "/></g></g></g><g fill="#000000" fill-opacity="1"><g transform="translate(87.78028, 70.057331)"><g><path d="M 23.265625 -22.25 C 24.898438 -22.25 26.234375 -21.585938 27.265625 -20.265625 C 28.304688 -18.953125 28.828125 -17.25 28.828125 -15.15625 C 28.828125 -12.1875 28.144531 -9.460938 26.78125 -6.984375 C 25.425781 -4.503906 23.582031 -2.539062 21.25 -1.09375 C 18.914062 0.34375 16.347656 1.0625 13.546875 1.0625 C 11.191406 1.0625 9.132812 0.601562 7.375 -0.3125 C 5.625 -1.238281 4.273438 -2.539062 3.328125 -4.21875 C 2.378906 -5.90625 1.90625 -7.867188 1.90625 -10.109375 C 1.90625 -13.078125 2.597656 -15.722656 3.984375 -18.046875 C 5.378906 -20.367188 7.300781 -22.1875 9.75 -23.5 C 12.195312 -24.8125 14.960938 -25.46875 18.046875 -25.46875 C 19.003906 -25.46875 20.007812 -25.351562 21.0625 -25.125 C 21.34375 -24.132812 21.46875 -23.0625 21.4375 -21.90625 C 22.0625 -22.132812 22.671875 -22.25 23.265625 -22.25 Z M 14.90625 -3.3125 C 16.539062 -3.3125 17.898438 -3.960938 18.984375 -5.265625 C 20.078125 -6.566406 20.769531 -8.363281 21.0625 -10.65625 C 18.90625 -11.84375 17.828125 -13.65625 17.828125 -16.09375 C 17.828125 -17.3125 18.09375 -18.40625 18.625 -19.375 C 19.164062 -20.351562 19.890625 -21.097656 20.796875 -21.609375 C 18.703125 -21.492188 16.863281 -20.90625 15.28125 -19.84375 C 13.695312 -18.78125 12.472656 -17.394531 11.609375 -15.6875 C 10.742188 -13.976562 10.3125 -12.085938 10.3125 -10.015625 C 10.3125 -7.691406 10.710938 -5.992188 11.515625 -4.921875 C 12.328125 -3.847656 13.457031 -3.3125 14.90625 -3.3125 Z M 14.90625 -3.3125 "/></g></g></g><path stroke-linecap="butt" transform="matrix(0.490274, 0, 0, 0.490274, 8.096069, 37.953543)" fill="none" stroke-linejoin="miter" d="M 37.928423 53.221887 C 42.366307 52.592457 46.636874 51.461075 50.740124 49.843677 C 51.369555 51.34953 51.688254 53.197985 51.688254 55.381073 C 51.688254 59.141722 50.556872 62.049851 48.302077 64.089524 C 46.063216 66.137166 42.868258 67.157003 38.709235 67.157003 C 33.80127 67.157003 29.188102 66.328385 24.861762 64.663183 C 22.31217 66.384157 19.276562 67.244645 15.74697 67.244645 C 12.058028 67.244645 9.372989 66.320418 7.691852 64.471963 C 6.034617 62.623509 5.198032 59.659608 5.198032 55.572293 C 5.198032 52.966928 5.572503 49.054897 6.321446 43.836201 C 7.070388 38.609536 8.512502 29.909053 10.655753 17.726782 L 6.066486 8.45264 C 12.591849 4.237845 18.535586 2.126464 23.88973 2.126464 C 27.29981 2.126464 29.411191 3.751829 30.231841 6.994592 C 34.151839 6.755567 37.896553 6.285486 41.47395 5.592316 C 45.059314 4.907113 49.449393 3.895244 54.644187 2.572643 C 55.098334 4.699959 55.321423 6.572315 55.321423 8.197681 C 55.321423 12.579792 53.84744 16.029709 50.907441 18.555399 C 47.97541 21.065154 43.9359 22.316048 38.78891 22.316048 C 36.143708 22.316048 32.908913 21.822064 29.092492 20.842065 C 28.510866 24.132632 27.793793 28.11637 26.933306 32.785311 C 28.662248 33.13588 30.399158 33.311165 32.136068 33.311165 L 39.912324 31.327263 C 40.207121 32.482547 40.358503 33.860921 40.358503 35.470351 C 40.358503 37.948236 39.521918 39.900267 37.840781 41.326446 C 36.167611 42.728721 33.849075 43.437827 30.909077 43.437827 C 29.172167 43.437827 27.244038 43.1749 25.116721 42.657014 C 24.296071 47.796036 23.88973 51.086604 23.88973 52.528717 L 23.88973 53.221887 Z M 108.568065 55.046439 C 108.568065 58.791153 109.460422 61.42042 111.253104 62.926273 C 107.970504 65.746759 104.536522 67.157003 100.959125 67.157003 C 97.843842 67.157003 95.461567 66.463832 93.812299 65.085459 C 92.163032 63.707086 91.167097 61.571802 90.832463 58.679608 L 89.964008 58.257332 C 87.597668 61.077818 84.817019 63.268874 81.637996 64.8305 C 78.46694 66.384157 74.977186 67.157003 71.168733 67.157003 C 66.547596 67.157003 63.105647 66.009686 60.850851 63.707086 C 58.61199 61.396518 57.496544 57.874893 57.496544 53.142212 C 57.496544 50.998961 57.663861 48.728231 57.998495 46.33002 C 58.357031 43.939778 58.874917 41.071486 59.568088 37.733114 C 60.030201 35.414578 60.428575 33.119945 60.771176 30.841247 C 61.121745 28.554582 61.29703 26.66629 61.29703 25.168404 C 61.29703 23.495234 61.13768 21.965479 60.811014 20.587106 C 60.500282 19.192797 60.062071 18.093286 59.480445 17.288571 C 61.846786 16.077514 64.316703 15.065645 66.88223 14.26093 C 69.447758 13.448247 71.511334 13.033938 73.072959 13.033938 C 75.4393 13.033938 77.160274 13.519954 78.227916 14.476052 C 79.303525 15.432149 79.837346 17.001741 79.837346 19.192797 C 79.837346 20.587106 79.550517 22.810031 78.968891 25.869542 C 78.395233 28.929053 77.789705 32.012466 77.152307 35.127749 C 76.506941 38.131488 75.909381 41.079454 75.359625 43.96368 C 74.817837 46.839939 74.55491 48.88758 74.55491 50.098637 C 74.55491 52.353432 75.009056 54.0027 75.925316 55.046439 C 76.85751 56.082211 78.331493 56.608064 80.347265 56.608064 C 82.251492 56.608064 84.195556 56.018471 86.179457 54.831317 C 88.179294 53.644163 89.932138 52.042701 91.422056 50.010994 C 92.242706 44.991485 93.860104 37.263033 96.282217 26.817672 L 91.422056 19.551334 C 95.413762 17.184993 98.688394 15.503856 101.253922 14.515889 C 103.835384 13.527922 106.241562 13.033938 108.480422 13.033938 C 110.79099 13.033938 112.448225 13.527922 113.452127 14.515889 C 114.463997 15.503856 114.973915 17.153124 114.973915 19.463692 C 114.973915 20.212634 114.758793 21.575073 114.320582 23.566942 C 113.898306 25.550843 113.420258 27.725964 112.902372 30.100272 C 111.579771 35.581895 110.520096 40.354414 109.731316 44.433761 C 108.958471 48.505141 108.568065 52.042701 108.568065 55.046439 Z M 131.259436 67.157003 C 127.737812 67.157003 125.164317 66.264645 123.546919 64.471963 C 121.921554 62.679281 121.116839 59.994242 121.116839 56.416845 C 121.116839 54.345301 121.68253 50.082702 122.805944 43.629046 C 123.937326 37.159456 125.18822 30.889052 126.566593 24.809868 L 121.985294 17.902066 C 124.17635 16.388246 126.303666 15.209059 128.34334 14.348572 C 130.398949 13.47215 132.470493 13.033938 134.542036 13.033938 C 136.908377 13.033938 138.685124 13.615564 139.86431 14.770848 C 141.051464 15.926132 141.641057 17.54353 141.641057 19.631009 C 141.641057 21.423691 141.410001 23.184503 140.947887 24.921413 C 140.493741 26.63442 139.80057 28.705964 138.876343 31.136044 L 139.736831 31.574255 C 141.250651 27.367428 142.692764 23.973283 144.071138 21.407756 C 145.457478 18.826293 147.098778 16.810522 148.995038 15.344506 C 150.899264 13.878491 153.241702 13.145483 156.014384 13.145483 C 158.667553 13.145483 160.770967 13.910361 162.34056 15.448084 C 163.902185 16.969872 164.682998 19.02548 164.682998 21.622878 C 164.682998 24.682388 163.710966 27.192143 161.766902 29.168077 C 159.838772 31.128076 157.105928 32.108076 153.584304 32.108076 C 150.883329 32.108076 148.397477 33.111978 146.142681 35.127749 C 143.887886 37.143521 142.127073 39.900267 140.860245 43.397989 C 139.593416 46.887744 138.956018 50.775872 138.956018 55.046439 C 138.956018 58.623836 139.561546 61.253103 140.772602 62.926273 C 137.713092 65.746759 134.542036 67.157003 131.259436 67.157003 Z M 208.663465 19.631009 C 212.009805 19.631009 214.726714 20.977512 216.830128 23.670519 C 218.941509 26.347591 220.001183 29.82141 220.001183 34.091977 C 220.001183 40.155227 218.606875 45.716525 215.834193 50.775872 C 213.069479 55.819284 209.308831 59.81099 204.54428 62.758956 C 199.779729 65.690987 194.545098 67.157003 188.840385 67.157003 C 184.043964 67.157003 179.86104 66.21684 176.283643 64.344484 C 172.698279 62.472127 169.941532 59.818957 167.997468 56.392943 C 166.061371 52.95896 165.097307 48.95132 165.097307 44.385956 C 165.097307 38.330675 166.515517 32.928726 169.343971 28.196045 C 172.180393 23.463364 176.092423 19.750521 181.080063 17.073449 C 186.067703 14.380442 191.716644 13.033938 198.01095 13.033938 C 199.970949 13.033938 202.01859 13.272963 204.161841 13.735076 C 204.743467 15.766783 204.998426 17.957839 204.926719 20.308244 C 206.209483 19.862065 207.452409 19.631009 208.663465 19.631009 Z M 191.605099 58.257332 C 194.943472 58.257332 197.732088 56.934731 199.955014 54.281561 C 202.185907 51.620425 203.588183 47.947418 204.161841 43.27051 C 199.763794 40.84043 197.564771 37.151488 197.564771 32.187751 C 197.564771 29.693931 198.114527 27.45507 199.214039 25.471168 C 200.31355 23.479299 201.787533 21.965479 203.635988 20.92174 C 199.365421 21.160764 195.612739 22.363853 192.369977 24.538974 C 189.143149 26.690192 186.649329 29.518646 184.880549 33.016368 C 183.119737 36.498155 182.243315 40.346446 182.243315 44.561241 C 182.243315 49.293922 183.063965 52.759774 184.713232 54.958797 C 186.3625 57.15782 188.6651 58.257332 191.605099 58.257332 Z M 191.605099 58.257332 " stroke="#000000" stroke-width="0.920023" stroke-opacity="1" stroke-miterlimit="4"/><g fill="#1650ad" fill-opacity="1"><g transform="translate(117.613039, 70.057331)"><g><path d="M 27.515625 -8.953125 C 28.222656 -7.203125 28.578125 -5.691406 28.578125 -4.421875 C 28.578125 -3.367188 28.242188 -2.410156 27.578125 -1.546875 C 26.910156 -0.679688 26.007812 0.00390625 24.875 0.515625 C 23.738281 1.023438 22.476562 1.28125 21.09375 1.28125 C 19.3125 1.28125 17.648438 1.070312 16.109375 0.65625 C 14.566406 0.25 12.625 -0.394531 10.28125 -1.28125 C 9.28125 -0.476562 8.367188 0.0859375 7.546875 0.421875 C 6.734375 0.765625 5.84375 0.9375 4.875 0.9375 C 3.632812 0.9375 2.617188 0.523438 1.828125 -0.296875 C 1.035156 -1.117188 0.640625 -2.164062 0.640625 -3.4375 C 0.640625 -5 1.179688 -6.304688 2.265625 -7.359375 C 3.359375 -8.421875 4.796875 -9.050781 6.578125 -9.25 L 15.40625 -20.421875 C 12.632812 -20.503906 10.410156 -20.78125 8.734375 -21.25 C 7.066406 -21.71875 5.851562 -22.410156 5.09375 -23.328125 C 4.332031 -24.242188 3.953125 -25.453125 3.953125 -26.953125 C 3.953125 -28.234375 4.207031 -29.609375 4.71875 -31.078125 C 6.976562 -30.140625 9.59375 -29.28125 12.5625 -28.5 C 15.539062 -27.726562 17.878906 -27.300781 19.578125 -27.21875 C 21.273438 -29.625 23.195312 -30.828125 25.34375 -30.828125 C 26.726562 -30.828125 27.8125 -30.453125 28.59375 -29.703125 C 29.375 -28.953125 29.765625 -27.910156 29.765625 -26.578125 C 29.765625 -25.523438 29.4375 -24.585938 28.78125 -23.765625 C 28.132812 -22.953125 27.1875 -22.273438 25.9375 -21.734375 L 14.90625 -7.515625 C 16.320312 -7.085938 17.523438 -6.757812 18.515625 -6.53125 C 19.503906 -6.3125 20.363281 -6.203125 21.09375 -6.203125 Z M 27.515625 -8.953125 "/></g></g></g><g fill="#1650ad" fill-opacity="1"><g transform="translate(146.943799, 70.057331)"><g><path d="M 23.265625 -22.25 C 24.898438 -22.25 26.234375 -21.585938 27.265625 -20.265625 C 28.304688 -18.953125 28.828125 -17.25 28.828125 -15.15625 C 28.828125 -12.1875 28.144531 -9.460938 26.78125 -6.984375 C 25.425781 -4.503906 23.582031 -2.539062 21.25 -1.09375 C 18.914062 0.34375 16.347656 1.0625 13.546875 1.0625 C 11.191406 1.0625 9.132812 0.601562 7.375 -0.3125 C 5.625 -1.238281 4.273438 -2.539062 3.328125 -4.21875 C 2.378906 -5.90625 1.90625 -7.867188 1.90625 -10.109375 C 1.90625 -13.078125 2.597656 -15.722656 3.984375 -18.046875 C 5.378906 -20.367188 7.300781 -22.1875 9.75 -23.5 C 12.195312 -24.8125 14.960938 -25.46875 18.046875 -25.46875 C 19.003906 -25.46875 20.007812 -25.351562 21.0625 -25.125 C 21.34375 -24.132812 21.46875 -23.0625 21.4375 -21.90625 C 22.0625 -22.132812 22.671875 -22.25 23.265625 -22.25 Z M 14.90625 -3.3125 C 16.539062 -3.3125 17.898438 -3.960938 18.984375 -5.265625 C 20.078125 -6.566406 20.769531 -8.363281 21.0625 -10.65625 C 18.90625 -11.84375 17.828125 -13.65625 17.828125 -16.09375 C 17.828125 -17.3125 18.09375 -18.40625 18.625 -19.375 C 19.164062 -20.351562 19.890625 -21.097656 20.796875 -21.609375 C 18.703125 -21.492188 16.863281 -20.90625 15.28125 -19.84375 C 13.695312 -18.78125 12.472656 -17.394531 11.609375 -15.6875 C 10.742188 -13.976562 10.3125 -12.085938 10.3125 -10.015625 C 10.3125 -7.691406 10.710938 -5.992188 11.515625 -4.921875 C 12.328125 -3.847656 13.457031 -3.3125 14.90625 -3.3125 Z M 14.90625 -3.3125 "/></g></g></g><g fill="#1650ad" fill-opacity="1"><g transform="translate(176.401901, 70.057331)"><g><path d="M 23.265625 -22.25 C 24.898438 -22.25 26.234375 -21.585938 27.265625 -20.265625 C 28.304688 -18.953125 28.828125 -17.25 28.828125 -15.15625 C 28.828125 -12.1875 28.144531 -9.460938 26.78125 -6.984375 C 25.425781 -4.503906 23.582031 -2.539062 21.25 -1.09375 C 18.914062 0.34375 16.347656 1.0625 13.546875 1.0625 C 11.191406 1.0625 9.132812 0.601562 7.375 -0.3125 C 5.625 -1.238281 4.273438 -2.539062 3.328125 -4.21875 C 2.378906 -5.90625 1.90625 -7.867188 1.90625 -10.109375 C 1.90625 -13.078125 2.597656 -15.722656 3.984375 -18.046875 C 5.378906 -20.367188 7.300781 -22.1875 9.75 -23.5 C 12.195312 -24.8125 14.960938 -25.46875 18.046875 -25.46875 C 19.003906 -25.46875 20.007812 -25.351562 21.0625 -25.125 C 21.34375 -24.132812 21.46875 -23.0625 21.4375 -21.90625 C 22.0625 -22.132812 22.671875 -22.25 23.265625 -22.25 Z M 14.90625 -3.3125 C 16.539062 -3.3125 17.898438 -3.960938 18.984375 -5.265625 C 20.078125 -6.566406 20.769531 -8.363281 21.0625 -10.65625 C 18.90625 -11.84375 17.828125 -13.65625 17.828125 -16.09375 C 17.828125 -17.3125 18.09375 -18.40625 18.625 -19.375 C 19.164062 -20.351562 19.890625 -21.097656 20.796875 -21.609375 C 18.703125 -21.492188 16.863281 -20.90625 15.28125 -19.84375 C 13.695312 -18.78125 12.472656 -17.394531 11.609375 -15.6875 C 10.742188 -13.976562 10.3125 -12.085938 10.3125 -10.015625 C 10.3125 -7.691406 10.710938 -5.992188 11.515625 -4.921875 C 12.328125 -3.847656 13.457031 -3.3125 14.90625 -3.3125 Z M 14.90625 -3.3125 "/></g></g></g><g fill="#1650ad" fill-opacity="1"><g transform="translate(205.860004, 70.057331)"><g><path d="M 7.296875 1.0625 C 5.578125 1.0625 4.316406 0.625 3.515625 -0.25 C 2.722656 -1.132812 2.328125 -2.453125 2.328125 -4.203125 C 2.328125 -5.335938 2.617188 -7.53125 3.203125 -10.78125 C 3.785156 -14.039062 4.390625 -17.015625 5.015625 -19.703125 L 2.796875 -23.09375 C 5.597656 -24.675781 8.21875 -25.46875 10.65625 -25.46875 C 11.8125 -25.46875 12.679688 -25.1875 13.265625 -24.625 C 13.847656 -24.0625 14.140625 -23.269531 14.140625 -22.25 C 14.140625 -21.539062 14.046875 -20.796875 13.859375 -20.015625 C 13.671875 -19.234375 13.4375 -18.535156 13.15625 -17.921875 L 13.578125 -17.703125 C 15.191406 -20.453125 16.90625 -22.429688 18.71875 -23.640625 C 20.53125 -24.859375 22.523438 -25.46875 24.703125 -25.46875 C 26.285156 -25.46875 27.535156 -25.070312 28.453125 -24.28125 C 29.378906 -23.488281 29.84375 -22.300781 29.84375 -20.71875 C 29.84375 -19.863281 29.703125 -18.929688 29.421875 -17.921875 L 29.84375 -17.703125 C 31.457031 -20.453125 33.171875 -22.429688 34.984375 -23.640625 C 36.796875 -24.859375 38.789062 -25.46875 40.96875 -25.46875 C 42.695312 -25.46875 43.984375 -25.050781 44.828125 -24.21875 C 45.679688 -23.382812 46.109375 -22.085938 46.109375 -20.328125 C 46.109375 -19.367188 46.007812 -18.363281 45.8125 -17.3125 C 45.613281 -16.269531 45.316406 -14.875 44.921875 -13.125 C 44.460938 -11.226562 44.125 -9.675781 43.90625 -8.46875 C 43.695312 -7.269531 43.59375 -6.070312 43.59375 -4.875 C 43.59375 -3.125 43.890625 -1.835938 44.484375 -1.015625 C 42.984375 0.367188 41.429688 1.0625 39.828125 1.0625 C 38.066406 1.0625 36.796875 0.660156 36.015625 -0.140625 C 35.242188 -0.953125 34.859375 -2.164062 34.859375 -3.78125 C 34.859375 -5.082031 34.988281 -6.351562 35.25 -7.59375 C 35.519531 -8.84375 35.894531 -10.300781 36.375 -11.96875 C 36.71875 -13.15625 36.972656 -14.117188 37.140625 -14.859375 C 37.316406 -15.597656 37.40625 -16.273438 37.40625 -16.890625 C 37.40625 -18.171875 36.921875 -18.8125 35.953125 -18.8125 C 34.878906 -18.8125 33.65625 -18.191406 32.28125 -16.953125 C 30.914062 -15.722656 29.75 -14.046875 28.78125 -11.921875 C 27.820312 -9.804688 27.34375 -7.457031 27.34375 -4.875 C 27.34375 -3.125 27.640625 -1.835938 28.234375 -1.015625 C 26.734375 0.367188 25.175781 1.0625 23.5625 1.0625 C 21.800781 1.0625 20.53125 0.660156 19.75 -0.140625 C 18.976562 -0.953125 18.59375 -2.164062 18.59375 -3.78125 C 18.59375 -5.082031 18.726562 -6.351562 19 -7.59375 C 19.269531 -8.84375 19.644531 -10.300781 20.125 -11.96875 C 20.457031 -13.15625 20.707031 -14.117188 20.875 -14.859375 C 21.050781 -15.597656 21.140625 -16.273438 21.140625 -16.890625 C 21.140625 -18.171875 20.660156 -18.8125 19.703125 -18.8125 C 18.617188 -18.8125 17.390625 -18.191406 16.015625 -16.953125 C 14.648438 -15.722656 13.484375 -14.046875 12.515625 -11.921875 C 11.554688 -9.804688 11.078125 -7.457031 11.078125 -4.875 C 11.078125 -3.125 11.375 -1.835938 11.96875 -1.015625 C 10.46875 0.367188 8.910156 1.0625 7.296875 1.0625 Z M 7.296875 1.0625 "/></g></g></g><path stroke-linecap="butt" transform="matrix(0.490274, 0, 0, 0.490274, 116.964778, 37.953543)" fill="none" stroke-linejoin="miter" d="M 56.107099 46.736362 C 57.55718 50.313758 58.28222 53.397172 58.28222 55.994569 C 58.28222 58.13782 57.597017 60.089851 56.234579 61.850664 C 54.880108 63.595541 53.047588 64.989849 50.73702 66.033589 C 48.426452 67.077328 45.860925 67.603181 43.040439 67.603181 C 39.40727 67.603181 36.005157 67.180905 32.850037 66.328385 C 29.710851 65.499768 25.743048 64.193102 20.946628 62.400419 C 18.930856 64.017817 17.090369 65.173101 15.409232 65.866272 C 13.736062 66.559442 11.919478 66.902043 9.959479 66.902043 C 7.417854 66.902043 5.338342 66.073426 3.720945 64.408223 C 2.103547 62.727086 1.290865 60.591802 1.290865 57.97847 C 1.290865 54.807415 2.406311 52.146278 4.629237 49.987092 C 6.86013 47.819938 9.784194 46.529207 13.425331 46.122866 L 31.431826 23.35182 C 25.766951 23.184503 21.233457 22.618812 17.823377 21.662715 C 14.421265 20.706618 11.94338 19.288407 10.381755 17.41605 C 8.828097 15.535726 8.055252 13.073776 8.055252 10.014265 C 8.055252 7.424835 8.573138 4.620284 9.616877 1.624513 C 14.230046 3.520772 19.560287 5.273617 25.623536 6.867112 C 31.678818 8.444672 36.443369 9.313127 39.909221 9.488412 C 43.38304 4.580446 47.303038 2.126464 51.68515 2.126464 C 54.521572 2.126464 56.728562 2.899309 58.306123 4.437032 C 59.899618 5.95882 60.696365 8.078168 60.696365 10.795078 C 60.696365 12.922394 60.027097 14.826621 58.704496 16.507758 C 57.381895 18.180928 55.453766 19.567269 52.912141 20.66678 L 30.396054 49.67636 C 33.272313 50.536848 35.718328 51.198148 37.7341 51.660262 C 39.765806 52.122376 41.534586 52.3614 43.040439 52.3614 Z M 107.282197 19.631009 C 110.628537 19.631009 113.345447 20.977512 115.44886 23.670519 C 117.560241 26.347591 118.611948 29.82141 118.611948 34.091977 C 118.611948 40.155227 117.225607 45.716525 114.452926 50.775872 C 111.688212 55.819284 107.927563 59.81099 103.163012 62.758956 C 98.398462 65.690987 93.16383 67.157003 87.459117 67.157003 C 82.662697 67.157003 78.479772 66.21684 74.894408 64.344484 C 71.317011 62.472127 68.552297 59.818957 66.608233 56.392943 C 64.680103 52.95896 63.716039 48.95132 63.716039 44.385956 C 63.716039 38.330675 65.13425 32.928726 67.962703 28.196045 C 70.799125 23.463364 74.711156 19.750521 79.698796 17.073449 C 84.686436 14.380442 90.327408 13.033938 96.629682 13.033938 C 98.589681 13.033938 100.637322 13.272963 102.780573 13.735076 C 103.362199 15.766783 103.617158 17.957839 103.545451 20.308244 C 104.828215 19.862065 106.071141 19.631009 107.282197 19.631009 Z M 90.223831 58.257332 C 93.562204 58.257332 96.35082 56.934731 98.573746 54.281561 C 100.804639 51.620425 102.206915 47.947418 102.780573 43.27051 C 98.382527 40.84043 96.183503 37.151488 96.183503 32.187751 C 96.183503 29.693931 96.733259 27.45507 97.832771 25.471168 C 98.932283 23.479299 100.406266 21.965479 102.25472 20.92174 C 97.984153 21.160764 94.223504 22.363853 90.988709 24.538974 C 87.761881 26.690192 85.260094 29.518646 83.499282 33.016368 C 81.738469 36.498155 80.862047 40.346446 80.862047 44.561241 C 80.862047 49.293922 81.682697 52.759774 83.331965 54.958797 C 84.981232 57.15782 87.275865 58.257332 90.223831 58.257332 Z M 167.372901 19.631009 C 170.711273 19.631009 173.428183 20.977512 175.531596 23.670519 C 177.642978 26.347591 178.702652 29.82141 178.702652 34.091977 C 178.702652 40.155227 177.316311 45.716525 174.535662 50.775872 C 171.770948 55.819284 168.010299 59.81099 163.245748 62.758956 C 158.481198 65.690987 153.246566 67.157003 147.541853 67.157003 C 142.745433 67.157003 138.562508 66.21684 134.985111 64.344484 C 131.399747 62.472127 128.643 59.818957 126.698936 56.392943 C 124.76284 52.95896 123.798775 48.95132 123.798775 44.385956 C 123.798775 38.330675 125.216986 32.928726 128.04544 28.196045 C 130.881861 23.463364 134.793892 19.750521 139.781532 17.073449 C 144.769172 14.380442 150.418112 13.033938 156.712418 13.033938 C 158.672417 13.033938 160.728026 13.272963 162.86331 13.735076 C 163.444935 15.766783 163.699895 17.957839 163.628187 20.308244 C 164.910951 19.862065 166.153877 19.631009 167.372901 19.631009 Z M 150.306567 58.257332 C 153.652907 58.257332 156.433557 56.934731 158.656482 54.281561 C 160.887376 51.620425 162.289651 47.947418 162.86331 43.27051 C 158.47323 40.84043 156.274207 37.151488 156.274207 32.187751 C 156.274207 29.693931 156.823963 27.45507 157.923475 25.471168 C 159.022986 23.479299 160.489002 21.965479 162.337456 20.92174 C 158.066889 21.160764 154.314208 22.363853 151.071445 24.538974 C 147.844617 26.690192 145.350797 29.518646 143.589985 33.016368 C 141.829173 36.498155 140.944783 40.346446 140.944783 44.561241 C 140.944783 49.293922 141.765433 52.759774 143.414701 54.958797 C 145.063968 57.15782 147.366569 58.257332 150.306567 58.257332 Z M 194.90053 67.157003 C 191.378906 67.157003 188.805411 66.264645 187.180046 64.471963 C 185.562649 62.679281 184.749966 59.994242 184.749966 56.416845 C 184.749966 54.122212 185.339559 49.652458 186.526713 43.01555 C 187.713867 36.378643 188.940858 30.307426 190.207687 24.809868 L 185.706063 17.902066 C 191.426711 14.659304 196.76492 13.033938 201.728657 13.033938 C 204.094998 13.033938 205.871745 13.615564 207.050931 14.770848 C 208.238085 15.926132 208.827678 17.54353 208.827678 19.631009 C 208.827678 21.073122 208.636459 22.586942 208.261988 24.180437 C 207.895484 25.757998 207.417435 27.184176 206.843777 28.451004 L 207.712232 28.889216 C 210.994832 23.296047 214.484586 19.256537 218.173528 16.778652 C 221.870437 14.284832 225.941817 13.033938 230.395636 13.033938 C 233.622464 13.033938 236.172056 13.846621 238.044413 15.471986 C 239.91677 17.089384 240.856932 19.511496 240.856932 22.738324 C 240.856932 24.475234 240.57807 26.379461 240.012379 28.451004 L 240.856932 28.889216 C 244.155467 23.296047 247.653189 19.256537 251.34213 16.778652 C 255.039039 14.284832 259.110419 13.033938 263.564238 13.033938 C 267.069928 13.033938 269.691227 13.886458 271.428137 15.599466 C 273.157079 17.304506 274.025534 19.94174 274.025534 23.519137 C 274.025534 25.479136 273.81838 27.534745 273.412039 29.677996 C 273.021632 31.805312 272.416104 34.657668 271.619356 38.235065 C 270.687162 42.115226 270.001959 45.278314 269.563748 47.732296 C 269.141471 50.178311 268.934317 52.616359 268.934317 55.046439 C 268.934317 58.623836 269.539845 61.253103 270.750902 62.926273 C 267.691391 65.746759 264.512368 67.157003 261.213833 67.157003 C 257.636436 67.157003 255.047006 66.336353 253.453511 64.70302 C 251.875951 63.053753 251.087171 60.583835 251.087171 57.2853 C 251.087171 54.63213 251.366033 52.042701 251.915788 49.501076 C 252.465544 46.967419 253.222454 43.99555 254.194487 40.58547 C 254.887657 38.15539 255.405543 36.203359 255.764079 34.705473 C 256.114648 33.19962 256.289933 31.813279 256.289933 30.538483 C 256.289933 27.933118 255.301966 26.63442 253.333999 26.63442 C 251.142943 26.63442 248.649123 27.893281 245.844572 30.411004 C 243.04002 32.920758 240.657745 36.338806 238.697746 40.665145 C 236.745714 44.991485 235.765715 49.787905 235.765715 55.046439 C 235.765715 58.623836 236.371243 61.253103 237.582299 62.926273 C 234.522788 65.746759 231.343765 67.157003 228.04523 67.157003 C 224.467834 67.157003 221.878404 66.336353 220.284909 64.70302 C 218.707349 63.053753 217.918568 60.583835 217.918568 57.2853 C 217.918568 54.63213 218.19743 52.042701 218.747186 49.501076 C 219.296942 46.967419 220.06182 43.99555 221.049787 40.58547 C 221.742957 38.15539 222.252875 36.203359 222.595477 34.705473 C 222.946046 33.19962 223.12133 31.813279 223.12133 30.538483 C 223.12133 27.933118 222.141331 26.63442 220.181332 26.63442 C 217.982308 26.63442 215.480521 27.893281 212.675969 30.411004 C 209.887353 32.920758 207.505077 36.338806 205.529143 40.665145 C 203.577112 44.991485 202.597112 49.787905 202.597112 55.046439 C 202.597112 58.623836 203.20264 61.253103 204.413697 62.926273 C 201.354186 65.746759 198.183131 67.157003 194.90053 67.157003 Z M 194.90053 67.157003 " stroke="#1650ad" stroke-width="0.920023" stroke-opacity="1" stroke-miterlimit="4"/><g fill="#000000" fill-opacity="1"><g transform="translate(11.776583, 89.553873)"><g><path d="M 2.65625 -8.859375 L 2.65625 -1.765625 L 5.703125 -1.765625 L 5.703125 0 L 0.640625 0 L 0.640625 -8.859375 Z M 2.65625 -8.859375 "/></g></g></g><g fill="#000000" fill-opacity="1"><g transform="translate(18.756421, 89.553873)"><g><path d="M 5.140625 -8.859375 L 8.71875 0 L 6.546875 0 L 5.890625 -1.765625 L 2.515625 -1.765625 L 1.875 0 L -0.296875 0 L 3.28125 -8.859375 Z M 5.203125 -3.546875 L 4.21875 -6.125 L 4.203125 -6.125 L 3.203125 -3.546875 Z M 5.203125 -3.546875 "/></g></g></g><g fill="#000000" fill-opacity="1"><g transform="translate(28.087828, 89.553873)"><g><path d="M 2.65625 -5.5 L 2.65625 0 L 0.640625 0 L 0.640625 -8.859375 L 2.65625 -8.859375 L 6.1875 -3.359375 L 6.203125 -3.359375 L 6.203125 -8.859375 L 8.21875 -8.859375 L 8.21875 0 L 6.203125 0 L 2.6875 -5.5 Z M 2.65625 -5.5 "/></g></g></g><g fill="#000000" fill-opacity="1"><g transform="translate(37.87022, 89.553873)"><g><path d="M 8.65625 -4.953125 L 8.65625 -3.03125 C 8.425781 -1.976562 7.921875 -1.179688 7.140625 -0.640625 C 6.367188 -0.109375 5.507812 0.15625 4.5625 0.15625 C 3.363281 0.15625 2.34375 -0.285156 1.5 -1.171875 C 0.664062 -2.066406 0.25 -3.148438 0.25 -4.421875 C 0.25 -5.710938 0.660156 -6.800781 1.484375 -7.6875 C 2.304688 -8.570312 3.332031 -9.015625 4.5625 -9.015625 C 6 -9.015625 7.132812 -8.507812 7.96875 -7.5 L 6.65625 -6.046875 C 6.1875 -6.804688 5.53125 -7.1875 4.6875 -7.1875 C 4.0625 -7.1875 3.523438 -6.914062 3.078125 -6.375 C 2.640625 -5.84375 2.421875 -5.191406 2.421875 -4.421875 C 2.421875 -3.671875 2.640625 -3.03125 3.078125 -2.5 C 3.523438 -1.96875 4.0625 -1.703125 4.6875 -1.703125 C 5.195312 -1.703125 5.644531 -1.851562 6.03125 -2.15625 C 6.414062 -2.46875 6.609375 -2.882812 6.609375 -3.40625 L 4.5625 -3.40625 L 4.5625 -4.953125 Z M 8.65625 -4.953125 "/></g></g></g><g fill="#000000" fill-opacity="1"><g transform="translate(47.684817, 89.553873)"><g><path d="M 7.453125 -8.859375 L 7.453125 -3.140625 C 7.453125 -2.054688 7.15625 -1.234375 6.5625 -0.671875 C 5.976562 -0.117188 5.117188 0.15625 3.984375 0.15625 C 2.859375 0.15625 2 -0.117188 1.40625 -0.671875 C 0.820312 -1.234375 0.53125 -2.054688 0.53125 -3.140625 L 0.53125 -8.859375 L 2.5625 -8.859375 L 2.5625 -3.734375 C 2.5625 -3.015625 2.671875 -2.515625 2.890625 -2.234375 C 3.117188 -1.960938 3.484375 -1.828125 3.984375 -1.828125 C 4.492188 -1.828125 4.863281 -1.960938 5.09375 -2.234375 C 5.320312 -2.515625 5.4375 -3.015625 5.4375 -3.734375 L 5.4375 -8.859375 Z M 7.453125 -8.859375 "/></g></g></g><g fill="#000000" fill-opacity="1"><g transform="translate(56.586712, 89.553873)"><g><path d="M 5.140625 -8.859375 L 8.71875 0 L 6.546875 0 L 5.890625 -1.765625 L 2.515625 -1.765625 L 1.875 0 L -0.296875 0 L 3.28125 -8.859375 Z M 5.203125 -3.546875 L 4.21875 -6.125 L 4.203125 -6.125 L 3.203125 -3.546875 Z M 5.203125 -3.546875 "/></g></g></g><g fill="#000000" fill-opacity="1"><g transform="translate(65.91812, 89.553873)"><g><path d="M 8.65625 -4.953125 L 8.65625 -3.03125 C 8.425781 -1.976562 7.921875 -1.179688 7.140625 -0.640625 C 6.367188 -0.109375 5.507812 0.15625 4.5625 0.15625 C 3.363281 0.15625 2.34375 -0.285156 1.5 -1.171875 C 0.664062 -2.066406 0.25 -3.148438 0.25 -4.421875 C 0.25 -5.710938 0.660156 -6.800781 1.484375 -7.6875 C 2.304688 -8.570312 3.332031 -9.015625 4.5625 -9.015625 C 6 -9.015625 7.132812 -8.507812 7.96875 -7.5 L 6.65625 -6.046875 C 6.1875 -6.804688 5.53125 -7.1875 4.6875 -7.1875 C 4.0625 -7.1875 3.523438 -6.914062 3.078125 -6.375 C 2.640625 -5.84375 2.421875 -5.191406 2.421875 -4.421875 C 2.421875 -3.671875 2.640625 -3.03125 3.078125 -2.5 C 3.523438 -1.96875 4.0625 -1.703125 4.6875 -1.703125 C 5.195312 -1.703125 5.644531 -1.851562 6.03125 -2.15625 C 6.414062 -2.46875 6.609375 -2.882812 6.609375 -3.40625 L 4.5625 -3.40625 L 4.5625 -4.953125 Z M 8.65625 -4.953125 "/></g></g></g><g fill="#000000" fill-opacity="1"><g transform="translate(75.732717, 89.553873)"><g><path d="M 5.703125 -8.859375 L 5.703125 -7.078125 L 2.65625 -7.078125 L 2.65625 -5.328125 L 5.578125 -5.328125 L 5.578125 -3.546875 L 2.65625 -3.546875 L 2.65625 -1.765625 L 5.703125 -1.765625 L 5.703125 0 L 0.640625 0 L 0.640625 -8.859375 Z M 5.703125 -8.859375 "/></g></g></g><g fill="#000000" fill-opacity="1"><g transform="translate(82.873618, 89.553873)"><g/></g></g><g fill="#000000" fill-opacity="1"><g transform="translate(86.718032, 89.553873)"><g><path d="M 0.3125 -2.328125 C 0.3125 -2.585938 0.367188 -2.835938 0.484375 -3.078125 C 0.609375 -3.328125 0.78125 -3.550781 1 -3.75 C 1.226562 -3.957031 1.457031 -4.132812 1.6875 -4.28125 C 1.914062 -4.4375 2.175781 -4.59375 2.46875 -4.75 C 1.875 -5.488281 1.578125 -6.140625 1.578125 -6.703125 C 1.578125 -7.410156 1.820312 -7.972656 2.3125 -8.390625 C 2.800781 -8.804688 3.5 -9.015625 4.40625 -9.015625 C 5.226562 -9.015625 5.867188 -8.78125 6.328125 -8.3125 C 6.796875 -7.851562 7.03125 -7.316406 7.03125 -6.703125 C 7.03125 -6.453125 6.96875 -6.207031 6.84375 -5.96875 C 6.726562 -5.726562 6.582031 -5.523438 6.40625 -5.359375 C 6.238281 -5.191406 6.066406 -5.039062 5.890625 -4.90625 C 5.722656 -4.78125 5.582031 -4.6875 5.46875 -4.625 L 5.28125 -4.53125 L 6.46875 -3.3125 C 6.71875 -3.425781 7.148438 -3.796875 7.765625 -4.421875 L 9 -3.203125 C 8.601562 -2.742188 8.1875 -2.335938 7.75 -1.984375 L 9.65625 0 L 7.109375 0 L 6.234375 -0.90625 C 5.960938 -0.71875 5.757812 -0.582031 5.625 -0.5 C 5.5 -0.414062 5.3125 -0.304688 5.0625 -0.171875 C 4.8125 -0.046875 4.550781 0.0351562 4.28125 0.078125 C 4.007812 0.128906 3.710938 0.15625 3.390625 0.15625 C 3.109375 0.15625 2.832031 0.128906 2.5625 0.078125 C 2.289062 0.0351562 2.015625 -0.0390625 1.734375 -0.15625 C 1.460938 -0.269531 1.222656 -0.414062 1.015625 -0.59375 C 0.804688 -0.78125 0.632812 -1.019531 0.5 -1.3125 C 0.375 -1.613281 0.3125 -1.953125 0.3125 -2.328125 Z M 4.40625 -7.59375 C 4.144531 -7.59375 3.945312 -7.507812 3.8125 -7.34375 C 3.6875 -7.175781 3.625 -6.960938 3.625 -6.703125 C 3.625 -6.554688 3.675781 -6.390625 3.78125 -6.203125 C 3.894531 -6.023438 4.003906 -5.882812 4.109375 -5.78125 L 4.265625 -5.625 C 4.929688 -5.976562 5.265625 -6.335938 5.265625 -6.703125 C 5.265625 -7.296875 4.976562 -7.59375 4.40625 -7.59375 Z M 4.921875 -2.25 L 3.515625 -3.640625 C 3.492188 -3.628906 3.460938 -3.613281 3.421875 -3.59375 C 3.378906 -3.582031 3.300781 -3.539062 3.1875 -3.46875 C 3.082031 -3.40625 2.988281 -3.332031 2.90625 -3.25 C 2.832031 -3.164062 2.757812 -3.054688 2.6875 -2.921875 C 2.625 -2.785156 2.59375 -2.640625 2.59375 -2.484375 C 2.59375 -2.253906 2.691406 -2.070312 2.890625 -1.9375 C 3.097656 -1.8125 3.332031 -1.75 3.59375 -1.75 C 3.8125 -1.75 4.03125 -1.789062 4.25 -1.875 C 4.46875 -1.957031 4.632812 -2.039062 4.75 -2.125 Z M 4.921875 -2.25 "/></g></g></g><g fill="#000000" fill-opacity="1"><g transform="translate(96.575589, 89.553873)"><g/></g></g><g fill="#000000" fill-opacity="1"><g transform="translate(100.420002, 89.553873)"><g><path d="M 5.359375 -1.828125 C 5.660156 -1.828125 5.957031 -1.875 6.25 -1.96875 C 6.539062 -2.0625 6.753906 -2.148438 6.890625 -2.234375 L 7.09375 -2.375 L 7.953125 -0.65625 C 7.921875 -0.632812 7.878906 -0.601562 7.828125 -0.5625 C 7.785156 -0.53125 7.671875 -0.460938 7.484375 -0.359375 C 7.304688 -0.265625 7.113281 -0.179688 6.90625 -0.109375 C 6.695312 -0.046875 6.421875 0.0078125 6.078125 0.0625 C 5.742188 0.125 5.398438 0.15625 5.046875 0.15625 C 4.222656 0.15625 3.441406 -0.0390625 2.703125 -0.4375 C 1.960938 -0.84375 1.367188 -1.398438 0.921875 -2.109375 C 0.472656 -2.816406 0.25 -3.582031 0.25 -4.40625 C 0.25 -5.03125 0.378906 -5.628906 0.640625 -6.203125 C 0.910156 -6.773438 1.265625 -7.265625 1.703125 -7.671875 C 2.140625 -8.078125 2.648438 -8.398438 3.234375 -8.640625 C 3.828125 -8.890625 4.429688 -9.015625 5.046875 -9.015625 C 5.617188 -9.015625 6.144531 -8.945312 6.625 -8.8125 C 7.113281 -8.675781 7.457031 -8.539062 7.65625 -8.40625 L 7.953125 -8.203125 L 7.09375 -6.484375 C 7.039062 -6.523438 6.960938 -6.578125 6.859375 -6.640625 C 6.765625 -6.703125 6.566406 -6.78125 6.265625 -6.875 C 5.960938 -6.976562 5.660156 -7.03125 5.359375 -7.03125 C 4.867188 -7.03125 4.429688 -6.953125 4.046875 -6.796875 C 3.660156 -6.640625 3.351562 -6.429688 3.125 -6.171875 C 2.90625 -5.910156 2.734375 -5.628906 2.609375 -5.328125 C 2.492188 -5.035156 2.4375 -4.738281 2.4375 -4.4375 C 2.4375 -3.757812 2.6875 -3.15625 3.1875 -2.625 C 3.695312 -2.09375 4.421875 -1.828125 5.359375 -1.828125 Z M 5.359375 -1.828125 "/></g></g></g><g fill="#000000" fill-opacity="1"><g transform="translate(109.418542, 89.553873)"><g><path d="M 5.140625 -8.859375 L 8.71875 0 L 6.546875 0 L 5.890625 -1.765625 L 2.515625 -1.765625 L 1.875 0 L -0.296875 0 L 3.28125 -8.859375 Z M 5.203125 -3.546875 L 4.21875 -6.125 L 4.203125 -6.125 L 3.203125 -3.546875 Z M 5.203125 -3.546875 "/></g></g></g><g fill="#000000" fill-opacity="1"><g transform="translate(118.749948, 89.553873)"><g><path d="M 0.640625 -8.859375 L 3.8125 -8.859375 C 4.664062 -8.859375 5.359375 -8.628906 5.890625 -8.171875 C 6.429688 -7.722656 6.703125 -7.070312 6.703125 -6.21875 C 6.703125 -5.570312 6.535156 -5.023438 6.203125 -4.578125 C 5.878906 -4.140625 5.441406 -3.832031 4.890625 -3.65625 L 7.9375 0 L 5.359375 0 L 2.65625 -3.5 L 2.65625 0 L 0.640625 0 Z M 2.65625 -4.921875 L 2.890625 -4.921875 C 3.078125 -4.921875 3.234375 -4.925781 3.359375 -4.9375 C 3.492188 -4.945312 3.644531 -4.972656 3.8125 -5.015625 C 3.976562 -5.054688 4.109375 -5.113281 4.203125 -5.1875 C 4.304688 -5.269531 4.394531 -5.382812 4.46875 -5.53125 C 4.539062 -5.6875 4.578125 -5.867188 4.578125 -6.078125 C 4.578125 -6.296875 4.539062 -6.476562 4.46875 -6.625 C 4.394531 -6.78125 4.304688 -6.894531 4.203125 -6.96875 C 4.109375 -7.050781 3.976562 -7.113281 3.8125 -7.15625 C 3.644531 -7.195312 3.492188 -7.222656 3.359375 -7.234375 C 3.234375 -7.242188 3.078125 -7.25 2.890625 -7.25 L 2.65625 -7.25 Z M 2.65625 -4.921875 "/></g></g></g><g fill="#000000" fill-opacity="1"><g transform="translate(127.351189, 89.553873)"><g><path d="M 5.703125 -8.859375 L 5.703125 -7.078125 L 2.65625 -7.078125 L 2.65625 -5.328125 L 5.578125 -5.328125 L 5.578125 -3.546875 L 2.65625 -3.546875 L 2.65625 -1.765625 L 5.703125 -1.765625 L 5.703125 0 L 0.640625 0 L 0.640625 -8.859375 Z M 5.703125 -8.859375 "/></g></g></g><g fill="#000000" fill-opacity="1"><g transform="translate(134.49209, 89.553873)"><g><path d="M 5.703125 -8.859375 L 5.703125 -7.078125 L 2.65625 -7.078125 L 2.65625 -5.328125 L 5.578125 -5.328125 L 5.578125 -3.546875 L 2.65625 -3.546875 L 2.65625 -1.765625 L 5.703125 -1.765625 L 5.703125 0 L 0.640625 0 L 0.640625 -8.859375 Z M 5.703125 -8.859375 "/></g></g></g><g fill="#000000" fill-opacity="1"><g transform="translate(141.632991, 89.553873)"><g><path d="M 0.640625 -8.859375 L 3.8125 -8.859375 C 4.664062 -8.859375 5.359375 -8.628906 5.890625 -8.171875 C 6.429688 -7.722656 6.703125 -7.070312 6.703125 -6.21875 C 6.703125 -5.570312 6.535156 -5.023438 6.203125 -4.578125 C 5.878906 -4.140625 5.441406 -3.832031 4.890625 -3.65625 L 7.9375 0 L 5.359375 0 L 2.65625 -3.5 L 2.65625 0 L 0.640625 0 Z M 2.65625 -4.921875 L 2.890625 -4.921875 C 3.078125 -4.921875 3.234375 -4.925781 3.359375 -4.9375 C 3.492188 -4.945312 3.644531 -4.972656 3.8125 -5.015625 C 3.976562 -5.054688 4.109375 -5.113281 4.203125 -5.1875 C 4.304688 -5.269531 4.394531 -5.382812 4.46875 -5.53125 C 4.539062 -5.6875 4.578125 -5.867188 4.578125 -6.078125 C 4.578125 -6.296875 4.539062 -6.476562 4.46875 -6.625 C 4.394531 -6.78125 4.304688 -6.894531 4.203125 -6.96875 C 4.109375 -7.050781 3.976562 -7.113281 3.8125 -7.15625 C 3.644531 -7.195312 3.492188 -7.222656 3.359375 -7.234375 C 3.234375 -7.242188 3.078125 -7.25 2.890625 -7.25 L 2.65625 -7.25 Z M 2.65625 -4.921875 "/></g></g></g><g fill="#000000" fill-opacity="1"><g transform="translate(150.234232, 89.553873)"><g/></g></g><g fill="#000000" fill-opacity="1"><g transform="translate(154.078646, 89.553873)"><g><path d="M 5.359375 -1.828125 C 5.660156 -1.828125 5.957031 -1.875 6.25 -1.96875 C 6.539062 -2.0625 6.753906 -2.148438 6.890625 -2.234375 L 7.09375 -2.375 L 7.953125 -0.65625 C 7.921875 -0.632812 7.878906 -0.601562 7.828125 -0.5625 C 7.785156 -0.53125 7.671875 -0.460938 7.484375 -0.359375 C 7.304688 -0.265625 7.113281 -0.179688 6.90625 -0.109375 C 6.695312 -0.046875 6.421875 0.0078125 6.078125 0.0625 C 5.742188 0.125 5.398438 0.15625 5.046875 0.15625 C 4.222656 0.15625 3.441406 -0.0390625 2.703125 -0.4375 C 1.960938 -0.84375 1.367188 -1.398438 0.921875 -2.109375 C 0.472656 -2.816406 0.25 -3.582031 0.25 -4.40625 C 0.25 -5.03125 0.378906 -5.628906 0.640625 -6.203125 C 0.910156 -6.773438 1.265625 -7.265625 1.703125 -7.671875 C 2.140625 -8.078125 2.648438 -8.398438 3.234375 -8.640625 C 3.828125 -8.890625 4.429688 -9.015625 5.046875 -9.015625 C 5.617188 -9.015625 6.144531 -8.945312 6.625 -8.8125 C 7.113281 -8.675781 7.457031 -8.539062 7.65625 -8.40625 L 7.953125 -8.203125 L 7.09375 -6.484375 C 7.039062 -6.523438 6.960938 -6.578125 6.859375 -6.640625 C 6.765625 -6.703125 6.566406 -6.78125 6.265625 -6.875 C 5.960938 -6.976562 5.660156 -7.03125 5.359375 -7.03125 C 4.867188 -7.03125 4.429688 -6.953125 4.046875 -6.796875 C 3.660156 -6.640625 3.351562 -6.429688 3.125 -6.171875 C 2.90625 -5.910156 2.734375 -5.628906 2.609375 -5.328125 C 2.492188 -5.035156 2.4375 -4.738281 2.4375 -4.4375 C 2.4375 -3.757812 2.6875 -3.15625 3.1875 -2.625 C 3.695312 -2.09375 4.421875 -1.828125 5.359375 -1.828125 Z M 5.359375 -1.828125 "/></g></g></g><g fill="#000000" fill-opacity="1"><g transform="translate(163.077181, 89.553873)"><g><path d="M 0.25 -4.4375 C 0.25 -5.71875 0.679688 -6.800781 1.546875 -7.6875 C 2.421875 -8.570312 3.476562 -9.015625 4.71875 -9.015625 C 5.945312 -9.015625 6.992188 -8.570312 7.859375 -7.6875 C 8.734375 -6.800781 9.171875 -5.71875 9.171875 -4.4375 C 9.171875 -3.132812 8.742188 -2.039062 7.890625 -1.15625 C 7.035156 -0.28125 5.976562 0.15625 4.71875 0.15625 C 3.414062 0.15625 2.34375 -0.28125 1.5 -1.15625 C 0.664062 -2.03125 0.25 -3.125 0.25 -4.4375 Z M 2.421875 -4.4375 C 2.421875 -3.96875 2.492188 -3.539062 2.640625 -3.15625 C 2.785156 -2.78125 3.035156 -2.457031 3.390625 -2.1875 C 3.742188 -1.925781 4.1875 -1.796875 4.71875 -1.796875 C 5.46875 -1.796875 6.03125 -2.050781 6.40625 -2.5625 C 6.789062 -3.082031 6.984375 -3.707031 6.984375 -4.4375 C 6.984375 -5.15625 6.785156 -5.773438 6.390625 -6.296875 C 6.003906 -6.816406 5.445312 -7.078125 4.71875 -7.078125 C 3.988281 -7.078125 3.421875 -6.816406 3.015625 -6.296875 C 2.617188 -5.773438 2.421875 -5.15625 2.421875 -4.4375 Z M 2.421875 -4.4375 "/></g></g></g><g fill="#000000" fill-opacity="1"><g transform="translate(173.407198, 89.553873)"><g><path d="M 2.65625 -5.5 L 2.65625 0 L 0.640625 0 L 0.640625 -8.859375 L 2.65625 -8.859375 L 6.1875 -3.359375 L 6.203125 -3.359375 L 6.203125 -8.859375 L 8.21875 -8.859375 L 8.21875 0 L 6.203125 0 L 2.6875 -5.5 Z M 2.65625 -5.5 "/></g></g></g><g fill="#000000" fill-opacity="1"><g transform="translate(183.189589, 89.553873)"><g><path d="M 3.90625 -9.015625 C 4.382812 -9.015625 4.851562 -8.941406 5.3125 -8.796875 C 5.769531 -8.660156 6.109375 -8.523438 6.328125 -8.390625 L 6.65625 -8.171875 L 5.84375 -6.5625 C 5.78125 -6.613281 5.691406 -6.671875 5.578125 -6.734375 C 5.460938 -6.804688 5.242188 -6.898438 4.921875 -7.015625 C 4.609375 -7.128906 4.316406 -7.1875 4.046875 -7.1875 C 3.710938 -7.1875 3.453125 -7.113281 3.265625 -6.96875 C 3.085938 -6.820312 3 -6.628906 3 -6.390625 C 3 -6.265625 3.039062 -6.148438 3.125 -6.046875 C 3.207031 -5.941406 3.351562 -5.828125 3.5625 -5.703125 C 3.769531 -5.585938 3.953125 -5.492188 4.109375 -5.421875 C 4.265625 -5.359375 4.507812 -5.253906 4.84375 -5.109375 C 5.414062 -4.867188 5.898438 -4.535156 6.296875 -4.109375 C 6.703125 -3.691406 6.90625 -3.21875 6.90625 -2.6875 C 6.90625 -2.1875 6.8125 -1.742188 6.625 -1.359375 C 6.445312 -0.984375 6.195312 -0.6875 5.875 -0.46875 C 5.5625 -0.257812 5.210938 -0.101562 4.828125 0 C 4.441406 0.101562 4.023438 0.15625 3.578125 0.15625 C 3.191406 0.15625 2.8125 0.113281 2.4375 0.03125 C 2.0625 -0.0390625 1.75 -0.132812 1.5 -0.25 C 1.25 -0.363281 1.023438 -0.476562 0.828125 -0.59375 C 0.628906 -0.707031 0.484375 -0.804688 0.390625 -0.890625 L 0.25 -1.015625 L 1.25 -2.703125 C 1.34375 -2.628906 1.460938 -2.535156 1.609375 -2.421875 C 1.753906 -2.316406 2.019531 -2.171875 2.40625 -1.984375 C 2.789062 -1.796875 3.128906 -1.703125 3.421875 -1.703125 C 4.273438 -1.703125 4.703125 -1.992188 4.703125 -2.578125 C 4.703125 -2.703125 4.671875 -2.8125 4.609375 -2.90625 C 4.546875 -3.007812 4.4375 -3.113281 4.28125 -3.21875 C 4.132812 -3.320312 4 -3.40625 3.875 -3.46875 C 3.757812 -3.53125 3.566406 -3.625 3.296875 -3.75 C 3.023438 -3.875 2.828125 -3.96875 2.703125 -4.03125 C 2.171875 -4.300781 1.753906 -4.632812 1.453125 -5.03125 C 1.160156 -5.425781 1.015625 -5.851562 1.015625 -6.3125 C 1.015625 -7.101562 1.304688 -7.75 1.890625 -8.25 C 2.484375 -8.757812 3.15625 -9.015625 3.90625 -9.015625 Z M 3.90625 -9.015625 "/></g></g></g><g fill="#000000" fill-opacity="1"><g transform="translate(191.31837, 89.553873)"><g><path d="M 7.453125 -8.859375 L 7.453125 -3.140625 C 7.453125 -2.054688 7.15625 -1.234375 6.5625 -0.671875 C 5.976562 -0.117188 5.117188 0.15625 3.984375 0.15625 C 2.859375 0.15625 2 -0.117188 1.40625 -0.671875 C 0.820312 -1.234375 0.53125 -2.054688 0.53125 -3.140625 L 0.53125 -8.859375 L 2.5625 -8.859375 L 2.5625 -3.734375 C 2.5625 -3.015625 2.671875 -2.515625 2.890625 -2.234375 C 3.117188 -1.960938 3.484375 -1.828125 3.984375 -1.828125 C 4.492188 -1.828125 4.863281 -1.960938 5.09375 -2.234375 C 5.320312 -2.515625 5.4375 -3.015625 5.4375 -3.734375 L 5.4375 -8.859375 Z M 7.453125 -8.859375 "/></g></g></g><g fill="#000000" fill-opacity="1"><g transform="translate(200.220264, 89.553873)"><g><path d="M 2.65625 -8.859375 L 2.65625 -1.765625 L 5.703125 -1.765625 L 5.703125 0 L 0.640625 0 L 0.640625 -8.859375 Z M 2.65625 -8.859375 "/></g></g></g><g fill="#000000" fill-opacity="1"><g transform="translate(207.200101, 89.553873)"><g><path d="M 0.078125 -7.078125 L 0.078125 -8.859375 L 6.3125 -8.859375 L 6.3125 -7.078125 L 4.203125 -7.078125 L 4.203125 0 L 2.1875 0 L 2.1875 -7.078125 Z M 0.078125 -7.078125 "/></g></g></g><g fill="#000000" fill-opacity="1"><g transform="translate(214.51282, 89.553873)"><g><path d="M 5.140625 -8.859375 L 8.71875 0 L 6.546875 0 L 5.890625 -1.765625 L 2.515625 -1.765625 L 1.875 0 L -0.296875 0 L 3.28125 -8.859375 Z M 5.203125 -3.546875 L 4.21875 -6.125 L 4.203125 -6.125 L 3.203125 -3.546875 Z M 5.203125 -3.546875 "/></g></g></g><g fill="#000000" fill-opacity="1"><g transform="translate(223.844225, 89.553873)"><g><path d="M 2.65625 -5.5 L 2.65625 0 L 0.640625 0 L 0.640625 -8.859375 L 2.65625 -8.859375 L 6.1875 -3.359375 L 6.203125 -3.359375 L 6.203125 -8.859375 L 8.21875 -8.859375 L 8.21875 0 L 6.203125 0 L 2.6875 -5.5 Z M 2.65625 -5.5 "/></g></g></g><g fill="#000000" fill-opacity="1"><g transform="translate(233.626627, 89.553873)"><g><path d="M 5.359375 -1.828125 C 5.660156 -1.828125 5.957031 -1.875 6.25 -1.96875 C 6.539062 -2.0625 6.753906 -2.148438 6.890625 -2.234375 L 7.09375 -2.375 L 7.953125 -0.65625 C 7.921875 -0.632812 7.878906 -0.601562 7.828125 -0.5625 C 7.785156 -0.53125 7.671875 -0.460938 7.484375 -0.359375 C 7.304688 -0.265625 7.113281 -0.179688 6.90625 -0.109375 C 6.695312 -0.046875 6.421875 0.0078125 6.078125 0.0625 C 5.742188 0.125 5.398438 0.15625 5.046875 0.15625 C 4.222656 0.15625 3.441406 -0.0390625 2.703125 -0.4375 C 1.960938 -0.84375 1.367188 -1.398438 0.921875 -2.109375 C 0.472656 -2.816406 0.25 -3.582031 0.25 -4.40625 C 0.25 -5.03125 0.378906 -5.628906 0.640625 -6.203125 C 0.910156 -6.773438 1.265625 -7.265625 1.703125 -7.671875 C 2.140625 -8.078125 2.648438 -8.398438 3.234375 -8.640625 C 3.828125 -8.890625 4.429688 -9.015625 5.046875 -9.015625 C 5.617188 -9.015625 6.144531 -8.945312 6.625 -8.8125 C 7.113281 -8.675781 7.457031 -8.539062 7.65625 -8.40625 L 7.953125 -8.203125 L 7.09375 -6.484375 C 7.039062 -6.523438 6.960938 -6.578125 6.859375 -6.640625 C 6.765625 -6.703125 6.566406 -6.78125 6.265625 -6.875 C 5.960938 -6.976562 5.660156 -7.03125 5.359375 -7.03125 C 4.867188 -7.03125 4.429688 -6.953125 4.046875 -6.796875 C 3.660156 -6.640625 3.351562 -6.429688 3.125 -6.171875 C 2.90625 -5.910156 2.734375 -5.628906 2.609375 -5.328125 C 2.492188 -5.035156 2.4375 -4.738281 2.4375 -4.4375 C 2.4375 -3.757812 2.6875 -3.15625 3.1875 -2.625 C 3.695312 -2.09375 4.421875 -1.828125 5.359375 -1.828125 Z M 5.359375 -1.828125 "/></g></g></g><g fill="#000000" fill-opacity="1"><g transform="translate(242.625173, 89.553873)"><g><path d="M -0.328125 -8.859375 L 2.109375 -8.859375 L 3.953125 -6.015625 L 5.796875 -8.859375 L 8.21875 -8.859375 L 4.953125 -3.96875 L 4.953125 0 L 2.9375 0 L 2.9375 -3.96875 Z M -0.328125 -8.859375 "/></g></g></g><path stroke-linecap="butt" transform="matrix(0.700523, 0, 0, 0.700523, 10.688921, 79.972365)" fill="none" stroke-linejoin="miter" d="M 4.676393 0.351716 L 4.676393 10.472495 L 9.031395 10.472495 L 9.031395 12.998508 L 1.793504 12.998508 L 1.793504 0.351716 Z M 18.181918 0.351716 L 23.284129 12.998508 L 20.189345 12.998508 L 19.258122 10.472495 L 14.440296 10.472495 L 13.509073 12.998508 L 10.408713 12.998508 L 15.510924 0.351716 Z M 18.276713 7.940906 L 16.865938 4.260623 L 16.832481 4.260623 L 15.421705 7.940906 Z M 27.96255 5.152813 L 27.96255 12.998508 L 25.079661 12.998508 L 25.079661 0.351716 L 27.96255 0.351716 L 32.986695 8.202987 L 33.020152 8.202987 L 33.020152 0.351716 L 35.903041 0.351716 L 35.903041 12.998508 L 33.020152 12.998508 L 27.990431 5.152813 Z M 50.479194 5.91675 L 50.479194 8.660234 C 50.150199 10.165805 49.436447 11.303347 48.332362 12.072861 C 47.228277 12.842375 46.001516 13.227132 44.640926 13.227132 C 42.934613 13.227132 41.479228 12.591446 40.274771 11.314499 C 39.075891 10.031976 38.473663 8.492949 38.473663 6.680688 C 38.473663 4.846122 39.064739 3.290366 40.235738 2.024572 C 41.412314 0.753201 42.878851 0.123092 44.640926 0.123092 C 46.692963 0.123092 48.315633 0.84242 49.514513 2.286653 L 47.629762 4.355418 C 46.955044 3.273638 46.012668 2.732748 44.808212 2.732748 C 43.921598 2.732748 43.163236 3.117504 42.533127 3.887018 C 41.903018 4.656532 41.590752 5.587755 41.590752 6.680688 C 41.590752 7.756892 41.903018 8.676963 42.533127 9.435324 C 43.163236 10.199262 43.921598 10.578443 44.808212 10.578443 C 45.544268 10.578443 46.18553 10.355395 46.731996 9.914877 C 47.278462 9.463205 47.551696 8.877706 47.551696 8.141649 L 44.640926 8.141649 L 44.640926 5.91675 Z M 62.774686 0.351716 L 62.774686 8.509677 C 62.774686 10.059857 62.356472 11.236433 61.514468 12.033828 C 60.67804 12.831222 59.451279 13.227132 57.839761 13.227132 C 56.222667 13.227132 54.995905 12.831222 54.159477 12.033828 C 53.323049 11.236433 52.899259 10.059857 52.899259 8.509677 L 52.899259 0.351716 L 55.782148 0.351716 L 55.782148 7.667673 C 55.782148 8.688115 55.943857 9.396291 56.267276 9.797777 C 56.590695 10.193686 57.10928 10.394429 57.839761 10.394429 C 58.564665 10.394429 59.088827 10.193686 59.412246 9.797777 C 59.730088 9.396291 59.891798 8.688115 59.891798 7.667673 L 59.891798 0.351716 Z M 72.18729 0.351716 L 77.289502 12.998508 L 74.194718 12.998508 L 73.257918 10.472495 L 68.445669 10.472495 L 67.508869 12.998508 L 64.408509 12.998508 L 69.516297 0.351716 Z M 72.276509 7.940906 L 70.865734 4.260623 L 70.837853 4.260623 L 69.427078 7.940906 Z M 90.516217 5.91675 L 90.516217 8.660234 C 90.187222 10.165805 89.47347 11.303347 88.374962 12.072861 C 87.270876 12.842375 86.038539 13.227132 84.677949 13.227132 C 82.971636 13.227132 81.516251 12.591446 80.311795 11.314499 C 79.112915 10.031976 78.516263 8.492949 78.516263 6.680688 C 78.516263 4.846122 79.101762 3.290366 80.278338 2.024572 C 81.449337 0.753201 82.921451 0.123092 84.677949 0.123092 C 86.729986 0.123092 88.358233 0.84242 89.551537 2.286653 L 87.666786 4.355418 C 86.992067 3.273638 86.049691 2.732748 84.845235 2.732748 C 83.958621 2.732748 83.20026 3.117504 82.570151 3.887018 C 81.940042 4.656532 81.627775 5.587755 81.627775 6.680688 C 81.627775 7.756892 81.940042 8.676963 82.570151 9.435324 C 83.20026 10.199262 83.958621 10.578443 84.845235 10.578443 C 85.581292 10.578443 86.222553 10.355395 86.76902 9.914877 C 87.315486 9.463205 87.588719 8.877706 87.588719 8.141649 L 84.677949 8.141649 L 84.677949 5.91675 Z M 100.330307 0.351716 L 100.330307 2.883305 L 95.975305 2.883305 L 95.975305 5.392589 L 100.146293 5.392589 L 100.146293 7.924178 L 95.975305 7.924178 L 95.975305 10.472495 L 100.330307 10.472495 L 100.330307 12.998508 L 93.092416 12.998508 L 93.092416 0.351716 Z M 108.298678 9.6751 C 108.298678 9.29592 108.387897 8.933468 108.555183 8.587744 C 108.733621 8.236444 108.978973 7.918602 109.296816 7.634216 C 109.614658 7.34983 109.932501 7.098902 110.261496 6.887007 C 110.584915 6.669536 110.958519 6.452064 111.38231 6.223441 C 110.529153 5.163965 110.105363 4.227166 110.105363 3.418619 C 110.105363 2.420481 110.456663 1.61751 111.153686 1.020858 C 111.856285 0.41863 112.848847 0.123092 114.136946 0.123092 C 115.324674 0.123092 116.244745 0.452087 116.902735 1.121229 C 117.566301 1.784796 117.895296 2.548733 117.895296 3.418619 C 117.895296 3.775495 117.806077 4.126794 117.633215 4.472518 C 117.460354 4.812665 117.254035 5.102627 117.014259 5.342403 C 116.774483 5.582179 116.52913 5.794074 116.283778 5.978088 C 116.038426 6.162103 115.832107 6.301507 115.659245 6.396302 L 115.397164 6.530131 L 117.081173 8.275478 C 117.449201 8.113768 118.068158 7.58403 118.938043 6.680688 L 120.716847 8.431611 C 120.1425 9.084025 119.545848 9.663948 118.921315 10.165805 L 121.64807 12.998508 L 118.017972 12.998508 L 116.76333 11.699256 C 116.372997 11.97249 116.083035 12.167656 115.899021 12.290332 C 115.720583 12.407432 115.44735 12.557989 115.079322 12.742003 C 114.716869 12.926018 114.348841 13.048694 113.964084 13.121184 C 113.579327 13.193675 113.161113 13.227132 112.69829 13.227132 C 112.30238 13.227132 111.906471 13.193675 111.516138 13.12676 C 111.131381 13.059846 110.735472 12.948322 110.345139 12.781037 C 109.949229 12.608175 109.609082 12.39628 109.307968 12.145351 C 109.01243 11.883271 108.772654 11.543123 108.583064 11.119333 C 108.393473 10.695543 108.298678 10.215991 108.298678 9.6751 Z M 114.136946 2.163976 C 113.768918 2.163976 113.495684 2.281076 113.31167 2.515276 C 113.127656 2.749476 113.032861 3.05059 113.032861 3.418619 C 113.032861 3.63609 113.110928 3.87029 113.261485 4.13237 C 113.417618 4.394451 113.573751 4.60077 113.724308 4.751327 L 113.952932 4.968799 C 114.895307 4.455789 115.363707 3.94278 115.363707 3.418619 C 115.363707 2.58219 114.956646 2.163976 114.136946 2.163976 Z M 114.889731 9.781048 L 112.882304 7.801502 C 112.848847 7.812654 112.804237 7.834959 112.742899 7.857263 C 112.681561 7.885144 112.575614 7.940906 112.41948 8.041278 C 112.268923 8.136073 112.135095 8.247597 112.023571 8.364697 C 111.912047 8.481796 111.8061 8.63793 111.711305 8.833096 C 111.610933 9.022687 111.560748 9.229006 111.560748 9.446477 C 111.560748 9.781048 111.705728 10.043129 111.99569 10.227143 C 112.280076 10.411157 112.614647 10.500376 112.988251 10.500376 C 113.294942 10.500376 113.607208 10.439038 113.925051 10.321938 C 114.242894 10.204838 114.48267 10.087738 114.644379 9.965062 Z M 135.064376 10.394429 C 135.504895 10.394429 135.928685 10.327514 136.341323 10.199262 C 136.759537 10.059857 137.060651 9.931605 137.255818 9.808929 L 137.54578 9.613762 L 138.772541 12.061709 C 138.733507 12.095166 138.677746 12.134199 138.605255 12.189961 C 138.532765 12.240147 138.365479 12.334942 138.108974 12.474346 C 137.846894 12.608175 137.568084 12.730851 137.272546 12.831222 C 136.977008 12.931594 136.586675 13.026389 136.101547 13.104456 C 135.627571 13.188098 135.131291 13.227132 134.618281 13.227132 C 133.441706 13.227132 132.326468 12.942746 131.278145 12.362823 C 130.224246 11.788475 129.376665 10.996657 128.729828 9.981791 C 128.088566 8.972501 127.765147 7.873992 127.765147 6.702993 C 127.765147 5.810803 127.954738 4.957646 128.328342 4.143523 C 128.707523 3.323823 129.214956 2.621224 129.845065 2.0413 C 130.469598 1.455801 131.205655 0.992977 132.042083 0.647254 C 132.884087 0.295954 133.74282 0.123092 134.618281 0.123092 C 135.437981 0.123092 136.190766 0.217887 136.876637 0.413054 C 137.568084 0.60822 138.058789 0.803387 138.343174 0.998553 L 138.772541 1.288515 L 137.54578 3.742037 C 137.473289 3.680699 137.367342 3.602633 137.222361 3.51899 C 137.082956 3.429771 136.792994 3.318247 136.363628 3.173266 C 135.939838 3.028285 135.504895 2.955795 135.064376 2.955795 C 134.367353 2.955795 133.74282 3.072895 133.190777 3.295942 C 132.638735 3.51899 132.203792 3.814528 131.880373 4.188132 C 131.562531 4.550585 131.317179 4.946494 131.144317 5.370284 C 130.977031 5.794074 130.893388 6.229017 130.893388 6.669536 C 130.893388 7.62864 131.25584 8.487373 131.975169 9.25131 C 132.694497 10.015248 133.726091 10.394429 135.064376 10.394429 Z M 147.599645 0.351716 L 152.707432 12.998508 L 149.612648 12.998508 L 148.675849 10.472495 L 143.8636 10.472495 L 142.9268 12.998508 L 139.82644 12.998508 L 144.934227 0.351716 Z M 147.69444 7.940906 L 146.283665 4.260623 L 146.255784 4.260623 L 144.845008 7.940906 Z M 154.502965 0.351716 L 159.019676 0.351716 C 160.240861 0.351716 161.233422 0.675134 161.99736 1.327548 C 162.761298 1.974386 163.146055 2.900033 163.146055 4.110066 C 163.146055 5.035713 162.911855 5.816379 162.449031 6.446488 C 161.980632 7.076597 161.350522 7.517116 160.558704 7.773621 L 164.90813 12.998508 L 161.244575 12.998508 L 157.380277 8.002244 L 157.380277 12.998508 L 154.502965 12.998508 Z M 157.380277 5.96136 L 157.720425 5.96136 C 157.982505 5.96136 158.205553 5.96136 158.395143 5.950207 C 158.579157 5.939055 158.785476 5.905598 159.019676 5.84426 C 159.253876 5.782922 159.443466 5.693703 159.588447 5.582179 C 159.733428 5.465079 159.856104 5.30337 159.956476 5.085898 C 160.062423 4.874003 160.112609 4.611923 160.112609 4.310808 C 160.112609 4.004118 160.062423 3.742037 159.956476 3.524566 C 159.856104 3.312671 159.733428 3.150962 159.588447 3.039438 C 159.443466 2.922338 159.253876 2.838695 159.019676 2.777357 C 158.785476 2.710443 158.579157 2.676986 158.395143 2.665833 C 158.205553 2.654681 157.982505 2.649105 157.720425 2.649105 L 157.380277 2.649105 Z M 174.014043 0.351716 L 174.014043 2.883305 L 169.659041 2.883305 L 169.659041 5.392589 L 173.830029 5.392589 L 173.830029 7.924178 L 169.659041 7.924178 L 169.659041 10.472495 L 174.014043 10.472495 L 174.014043 12.998508 L 166.776152 12.998508 L 166.776152 0.351716 Z M 184.207313 0.351716 L 184.207313 2.883305 L 179.852311 2.883305 L 179.852311 5.392589 L 184.023299 5.392589 L 184.023299 7.924178 L 179.852311 7.924178 L 179.852311 10.472495 L 184.207313 10.472495 L 184.207313 12.998508 L 176.974999 12.998508 L 176.974999 0.351716 Z M 187.168269 0.351716 L 191.68498 0.351716 C 192.906165 0.351716 193.898727 0.675134 194.662664 1.327548 C 195.426602 1.974386 195.811359 2.900033 195.811359 4.110066 C 195.811359 5.035713 195.577159 5.816379 195.114335 6.446488 C 194.645936 7.076597 194.015827 7.517116 193.224008 7.773621 L 197.573434 12.998508 L 193.909879 12.998508 L 190.045581 8.002244 L 190.045581 12.998508 L 187.168269 12.998508 Z M 190.045581 5.96136 L 190.385729 5.96136 C 190.64781 5.96136 190.876433 5.96136 191.060447 5.950207 C 191.244462 5.939055 191.45078 5.905598 191.68498 5.84426 C 191.91918 5.782922 192.108771 5.693703 192.253751 5.582179 C 192.398732 5.465079 192.521408 5.30337 192.62178 5.085898 C 192.727727 4.874003 192.777913 4.611923 192.777913 4.310808 C 192.777913 4.004118 192.727727 3.742037 192.62178 3.524566 C 192.521408 3.312671 192.398732 3.150962 192.253751 3.039438 C 192.108771 2.922338 191.91918 2.838695 191.68498 2.777357 C 191.45078 2.710443 191.244462 2.676986 191.060447 2.665833 C 190.876433 2.654681 190.64781 2.649105 190.385729 2.649105 L 190.045581 2.649105 Z M 211.664459 10.394429 C 212.099401 10.394429 212.528768 10.327514 212.941406 10.199262 C 213.354043 10.059857 213.660734 9.931605 213.8559 9.808929 L 214.145862 9.613762 L 215.372623 12.061709 C 215.33359 12.095166 215.272252 12.134199 215.199761 12.189961 C 215.127271 12.240147 214.965562 12.334942 214.703481 12.474346 C 214.446976 12.608175 214.168167 12.730851 213.872629 12.831222 C 213.571515 12.931594 213.181182 13.026389 212.70163 13.104456 C 212.222077 13.188098 211.725797 13.227132 211.218364 13.227132 C 210.041788 13.227132 208.926551 12.942746 207.872652 12.362823 C 206.818752 11.788475 205.971172 10.996657 205.32991 9.981791 C 204.683073 8.972501 204.36523 7.873992 204.36523 6.702993 C 204.36523 5.810803 204.549244 4.957646 204.928425 4.143523 C 205.307605 3.323823 205.809462 2.621224 206.439571 2.0413 C 207.069681 1.455801 207.805737 0.992977 208.642165 0.647254 C 209.478593 0.295954 210.337326 0.123092 211.218364 0.123092 C 212.032487 0.123092 212.790849 0.217887 213.47672 0.413054 C 214.168167 0.60822 214.653295 0.803387 214.937681 0.998553 L 215.372623 1.288515 L 214.145862 3.742037 C 214.073372 3.680699 213.967424 3.602633 213.822443 3.51899 C 213.677462 3.429771 213.393077 3.318247 212.96371 3.173266 C 212.534344 3.028285 212.099401 2.955795 211.664459 2.955795 C 210.967435 2.955795 210.342902 3.072895 209.79086 3.295942 C 209.238817 3.51899 208.803875 3.814528 208.480456 4.188132 C 208.157037 4.550585 207.911685 4.946494 207.744399 5.370284 C 207.577114 5.794074 207.493471 6.229017 207.493471 6.669536 C 207.493471 7.62864 207.850347 8.487373 208.569675 9.25131 C 209.289003 10.015248 210.320598 10.394429 211.664459 10.394429 Z M 217.207189 6.669536 C 217.207189 4.840546 217.831722 3.290366 219.080788 2.024572 C 220.329854 0.753201 221.829848 0.123092 223.586347 0.123092 C 225.353998 0.123092 226.859569 0.753201 228.091906 2.013419 C 229.32982 3.279214 229.948776 4.829394 229.948776 6.669536 C 229.948776 8.52083 229.340972 10.076586 228.125363 11.336804 C 226.909754 12.597023 225.393031 13.227132 223.586347 13.227132 C 221.735053 13.227132 220.212754 12.602599 219.008297 11.353533 C 217.809417 10.098891 217.207189 8.537558 217.207189 6.669536 Z M 220.324277 6.669536 C 220.324277 7.333102 220.424649 7.940906 220.630968 8.487373 C 220.83171 9.033839 221.188586 9.496662 221.701596 9.875843 C 222.209029 10.249448 222.839138 10.439038 223.586347 10.439038 C 224.656975 10.439038 225.471098 10.07101 226.017564 9.334953 C 226.564031 8.598896 226.837264 7.712283 226.837264 6.669536 C 226.837264 5.637941 226.558455 4.751327 226.000836 4.009694 C 225.443217 3.268061 224.640246 2.900033 223.586347 2.900033 C 222.5436 2.900033 221.740629 3.268061 221.171858 4.009694 C 220.608663 4.751327 220.324277 5.637941 220.324277 6.669536 Z M 235.407864 5.152813 L 235.407864 12.998508 L 232.524975 12.998508 L 232.524975 0.351716 L 235.407864 0.351716 L 240.432008 8.202987 L 240.459889 8.202987 L 240.459889 0.351716 L 243.348354 0.351716 L 243.348354 12.998508 L 240.459889 12.998508 L 235.435744 5.152813 Z M 251.14944 0.123092 C 251.829735 0.123092 252.498877 0.223463 253.156867 0.41863 C 253.809281 0.619373 254.294409 0.820115 254.612252 1.009706 L 255.075076 1.316396 L 253.904076 3.619361 C 253.814857 3.558023 253.686605 3.479957 253.519319 3.379585 C 253.35761 3.28479 253.05092 3.156538 252.604825 2.994828 C 252.153153 2.827543 251.734939 2.7439 251.344606 2.7439 C 250.865054 2.7439 250.497026 2.849847 250.234945 3.05059 C 249.972864 3.256909 249.844612 3.530142 249.844612 3.881442 C 249.844612 4.054304 249.90595 4.216013 250.028626 4.360994 C 250.151302 4.511551 250.363197 4.667684 250.658735 4.83497 C 250.954273 5.002256 251.216354 5.14166 251.439402 5.242032 C 251.662449 5.342403 252.013749 5.498536 252.482149 5.699279 C 253.296272 6.050579 253.998871 6.524555 254.573219 7.126783 C 255.153142 7.717859 255.443104 8.398154 255.443104 9.150939 C 255.443104 9.875843 255.309275 10.511529 255.047195 11.052419 C 254.79069 11.593309 254.428238 12.017099 253.976567 12.323789 C 253.519319 12.63048 253.017462 12.859103 252.46542 13.00966 C 251.913377 13.154641 251.316725 13.227132 250.675464 13.227132 C 250.123421 13.227132 249.582531 13.17137 249.047217 13.059846 C 248.517479 12.948322 248.071385 12.808918 247.714509 12.641632 C 247.357633 12.46877 247.034214 12.307061 246.744252 12.145351 C 246.459866 11.978066 246.253548 11.838661 246.119719 11.727137 L 245.918976 11.559852 L 247.363209 9.139787 C 247.480309 9.240158 247.65317 9.36841 247.865066 9.53012 C 248.082537 9.686253 248.461718 9.898148 249.008184 10.165805 C 249.55465 10.433462 250.039779 10.561714 250.457993 10.561714 C 251.673601 10.561714 252.281406 10.149076 252.281406 9.318225 C 252.281406 9.145363 252.236796 8.983653 252.153153 8.838672 C 252.063934 8.693692 251.907801 8.543134 251.69033 8.398154 C 251.472859 8.247597 251.277692 8.130497 251.10483 8.041278 C 250.937545 7.952059 250.664312 7.823806 250.279555 7.645368 C 249.900374 7.46693 249.615988 7.327526 249.431974 7.238307 C 248.66246 6.859126 248.071385 6.38515 247.65317 5.816379 C 247.234956 5.253184 247.023061 4.639804 247.023061 3.98739 C 247.023061 2.849847 247.441275 1.9242 248.28328 1.204872 C 249.119708 0.479968 250.073236 0.123092 251.14944 0.123092 Z M 267.811087 0.351716 L 267.811087 8.509677 C 267.811087 10.059857 267.392873 11.236433 266.556445 12.033828 C 265.714441 12.831222 264.487679 13.227132 262.876161 13.227132 C 261.259067 13.227132 260.032306 12.831222 259.195878 12.033828 C 258.35945 11.236433 257.941236 10.059857 257.941236 8.509677 L 257.941236 0.351716 L 260.818548 0.351716 L 260.818548 7.667673 C 260.818548 8.688115 260.980258 9.396291 261.303677 9.797777 C 261.627095 10.193686 262.151257 10.394429 262.876161 10.394429 C 263.601066 10.394429 264.125227 10.193686 264.448646 9.797777 C 264.766489 9.396291 264.928198 8.688115 264.928198 7.667673 L 264.928198 0.351716 Z M 273.682812 0.351716 L 273.682812 10.472495 L 278.032238 10.472495 L 278.032238 12.998508 L 270.799923 12.998508 L 270.799923 0.351716 Z M 279.967175 2.883305 L 279.967175 0.351716 L 288.855617 0.351716 L 288.855617 2.883305 L 285.855628 2.883305 L 285.855628 12.998508 L 282.97274 12.998508 L 282.97274 2.883305 Z M 297.626959 0.351716 L 302.729171 12.998508 L 299.634387 12.998508 L 298.697587 10.472495 L 293.885338 10.472495 L 292.948538 12.998508 L 289.853755 12.998508 L 294.955966 0.351716 Z M 297.716178 7.940906 L 296.305403 4.260623 L 296.277522 4.260623 L 294.866747 7.940906 Z M 307.407592 5.152813 L 307.407592 12.998508 L 304.524703 12.998508 L 304.524703 0.351716 L 307.407592 0.351716 L 312.431736 8.202987 L 312.459617 8.202987 L 312.459617 0.351716 L 315.348082 0.351716 L 315.348082 12.998508 L 312.459617 12.998508 L 307.435473 5.152813 Z M 325.217933 10.394429 C 325.658452 10.394429 326.082242 10.327514 326.49488 10.199262 C 326.913094 10.059857 327.214208 9.931605 327.409375 9.808929 L 327.699337 9.613762 L 328.926098 12.061709 C 328.887064 12.095166 328.831303 12.134199 328.758812 12.189961 C 328.686322 12.240147 328.519036 12.334942 328.256955 12.474346 C 328.000451 12.608175 327.721641 12.730851 327.426103 12.831222 C 327.130566 12.931594 326.740232 13.026389 326.255104 13.104456 C 325.775552 13.188098 325.284848 13.227132 324.771838 13.227132 C 323.595263 13.227132 322.480025 12.942746 321.431702 12.362823 C 320.377803 11.788475 319.530222 10.996657 318.883385 9.981791 C 318.242123 8.972501 317.918704 7.873992 317.918704 6.702993 C 317.918704 5.810803 318.108295 4.957646 318.481899 4.143523 C 318.86108 3.323823 319.368513 2.621224 319.993046 2.0413 C 320.623155 1.455801 321.359212 0.992977 322.19564 0.647254 C 323.032068 0.295954 323.890801 0.123092 324.771838 0.123092 C 325.591538 0.123092 326.344323 0.217887 327.030194 0.413054 C 327.721641 0.60822 328.212346 0.803387 328.496731 0.998553 L 328.926098 1.288515 L 327.699337 3.742037 C 327.626846 3.680699 327.520899 3.602633 327.375918 3.51899 C 327.236513 3.429771 326.946551 3.318247 326.517185 3.173266 C 326.087819 3.028285 325.658452 2.955795 325.217933 2.955795 C 324.52091 2.955795 323.896377 3.072895 323.344334 3.295942 C 322.792292 3.51899 322.357349 3.814528 322.03393 4.188132 C 321.716088 4.550585 321.465159 4.946494 321.297874 5.370284 C 321.130588 5.794074 321.046945 6.229017 321.046945 6.669536 C 321.046945 7.62864 321.409398 8.487373 322.123149 9.25131 C 322.848054 10.015248 323.879648 10.394429 325.217933 10.394429 Z M 329.952116 0.351716 L 333.414928 0.351716 L 336.052465 4.400027 L 338.690001 0.351716 L 342.15839 0.351716 L 337.491121 7.327526 L 337.491121 12.998508 L 334.613809 12.998508 L 334.613809 7.327526 Z M 329.952116 0.351716 " stroke="#000000" stroke-width="0.574999" stroke-opacity="1" stroke-miterlimit="4"/></svg>