<svg xmlns="http://www.w3.org/2000/svg" xmlns:xlink="http://www.w3.org/1999/xlink" width="480" zoomAndPan="magnify" viewBox="0 0 360 269.999989" height="360" preserveAspectRatio="xMidYMid meet" version="1.2"><g id="6e1135c387"><path style=" stroke:none;fill-rule:nonzero;fill:#00a6f4;fill-opacity:1;" d="M 249.96875 210.589844 C 248.003906 210.589844 246.371094 209.035156 246.300781 207.050781 C 246.222656 205.023438 247.8125 203.324219 249.835938 203.25 C 249.988281 203.242188 265.519531 202.5625 278.714844 194.582031 C 280.449219 193.527344 282.707031 194.089844 283.761719 195.824219 C 284.8125 197.558594 284.253906 199.816406 282.515625 200.871094 C 267.644531 209.863281 250.808594 210.566406 250.101562 210.589844 C 250.058594 210.589844 250.011719 210.589844 249.96875 210.589844 Z M 249.96875 210.589844 "/><path style=" stroke:none;fill-rule:nonzero;fill:#00a6f4;fill-opacity:1;" d="M 90.164062 206.484375 C 89.222656 206.484375 88.28125 206.125 87.566406 205.40625 L 78.363281 196.203125 C 76.925781 194.765625 76.925781 192.4375 78.363281 191.003906 C 79.796875 189.566406 82.125 189.566406 83.558594 191.003906 L 92.765625 200.207031 C 94.199219 201.640625 94.199219 203.96875 92.765625 205.40625 C 92.042969 206.125 91.101562 206.484375 90.164062 206.484375 Z M 90.164062 206.484375 "/><path style=" stroke:none;fill-rule:nonzero;fill:#00a6f4;fill-opacity:1;" d="M 159.679688 269.980469 C 155.023438 269.980469 150.367188 268.207031 146.820312 264.660156 L 140.78125 258.621094 C 139.347656 257.1875 139.347656 254.859375 140.78125 253.421875 C 142.214844 251.988281 144.542969 251.988281 145.980469 253.421875 L 152.019531 259.460938 C 156.242188 263.683594 163.117188 263.683594 167.347656 259.460938 C 169.394531 257.421875 170.523438 254.703125 170.523438 251.800781 C 170.523438 250.394531 170.257812 249.019531 169.726562 247.71875 C 169.191406 246.378906 168.386719 245.175781 167.347656 244.136719 C 165.914062 242.699219 165.914062 240.371094 167.347656 238.941406 C 168.78125 237.507812 171.109375 237.507812 172.546875 238.941406 L 186 252.390625 C 188.046875 254.4375 190.769531 255.566406 193.660156 255.566406 C 196.546875 255.566406 199.273438 254.4375 201.320312 252.390625 C 203.367188 250.339844 204.496094 247.617188 204.496094 244.722656 C 204.496094 241.828125 203.367188 239.101562 201.324219 237.0625 C 199.890625 235.625 199.890625 233.296875 201.324219 231.863281 C 202.761719 230.429688 205.089844 230.429688 206.523438 231.863281 C 209.957031 235.292969 211.84375 239.863281 211.84375 244.722656 C 211.84375 249.582031 209.949219 254.148438 206.519531 257.585938 C 203.078125 261.019531 198.519531 262.914062 193.660156 262.914062 C 188.796875 262.914062 184.238281 261.019531 180.800781 257.585938 L 177.679688 254.46875 C 177.121094 258.328125 175.347656 261.878906 172.539062 264.675781 C 168.992188 268.214844 164.335938 269.980469 159.679688 269.980469 Z M 159.679688 269.980469 "/><path style=" stroke:none;fill-rule:nonzero;fill:#00a6f4;fill-opacity:1;" d="M 220.085938 248.28125 C 215.429688 248.28125 210.773438 246.507812 207.226562 242.960938 L 174.183594 209.921875 C 172.75 208.484375 172.75 206.15625 174.183594 204.722656 C 175.621094 203.289062 177.949219 203.289062 179.382812 204.722656 L 212.425781 237.761719 C 216.648438 241.984375 223.523438 241.984375 227.75 237.761719 C 231.972656 233.539062 231.972656 226.664062 227.75 222.4375 L 194.710938 189.394531 C 193.277344 187.960938 193.277344 185.632812 194.710938 184.195312 C 196.148438 182.761719 198.476562 182.761719 199.910156 184.195312 L 232.949219 217.238281 C 240.042969 224.332031 240.042969 235.863281 232.949219 242.957031 C 229.398438 246.507812 224.742188 248.28125 220.085938 248.28125 Z M 220.085938 248.28125 "/><path style=" stroke:none;fill-rule:nonzero;fill:#00a6f4;fill-opacity:1;" d="M 235.648438 222.804688 C 230.992188 222.804688 226.335938 221.03125 222.796875 217.492188 C 221.359375 216.058594 221.359375 213.730469 222.796875 212.292969 C 224.230469 210.859375 226.558594 210.859375 227.996094 212.292969 C 232.214844 216.515625 239.09375 216.515625 243.316406 212.292969 C 244.941406 210.667969 245.988281 208.605469 246.34375 206.347656 C 246.351562 206.324219 246.351562 206.304688 246.359375 206.277344 C 246.445312 205.773438 246.492188 205.21875 246.492188 204.628906 C 246.492188 201.738281 245.363281 199.015625 243.316406 196.953125 L 190.851562 144.492188 C 187.070312 140.703125 181.519531 139.253906 176.367188 140.703125 C 173.71875 141.449219 171.339844 142.910156 169.492188 144.925781 L 153.136719 162.683594 C 153.105469 162.722656 153.066406 162.757812 153.035156 162.789062 C 145.292969 170.535156 132.695312 170.535156 124.949219 162.789062 C 118.730469 156.570312 117.320312 147.183594 121.449219 139.4375 C 126.703125 129.558594 135.792969 116 149.257812 107.515625 C 149.308594 107.484375 149.355469 107.457031 149.40625 107.425781 C 160.484375 100.492188 172.621094 98.15625 185.480469 100.492188 C 187.433594 100.78125 214.089844 104.875 235.03125 119.207031 L 256.488281 109.925781 C 258.347656 109.121094 260.511719 109.976562 261.316406 111.839844 C 262.117188 113.703125 261.265625 115.863281 259.402344 116.667969 L 236.054688 126.765625 C 234.863281 127.28125 233.492188 127.128906 232.445312 126.371094 C 212.40625 111.878906 184.652344 107.796875 184.371094 107.757812 C 184.320312 107.75 184.277344 107.746094 184.230469 107.730469 C 173.160156 105.710938 162.71875 107.726562 153.1875 113.726562 C 153.144531 113.753906 153.097656 113.785156 153.054688 113.8125 C 141.015625 121.445312 132.757812 133.832031 127.933594 142.890625 C 125.339844 147.769531 126.226562 153.675781 130.140625 157.59375 C 135.003906 162.453125 142.898438 162.472656 147.785156 157.644531 L 164.082031 139.949219 C 166.851562 136.933594 170.410156 134.75 174.371094 133.636719 C 182.082031 131.460938 190.386719 133.636719 196.042969 139.300781 L 248.507812 191.761719 C 251.945312 195.207031 253.832031 199.773438 253.832031 204.628906 C 253.832031 205.636719 253.75 206.609375 253.589844 207.53125 C 252.984375 211.316406 251.230469 214.757812 248.507812 217.484375 C 244.96875 221.03125 240.304688 222.804688 235.648438 222.804688 Z M 235.648438 222.804688 "/><path style=" stroke:none;fill-rule:nonzero;fill:#00a6f4;fill-opacity:1;" d="M 101.910156 118.792969 C 100.234375 118.792969 98.722656 117.636719 98.332031 115.933594 C 97.878906 113.957031 99.117188 111.988281 101.101562 111.535156 C 124.148438 106.285156 150.140625 106.921875 151.320312 106.953125 C 153.308594 107 154.910156 108.625 154.910156 110.628906 C 154.910156 112.6875 153.199219 114.371094 151.132812 114.300781 C 150.070312 114.269531 124.925781 113.644531 102.742188 118.703125 C 102.460938 118.761719 102.183594 118.792969 101.910156 118.792969 Z M 101.910156 118.792969 "/><path style=" stroke:none;fill-rule:nonzero;fill:#00a6f4;fill-opacity:1;" d="M 98.398438 220.5625 C 95.035156 220.5625 91.675781 219.277344 89.117188 216.722656 C 84 211.605469 84 203.273438 89.117188 198.160156 L 100.296875 186.976562 C 105.414062 181.863281 113.742188 181.863281 118.859375 186.976562 C 123.972656 192.09375 123.972656 200.421875 118.859375 205.539062 C 117.421875 206.972656 115.09375 206.972656 113.660156 205.539062 C 112.226562 204.105469 112.226562 201.777344 113.660156 200.339844 C 115.910156 198.089844 115.910156 194.421875 113.660156 192.171875 C 111.410156 189.917969 107.742188 189.917969 105.488281 192.171875 L 94.308594 203.351562 C 92.054688 205.601562 92.054688 209.269531 94.308594 211.523438 C 96.558594 213.773438 100.226562 213.773438 102.480469 211.523438 C 103.914062 210.085938 106.242188 210.085938 107.675781 211.523438 C 109.113281 212.957031 109.113281 215.285156 107.675781 216.722656 C 105.121094 219.277344 101.757812 220.5625 98.398438 220.5625 Z M 98.398438 220.5625 "/><path style=" stroke:none;fill-rule:nonzero;fill:#00a6f4;fill-opacity:1;" d="M 107.785156 237.910156 C 104.277344 237.910156 100.980469 236.546875 98.503906 234.0625 C 96.023438 231.582031 94.660156 228.292969 94.660156 224.78125 C 94.660156 221.273438 96.023438 217.984375 98.503906 215.503906 L 113.667969 200.339844 C 118.78125 195.226562 127.113281 195.226562 132.226562 200.339844 C 137.34375 205.457031 137.34375 213.785156 132.226562 218.902344 C 130.792969 220.335938 128.464844 220.335938 127.03125 218.902344 C 125.59375 217.46875 125.59375 215.140625 127.03125 213.703125 C 129.28125 211.453125 129.28125 207.785156 127.03125 205.53125 C 124.777344 203.28125 121.109375 203.28125 118.859375 205.53125 L 103.695312 220.695312 C 102.605469 221.785156 102.007812 223.238281 102.007812 224.777344 C 102.007812 226.320312 102.605469 227.769531 103.695312 228.867188 C 104.789062 229.960938 106.242188 230.554688 107.785156 230.554688 C 109.328125 230.554688 110.777344 229.957031 111.875 228.867188 C 113.308594 227.429688 115.636719 227.429688 117.074219 228.867188 C 118.507812 230.300781 118.507812 232.628906 117.074219 234.0625 C 114.585938 236.546875 111.289062 237.910156 107.785156 237.910156 Z M 107.785156 237.910156 "/><path style=" stroke:none;fill-rule:nonzero;fill:#00a6f4;fill-opacity:1;" d="M 116.742188 255.679688 C 113.234375 255.679688 109.933594 254.316406 107.460938 251.835938 C 102.34375 246.71875 102.34375 238.386719 107.460938 233.273438 L 127.03125 213.710938 C 129.511719 211.230469 132.800781 209.863281 136.308594 209.863281 C 139.820312 209.863281 143.117188 211.230469 145.589844 213.710938 C 148.070312 216.191406 149.4375 219.484375 149.4375 222.992188 C 149.4375 226.5 148.070312 229.789062 145.589844 232.269531 L 126.027344 251.835938 C 123.546875 254.316406 120.25 255.679688 116.742188 255.679688 Z M 136.308594 217.210938 C 134.765625 217.210938 133.320312 217.8125 132.226562 218.902344 L 112.660156 238.472656 C 110.40625 240.722656 110.40625 244.390625 112.660156 246.640625 C 113.75 247.734375 115.203125 248.332031 116.746094 248.332031 C 118.292969 248.332031 119.738281 247.734375 120.835938 246.640625 L 140.40625 227.074219 C 141.496094 225.980469 142.09375 224.527344 142.09375 222.992188 C 142.09375 221.445312 141.496094 219.992188 140.40625 218.902344 C 139.300781 217.8125 137.855469 217.210938 136.308594 217.210938 Z M 136.308594 217.210938 "/><path style=" stroke:none;fill-rule:nonzero;fill:#00a6f4;fill-opacity:1;" d="M 135.792969 263.367188 C 132.433594 263.367188 129.070312 262.085938 126.511719 259.527344 C 124.03125 257.046875 122.667969 253.753906 122.667969 250.246094 C 122.667969 246.738281 124.03125 243.441406 126.507812 240.957031 C 127.941406 239.523438 130.269531 239.523438 131.703125 240.957031 C 133.140625 242.394531 133.140625 244.722656 131.703125 246.15625 C 130.613281 247.25 130.015625 248.695312 130.015625 250.246094 C 130.015625 251.789062 130.613281 253.242188 131.703125 254.335938 C 133.957031 256.585938 137.625 256.585938 139.875 254.335938 L 153.761719 240.449219 C 154.851562 239.359375 155.453125 237.902344 155.453125 236.359375 C 155.453125 234.816406 154.851562 233.363281 153.761719 232.269531 C 151.511719 230.019531 147.84375 230.011719 145.589844 232.265625 C 144.15625 233.699219 141.828125 233.699219 140.390625 232.265625 C 138.957031 230.828125 138.957031 228.5 140.390625 227.066406 C 145.507812 221.949219 153.839844 221.957031 158.953125 227.074219 C 161.433594 229.554688 162.800781 232.84375 162.800781 236.355469 C 162.800781 239.863281 161.433594 243.160156 158.953125 245.632812 L 145.066406 259.519531 C 142.515625 262.085938 139.15625 263.367188 135.792969 263.367188 Z M 135.792969 263.367188 "/><path style=" stroke:none;fill-rule:nonzero;fill:#00a6f4;fill-opacity:1;" d="M 293.6875 208.953125 C 290.433594 208.953125 287.210938 208.097656 284.308594 206.417969 C 279.960938 203.90625 276.847656 199.863281 275.558594 195.039062 L 254.910156 117.980469 C 253.617188 113.152344 254.285156 108.101562 256.800781 103.753906 C 259.3125 99.402344 263.355469 96.289062 268.179688 95 L 288.335938 89.597656 C 290.292969 89.074219 292.308594 90.234375 292.832031 92.195312 L 321.292969 198.414062 C 321.816406 200.371094 320.652344 202.386719 318.695312 202.910156 L 298.539062 208.3125 C 296.9375 208.734375 295.304688 208.953125 293.6875 208.953125 Z M 286.6875 97.640625 L 270.085938 102.09375 C 267.15625 102.878906 264.695312 104.773438 263.164062 107.425781 C 261.632812 110.078125 261.226562 113.152344 262.011719 116.082031 L 282.65625 193.140625 C 283.441406 196.074219 285.335938 198.53125 287.988281 200.058594 C 290.644531 201.589844 293.71875 202 296.644531 201.214844 L 313.25 196.761719 Z M 269.128906 98.539062 Z M 269.128906 98.539062 "/><path style=" stroke:none;fill-rule:nonzero;fill:#00a6f4;fill-opacity:1;" d="M 66.253906 208.914062 C 64.636719 208.914062 63.003906 208.703125 61.394531 208.269531 L 41.238281 202.867188 C 39.28125 202.34375 38.113281 200.328125 38.644531 198.371094 L 67.105469 92.148438 C 67.359375 91.207031 67.972656 90.410156 68.8125 89.917969 C 69.65625 89.433594 70.664062 89.296875 71.601562 89.546875 L 91.757812 94.949219 C 101.75 97.628906 107.710938 107.941406 105.03125 117.9375 L 84.390625 194.996094 C 83.09375 199.824219 79.988281 203.863281 75.636719 206.375 C 72.730469 208.058594 69.507812 208.914062 66.253906 208.914062 Z M 46.691406 196.722656 L 63.296875 201.175781 C 66.230469 201.960938 69.296875 201.554688 71.953125 200.023438 C 74.605469 198.492188 76.5 196.035156 77.285156 193.101562 L 97.929688 116.042969 C 99.5625 109.957031 95.941406 103.6875 89.855469 102.054688 L 73.246094 97.601562 Z M 46.691406 196.722656 "/><path style=" stroke:none;fill-rule:nonzero;fill:#00a6f4;fill-opacity:1;" d="M 262.585938 105.914062 C 260.554688 105.914062 258.910156 104.269531 258.910156 102.242188 L 258.910156 7.339844 L 101.03125 7.339844 L 101.03125 102.203125 C 101.03125 104.230469 99.386719 105.875 97.355469 105.875 C 95.328125 105.875 93.683594 104.230469 93.683594 102.203125 L 93.683594 3.667969 C 93.683594 1.640625 95.328125 -0.0078125 97.355469 -0.0078125 L 262.589844 -0.0078125 C 264.621094 -0.0078125 266.265625 1.640625 266.265625 3.667969 L 266.265625 102.242188 C 266.257812 104.269531 264.613281 105.914062 262.585938 105.914062 Z M 262.585938 105.914062 "/><path style=" stroke:none;fill-rule:nonzero;fill:#00a6f4;fill-opacity:1;" d="M 179.972656 89.988281 C 159.554688 89.988281 142.9375 73.371094 142.9375 52.953125 C 142.9375 32.535156 159.546875 15.921875 179.972656 15.921875 C 200.394531 15.921875 217.003906 32.53125 217.003906 52.953125 C 217.003906 73.378906 200.386719 89.988281 179.972656 89.988281 Z M 179.972656 23.269531 C 163.605469 23.269531 150.285156 36.585938 150.285156 52.953125 C 150.285156 69.320312 163.605469 82.640625 179.972656 82.640625 C 196.339844 82.640625 209.65625 69.320312 209.65625 52.953125 C 209.65625 36.585938 196.339844 23.269531 179.972656 23.269531 Z M 179.972656 23.269531 "/><path style=" stroke:none;fill-rule:nonzero;fill:#00a6f4;fill-opacity:1;" d="M 171.890625 68.109375 C 170.953125 68.109375 170.007812 67.753906 169.292969 67.03125 L 162.507812 60.246094 C 161.070312 58.808594 161.070312 56.480469 162.507812 55.046875 C 163.941406 53.609375 166.269531 53.609375 167.703125 55.046875 L 171.894531 59.238281 L 192.25 38.882812 C 193.683594 37.449219 196.011719 37.449219 197.449219 38.882812 C 198.882812 40.316406 198.882812 42.644531 197.449219 44.082031 L 174.492188 67.039062 C 173.769531 67.746094 172.828125 68.109375 171.890625 68.109375 Z M 171.890625 68.109375 "/></g></svg>