<svg xmlns="http://www.w3.org/2000/svg" xmlns:xlink="http://www.w3.org/1999/xlink" width="480" zoomAndPan="magnify" viewBox="0 0 360 269.999989" height="360" preserveAspectRatio="xMidYMid meet" version="1.2"><defs><clipPath id="db934ea5d6"><path d="M 0 28.125 L 360 28.125 L 360 241.875 L 0 241.875 Z M 0 28.125 "/></clipPath></defs><g id="e98643ba4e"><g clip-rule="nonzero" clip-path="url(#db934ea5d6)"><path style=" stroke:none;fill-rule:nonzero;fill:#00a6f4;fill-opacity:1;" d="M 343.886719 241.933594 L 16.113281 241.933594 C 7.246094 241.933594 0.0351562 234.246094 0.0351562 224.800781 L 0.0351562 45.277344 C 0.0351562 35.832031 7.246094 28.148438 16.113281 28.148438 L 343.886719 28.148438 C 352.753906 28.148438 359.964844 35.832031 359.964844 45.277344 L 359.964844 224.800781 C 359.964844 234.246094 352.753906 241.933594 343.886719 241.933594 Z M 16.113281 36.328125 C 11.757812 36.328125 8.214844 40.34375 8.214844 45.277344 L 8.214844 224.800781 C 8.214844 229.734375 11.757812 233.753906 16.113281 233.753906 L 343.886719 233.753906 C 348.242188 233.753906 351.785156 229.734375 351.785156 224.800781 L 351.785156 45.277344 C 351.785156 40.34375 348.242188 36.328125 343.886719 36.328125 Z M 16.113281 36.328125 "/></g><path style=" stroke:none;fill-rule:nonzero;fill:#00a6f4;fill-opacity:1;" d="M 130.980469 176.761719 L 26.019531 176.761719 C 23.761719 176.761719 21.929688 174.933594 21.929688 172.671875 C 21.929688 170.414062 23.761719 168.582031 26.019531 168.582031 L 130.980469 168.582031 C 133.238281 168.582031 135.070312 170.414062 135.070312 172.671875 C 135.070312 174.933594 133.238281 176.761719 130.980469 176.761719 Z M 130.980469 176.761719 "/><path style=" stroke:none;fill-rule:nonzero;fill:#00a6f4;fill-opacity:1;" d="M 130.980469 195.761719 L 26.019531 195.761719 C 23.761719 195.761719 21.929688 193.929688 21.929688 191.671875 C 21.929688 189.410156 23.761719 187.582031 26.019531 187.582031 L 130.980469 187.582031 C 133.238281 187.582031 135.070312 189.410156 135.070312 191.671875 C 135.070312 193.929688 133.238281 195.761719 130.980469 195.761719 Z M 130.980469 195.761719 "/><path style=" stroke:none;fill-rule:nonzero;fill:#00a6f4;fill-opacity:1;" d="M 130.980469 214.757812 L 26.019531 214.757812 C 23.761719 214.757812 21.929688 212.925781 21.929688 210.667969 C 21.929688 208.40625 23.761719 206.578125 26.019531 206.578125 L 130.980469 206.578125 C 133.238281 206.578125 135.070312 208.40625 135.070312 210.667969 C 135.070312 212.925781 133.238281 214.757812 130.980469 214.757812 Z M 130.980469 214.757812 "/><path style=" stroke:none;fill-rule:nonzero;fill:#00a6f4;fill-opacity:1;" d="M 130.296875 147.199219 L 26.707031 147.199219 C 24.449219 147.199219 22.617188 145.371094 22.617188 143.109375 L 22.617188 56.5 C 22.617188 54.242188 24.449219 52.410156 26.707031 52.410156 L 130.296875 52.410156 C 132.554688 52.410156 134.386719 54.242188 134.386719 56.5 L 134.386719 143.109375 C 134.386719 145.371094 132.554688 147.199219 130.296875 147.199219 Z M 30.796875 139.019531 L 126.203125 139.019531 L 126.203125 60.589844 L 30.796875 60.589844 Z M 30.796875 139.019531 "/><path style=" stroke:none;fill-rule:nonzero;fill:#00a6f4;fill-opacity:1;" d="M 78.5 122.257812 C 63.234375 122.257812 50.8125 109.835938 50.8125 94.570312 C 50.8125 79.304688 63.234375 66.886719 78.5 66.886719 C 93.765625 66.886719 106.183594 79.304688 106.183594 94.570312 C 106.183594 109.835938 93.765625 122.257812 78.5 122.257812 Z M 78.5 75.066406 C 67.742188 75.066406 58.992188 83.816406 58.992188 94.570312 C 58.992188 105.328125 67.742188 114.078125 78.5 114.078125 C 89.253906 114.078125 98.003906 105.328125 98.003906 94.570312 C 98.003906 83.816406 89.253906 75.066406 78.5 75.066406 Z M 78.5 75.066406 "/><path style=" stroke:none;fill-rule:nonzero;fill:#00a6f4;fill-opacity:1;" d="M 116.957031 147.203125 C 114.964844 147.203125 113.214844 145.742188 112.917969 143.710938 C 111.144531 131.761719 96.136719 122.335938 78.746094 122.25 L 78.269531 122.25 C 60.863281 122.335938 45.859375 131.761719 44.089844 143.710938 C 43.757812 145.945312 41.671875 147.480469 39.441406 147.15625 C 37.207031 146.824219 35.664062 144.746094 35.996094 142.511719 C 38.382812 126.402344 56.53125 114.179688 78.207031 114.070312 L 78.726562 114.070312 C 100.46875 114.179688 118.621094 126.402344 121.007812 142.511719 C 121.339844 144.746094 119.796875 146.824219 117.5625 147.15625 C 117.359375 147.1875 117.15625 147.203125 116.957031 147.203125 Z M 116.957031 147.203125 "/><path style=" stroke:none;fill-rule:nonzero;fill:#00a6f4;fill-opacity:1;" d="M 333.980469 147.199219 L 166.746094 147.199219 C 164.488281 147.199219 162.65625 145.371094 162.65625 143.109375 C 162.65625 140.851562 164.488281 139.019531 166.746094 139.019531 L 333.980469 139.019531 C 336.238281 139.019531 338.070312 140.851562 338.070312 143.109375 C 338.070312 145.371094 336.238281 147.199219 333.980469 147.199219 Z M 333.980469 147.199219 "/><path style=" stroke:none;fill-rule:nonzero;fill:#00a6f4;fill-opacity:1;" d="M 333.980469 122.25 L 166.746094 122.25 C 164.488281 122.25 162.65625 120.421875 162.65625 118.160156 C 162.65625 115.902344 164.488281 114.070312 166.746094 114.070312 L 333.980469 114.070312 C 336.238281 114.070312 338.070312 115.902344 338.070312 118.160156 C 338.070312 120.421875 336.238281 122.25 333.980469 122.25 Z M 333.980469 122.25 "/><path style=" stroke:none;fill-rule:nonzero;fill:#00a6f4;fill-opacity:1;" d="M 333.980469 98.519531 L 166.746094 98.519531 C 164.488281 98.519531 162.65625 96.6875 162.65625 94.429688 L 162.65625 56.5 C 162.65625 54.242188 164.488281 52.410156 166.746094 52.410156 L 333.980469 52.410156 C 336.238281 52.410156 338.070312 54.242188 338.070312 56.5 L 338.070312 94.429688 C 338.070312 96.6875 336.238281 98.519531 333.980469 98.519531 Z M 170.835938 90.339844 L 329.890625 90.339844 L 329.890625 60.589844 L 170.835938 60.589844 Z M 170.835938 90.339844 "/><path style=" stroke:none;fill-rule:nonzero;fill:#00a6f4;fill-opacity:1;" d="M 194.074219 199.339844 C 193.410156 201.09375 192.820312 202.84375 192.304688 204.566406 C 191.75 202.636719 191.144531 200.882812 190.5 199.355469 L 177.824219 163.929688 L 169.210938 163.929688 L 188.449219 213.582031 L 196.054688 213.582031 L 215.492188 163.929688 L 207.273438 163.929688 Z M 194.074219 199.339844 "/><path style=" stroke:none;fill-rule:nonzero;fill:#00a6f4;fill-opacity:1;" d="M 222.546875 163.929688 L 230.570312 163.929688 L 230.570312 213.582031 L 222.546875 213.582031 Z M 222.546875 163.929688 "/><path style=" stroke:none;fill-rule:nonzero;fill:#00a6f4;fill-opacity:1;" d="M 270.707031 186.382812 C 268.179688 185.457031 264.871094 184.542969 260.878906 183.667969 C 256.519531 182.6875 253.550781 181.707031 252.050781 180.746094 C 250.707031 179.882812 250.054688 178.59375 250.054688 176.800781 C 250.054688 174.757812 250.929688 173.238281 252.734375 172.164062 C 254.648438 171.023438 257.195312 170.445312 260.308594 170.445312 C 263.726562 170.445312 266.367188 171.164062 268.152344 172.578125 C 269.925781 173.984375 270.90625 176.050781 271.152344 178.902344 L 271.222656 179.710938 L 278.910156 179.089844 L 278.875 178.304688 C 278.671875 173.46875 276.828125 169.671875 273.398438 167.03125 C 270.027344 164.429688 265.535156 163.109375 260.046875 163.109375 C 254.675781 163.109375 250.355469 164.441406 247.207031 167.066406 C 244.011719 169.730469 242.390625 173.148438 242.390625 177.226562 C 242.390625 180.839844 243.6875 183.820312 246.234375 186.089844 C 248.710938 188.292969 252.765625 190.015625 258.285156 191.210938 C 263.589844 192.355469 267.40625 193.527344 269.621094 194.6875 C 271.640625 195.746094 272.625 197.382812 272.625 199.695312 C 272.625 201.9375 271.664062 203.664062 269.695312 204.976562 C 267.648438 206.339844 264.898438 207.03125 261.519531 207.03125 C 257.898438 207.03125 254.777344 206.191406 252.238281 204.53125 C 249.757812 202.90625 248.417969 200.359375 248.152344 196.753906 L 248.09375 195.925781 L 240.460938 196.589844 L 240.492188 197.371094 C 240.699219 202.378906 242.582031 206.519531 246.085938 209.671875 C 249.578125 212.808594 254.859375 214.398438 261.78125 214.398438 C 267.238281 214.398438 271.738281 212.957031 275.160156 210.117188 C 278.625 207.238281 280.382812 203.566406 280.382812 199.203125 C 280.382812 195.753906 279.40625 192.949219 277.480469 190.867188 C 275.609375 188.847656 273.328125 187.339844 270.707031 186.382812 Z M 270.707031 186.382812 "/><path style=" stroke:none;fill-rule:nonzero;fill:#00a6f4;fill-opacity:1;" d="M 311.261719 163.929688 L 303.304688 163.929688 L 284.234375 213.582031 L 292.714844 213.582031 L 298.019531 198.972656 L 316.929688 198.972656 L 322.5625 213.582031 L 331.515625 213.582031 Z M 307.246094 172.875 C 307.558594 173.957031 307.859375 174.894531 308.140625 175.683594 C 308.628906 177.050781 310.667969 182.488281 314.375 192.292969 L 300.425781 192.292969 L 305.386719 179.019531 C 306.101562 177.09375 306.722656 175.039062 307.246094 172.875 Z M 307.246094 172.875 "/></g></svg>