<svg xmlns="http://www.w3.org/2000/svg" xmlns:xlink="http://www.w3.org/1999/xlink" width="480" zoomAndPan="magnify" viewBox="0 0 360 269.999989" height="360" preserveAspectRatio="xMidYMid meet" version="1.2"><defs><clipPath id="0e8f86b28b"><path d="M 37.484375 0 L 322.484375 0 L 322.484375 270 L 37.484375 270 Z M 37.484375 0 "/></clipPath></defs><g id="abd37f7280"><g clip-rule="nonzero" clip-path="url(#0e8f86b28b)"><path style=" stroke:none;fill-rule:nonzero;fill:#00a6f4;fill-opacity:1;" d="M 300.449219 205.050781 C 286.851562 191.453125 268.085938 183.011719 247.453125 183.011719 L 221.503906 183.011719 C 221.511719 182.667969 221.53125 182.328125 221.53125 181.984375 L 221.53125 169.53125 C 222.65625 168.554688 223.746094 167.535156 224.800781 166.480469 C 228.007812 163.273438 230.878906 159.71875 233.351562 155.894531 C 246.339844 154.40625 256.488281 149.871094 259.082031 137.808594 C 263.207031 137 266.894531 134.960938 269.761719 132.097656 C 273.53125 128.328125 275.875 123.117188 275.875 117.398438 L 275.875 94.332031 C 275.875 88.605469 273.53125 83.402344 269.761719 79.632812 L 269.46875 79.363281 C 266.980469 76.96875 263.910156 75.195312 260.503906 74.253906 C 260.511719 74.167969 260.519531 74.089844 260.519531 74.007812 C 260.519531 53.621094 251.648438 35.109375 237.355469 21.703125 C 223.128906 8.355469 203.539062 0.078125 182.015625 0.078125 L 177.960938 0.078125 C 156.4375 0.078125 136.851562 8.355469 122.628906 21.703125 C 108.335938 35.109375 99.464844 53.621094 99.464844 74.007812 C 99.464844 74.089844 99.472656 74.167969 99.480469 74.253906 C 95.953125 75.222656 92.78125 77.097656 90.246094 79.628906 L 90.226562 79.648438 C 86.457031 83.425781 84.113281 88.625 84.113281 94.332031 L 84.113281 117.398438 C 84.113281 122.96875 86.339844 128.050781 89.953125 131.804688 L 90.226562 132.097656 C 93.992188 135.867188 99.195312 138.210938 104.921875 138.210938 C 109.738281 138.210938 114.179688 136.550781 117.714844 133.785156 C 120.179688 146.402344 126.40625 157.71875 135.175781 166.488281 C 136.824219 168.132812 138.554688 169.679688 140.371094 171.140625 L 140.371094 182 C 140.371094 182.339844 140.386719 182.683594 140.398438 183.027344 L 112.527344 183.027344 C 91.886719 183.027344 73.125 191.46875 59.53125 205.0625 C 45.929688 218.644531 37.484375 237.410156 37.484375 258.042969 L 37.484375 265.296875 C 37.484375 267.835938 39.542969 269.894531 42.082031 269.894531 L 317.890625 269.894531 C 320.425781 269.894531 322.484375 267.835938 322.484375 265.296875 L 322.484375 258.042969 C 322.484375 237.410156 314.042969 218.644531 300.449219 205.050781 Z M 238.789062 145.414062 C 240.296875 141.695312 241.472656 137.796875 242.257812 133.769531 C 244.375 135.429688 246.824219 136.691406 249.484375 137.433594 C 247.738281 141.488281 243.910156 143.953125 238.789062 145.414062 Z M 263.25 86.125 C 265.355469 88.234375 266.667969 91.132812 266.667969 94.328125 L 266.667969 117.390625 C 266.667969 120.582031 265.355469 123.488281 263.25 125.589844 C 261.140625 127.699219 258.230469 129.011719 255.039062 129.011719 C 251.847656 129.011719 248.941406 127.699219 246.839844 125.589844 L 246.816406 125.589844 C 244.722656 123.496094 243.417969 120.589844 243.417969 117.390625 L 243.417969 94.328125 C 243.417969 91.121094 244.722656 88.21875 246.816406 86.125 L 246.839844 86.105469 C 248.933594 84.007812 251.839844 82.707031 255.046875 82.707031 C 258.148438 82.707031 260.976562 83.925781 263.050781 85.90625 Z M 128.90625 28.378906 C 141.476562 16.585938 158.832031 9.269531 177.953125 9.269531 L 182.007812 9.269531 C 201.125 9.269531 218.488281 16.585938 231.058594 28.378906 C 243.519531 40.070312 251.269531 56.171875 251.308594 73.863281 C 248.3125 74.414062 245.542969 75.609375 243.132812 77.304688 C 241.710938 62.226562 234.953125 48.640625 224.789062 38.472656 C 213.296875 26.980469 197.425781 19.839844 179.976562 19.839844 C 162.53125 19.839844 146.660156 26.980469 135.167969 38.472656 C 125.003906 48.640625 118.246094 62.226562 116.824219 77.304688 C 114.414062 75.609375 111.644531 74.414062 108.648438 73.863281 C 108.699219 56.171875 116.445312 40.070312 128.90625 28.378906 Z M 233.816406 76.679688 C 222.984375 76.636719 212.582031 75.246094 202.628906 72.523438 C 191.230469 69.402344 180.347656 64.5 170.003906 57.824219 C 168.230469 56.683594 165.828125 56.890625 164.28125 58.453125 C 159.699219 63.039062 153.824219 66.867188 146.640625 69.921875 C 140.726562 72.4375 133.921875 74.417969 126.261719 75.886719 C 127.917969 63.910156 133.503906 53.144531 141.679688 44.964844 C 151.515625 35.132812 165.082031 29.027344 179.992188 29.027344 C 194.90625 29.027344 208.472656 35.132812 218.304688 44.964844 C 226.65625 53.320312 232.304688 64.386719 233.816406 76.679688 Z M 104.921875 129.011719 C 101.730469 129.011719 98.824219 127.699219 96.722656 125.589844 L 96.507812 125.390625 C 94.527344 123.3125 93.308594 120.488281 93.308594 117.390625 L 93.308594 94.328125 C 93.308594 91.121094 94.613281 88.21875 96.707031 86.125 L 96.730469 86.105469 C 98.824219 84.007812 101.730469 82.707031 104.9375 82.707031 C 108.144531 82.707031 111.042969 84.007812 113.140625 86.105469 L 113.140625 86.125 C 115.246094 88.234375 116.558594 91.132812 116.558594 94.328125 L 116.558594 117.390625 C 116.558594 120.582031 115.246094 123.488281 113.140625 125.589844 C 111.023438 127.699219 108.117188 129.011719 104.921875 129.011719 Z M 125.734375 121.671875 L 125.734375 85.320312 C 134.949219 83.703125 143.113281 81.386719 150.21875 78.359375 C 157.171875 75.402344 163.121094 71.753906 168.074219 67.4375 C 178.269531 73.636719 188.984375 78.28125 200.21875 81.351562 C 211.109375 84.332031 222.445312 85.828125 234.234375 85.832031 L 234.234375 121.664062 C 234.234375 130.847656 231.914062 139.511719 227.84375 147.117188 C 220.785156 147.585938 212.769531 147.292969 204.878906 146.996094 L 203.269531 146.9375 C 202.550781 144.578125 201.28125 142.464844 199.613281 140.753906 C 196.914062 137.988281 193.179688 136.269531 189.078125 136.269531 C 184.972656 136.269531 181.238281 137.980469 178.539062 140.753906 C 175.875 143.480469 174.222656 147.242188 174.222656 151.382812 C 174.222656 155.523438 175.875 159.285156 178.539062 162.015625 C 181.238281 164.777344 184.972656 166.496094 189.078125 166.496094 C 193.179688 166.496094 196.914062 164.785156 199.613281 162.015625 C 201.21875 160.367188 202.445312 158.351562 203.175781 156.105469 L 204.558594 156.15625 C 210.230469 156.371094 215.953125 156.585938 221.453125 156.542969 C 220.449219 157.730469 219.402344 158.886719 218.304688 159.992188 C 208.472656 169.824219 194.90625 175.929688 179.992188 175.929688 C 170.9375 175.929688 162.386719 173.671875 154.863281 169.703125 C 152.367188 168.347656 149.996094 166.792969 147.773438 165.070312 C 147.472656 164.84375 147.152344 164.65625 146.824219 164.507812 C 145.023438 163.105469 143.300781 161.601562 141.679688 159.992188 C 131.84375 150.152344 125.734375 136.585938 125.734375 121.671875 Z M 194.734375 151.382812 C 194.734375 153.050781 194.085938 154.554688 193.039062 155.621094 C 192.027344 156.664062 190.617188 157.304688 189.0625 157.304688 C 187.507812 157.304688 186.097656 156.664062 185.085938 155.621094 C 184.039062 154.554688 183.390625 153.050781 183.390625 151.382812 C 183.390625 149.714844 184.039062 148.210938 185.085938 147.144531 C 186.097656 146.105469 187.507812 145.460938 189.0625 145.460938 C 190.617188 145.460938 192.027344 146.105469 193.039062 147.144531 C 194.085938 148.210938 194.734375 149.714844 194.734375 151.382812 Z M 154 179.511719 C 155.867188 180.375 157.777344 181.160156 159.738281 181.828125 C 165.578125 183.835938 171.820312 184.964844 178.289062 185.085938 C 178.355469 185.085938 178.417969 185.085938 178.480469 185.09375 C 178.789062 185.097656 179.085938 185.113281 179.394531 185.113281 L 182.488281 185.113281 C 189.347656 185.113281 195.96875 183.960938 202.152344 181.835938 C 205.691406 180.617188 209.097656 179.070312 212.324219 177.238281 L 212.324219 181.984375 C 212.324219 190.351562 208.898438 197.953125 203.382812 203.46875 C 197.871094 208.980469 190.261719 212.410156 181.902344 212.410156 L 179.984375 212.410156 C 171.621094 212.410156 164.019531 208.980469 158.503906 203.46875 C 152.988281 197.953125 149.5625 190.34375 149.5625 181.984375 L 149.5625 177.289062 C 151.007812 178.082031 152.488281 178.828125 154 179.511719 Z M 46.675781 258.042969 C 46.675781 239.941406 54.085938 223.480469 66.019531 211.539062 C 77.957031 199.605469 94.421875 192.195312 112.527344 192.195312 L 141.722656 192.195312 C 143.554688 199.007812 147.152344 205.105469 152.003906 209.957031 C 158.15625 216.105469 166.320312 220.253906 175.390625 221.316406 L 175.390625 260.695312 L 46.675781 260.695312 Z M 313.292969 260.703125 L 184.582031 260.703125 L 184.582031 221.5 C 194.421875 220.839844 203.304688 216.554688 209.890625 209.964844 C 214.742188 205.113281 218.339844 199.007812 220.171875 192.203125 L 247.445312 192.203125 C 265.550781 192.203125 282.007812 199.613281 293.941406 211.546875 C 305.878906 223.480469 313.289062 239.949219 313.289062 258.050781 L 313.289062 260.703125 Z M 313.292969 260.703125 "/></g></g></svg>