<svg xmlns="http://www.w3.org/2000/svg" xmlns:xlink="http://www.w3.org/1999/xlink" width="480" zoomAndPan="magnify" viewBox="0 0 360 269.999989" height="360" preserveAspectRatio="xMidYMid meet" version="1.2"><defs><clipPath id="577039ab9c"><path d="M 55.308594 1 L 245 1 L 245 240 L 55.308594 240 Z M 55.308594 1 "/></clipPath></defs><g id="c3c9475280"><g clip-rule="nonzero" clip-path="url(#577039ab9c)"><path style=" stroke:none;fill-rule:evenodd;fill:#00a6f4;fill-opacity:1;" d="M 244.09375 108.550781 C 244.09375 113.417969 236.609375 113.46875 236.609375 108.550781 L 236.609375 54.65625 L 190.773438 8.820312 L 75.453125 8.820312 C 72 8.820312 68.859375 10.234375 66.558594 12.484375 C 64.257812 14.785156 62.84375 17.925781 62.84375 21.378906 L 62.84375 219.84375 C 62.84375 226.75 68.496094 232.402344 75.402344 232.402344 L 211.914062 232.402344 C 216.726562 232.347656 216.832031 239.882812 211.914062 239.882812 C 211.914062 239.882812 75.402344 239.882812 75.402344 239.882812 C 69.90625 239.882812 64.9375 237.632812 61.222656 233.96875 C 57.613281 230.359375 55.308594 225.335938 55.308594 219.789062 L 55.308594 21.378906 C 55.308594 10.339844 64.359375 1.339844 75.347656 1.339844 L 192.242188 1.339844 C 193.183594 1.339844 194.175781 1.707031 194.910156 2.4375 L 242.996094 50.472656 C 243.675781 51.152344 244.09375 52.09375 244.09375 53.140625 Z M 244.09375 108.550781 "/></g><path style=" stroke:none;fill-rule:evenodd;fill:#00a6f4;fill-opacity:1;" d="M 196.113281 14.105469 L 196.113281 36.761719 C 196.113281 40.214844 197.523438 43.355469 199.828125 45.65625 C 202.078125 47.960938 205.214844 49.320312 208.722656 49.371094 L 231.378906 49.371094 Z M 188.578125 36.761719 L 188.578125 5.054688 C 188.472656 1.863281 192.761719 0.03125 194.960938 2.386719 L 242.996094 50.472656 C 245.347656 52.667969 243.621094 56.960938 240.324219 56.855469 L 208.617188 56.855469 C 197.628906 56.855469 188.578125 47.800781 188.578125 36.761719 Z M 188.578125 36.761719 "/><path style=" stroke:none;fill-rule:evenodd;fill:#00a6f4;fill-opacity:1;" d="M 265.074219 218.847656 C 265.074219 213.984375 272.558594 213.929688 272.558594 218.847656 L 272.558594 265.207031 C 272.660156 268.085938 269.207031 269.96875 266.855469 268.398438 L 240.378906 253.226562 L 213.796875 268.453125 C 211.390625 269.917969 208.148438 267.980469 208.199219 265.207031 L 208.199219 218.847656 C 208.199219 213.984375 215.679688 213.929688 215.679688 218.847656 L 215.679688 258.773438 C 223.269531 254.429688 230.855469 249.824219 238.496094 245.691406 C 239.59375 245.0625 241.007812 245.011719 242.210938 245.691406 L 265.023438 258.773438 L 265.023438 218.847656 Z M 265.074219 218.847656 "/><path style=" stroke:none;fill-rule:evenodd;fill:#00a6f4;fill-opacity:1;" d="M 240.378906 104.78125 C 247.703125 104.417969 252.359375 113.78125 257.855469 116.554688 C 263.664062 117.65625 272.871094 112.683594 278.363281 117.183594 C 284.277344 121.003906 282.34375 131.207031 285.011719 136.386719 C 285.953125 137.695312 288.464844 138.847656 290.976562 139.996094 C 302.171875 144.289062 304.683594 151.558594 298.351562 161.921875 C 296.992188 164.535156 295.632812 167.152344 295.632812 169.035156 C 296.3125 175.210938 303.953125 182.589844 301.28125 189.339844 C 299.398438 196.246094 289.144531 197.5 284.957031 201.6875 C 282.238281 206.867188 284.171875 217.070312 278.3125 220.890625 C 272.871094 225.390625 263.664062 220.417969 257.800781 221.515625 C 252.308594 224.289062 247.703125 233.707031 240.324219 233.289062 C 233 233.707031 228.34375 224.289062 222.851562 221.515625 C 217.042969 220.417969 207.832031 225.390625 202.390625 220.890625 C 196.480469 217.070312 198.414062 206.867188 195.746094 201.6875 C 194.804688 200.378906 192.292969 199.226562 189.78125 198.078125 C 178.582031 193.785156 176.074219 186.460938 182.351562 176.152344 C 185.753906 170.449219 185.753906 167.675781 182.351562 161.921875 C 176.074219 151.664062 178.480469 144.339844 189.730469 139.996094 C 192.242188 138.847656 194.75 137.640625 195.695312 136.386719 C 198.414062 131.207031 196.480469 121.003906 202.339844 117.183594 C 207.78125 112.683594 216.988281 117.65625 222.796875 116.554688 C 228.394531 113.835938 233 104.363281 240.378906 104.78125 Z M 247.023438 117.183594 C 241.214844 110.800781 239.539062 110.746094 233.734375 117.183594 C 228.5 123.621094 222.378906 125.554688 214.425781 123.410156 C 206.472656 121.789062 205.636719 122.3125 204.851562 130.421875 C 204.378906 134.136719 203.910156 137.902344 201.816406 140.78125 C 199.722656 143.605469 196.320312 145.175781 192.921875 146.800781 C 189.992188 148.160156 187.007812 149.519531 186.484375 151.089844 C 185.960938 152.660156 187.480469 155.535156 188.996094 158.519531 C 190.773438 161.921875 192.554688 165.375 192.554688 169.035156 C 192.554688 172.75 190.722656 176.203125 188.996094 179.605469 C 185.019531 186.878906 185.230469 187.976562 192.921875 191.273438 C 196.320312 192.84375 199.722656 194.414062 201.816406 197.292969 C 203.910156 200.167969 204.378906 203.882812 204.851562 207.652344 C 205.214844 210.84375 205.636719 213.984375 206.890625 214.925781 C 211.285156 216.652344 220.234375 212.257812 225.308594 214.507812 C 230.855469 215.8125 235.511719 224.917969 240.429688 225.914062 C 242.3125 225.914062 244.722656 223.402344 247.074219 220.992188 C 252.308594 214.558594 258.429688 212.621094 266.382812 214.765625 C 269.523438 215.34375 272.714844 215.917969 273.96875 214.976562 C 276.898438 211.3125 275.382812 201.53125 279.046875 197.394531 C 281.871094 192.6875 291.8125 191.117188 294.324219 187.140625 C 294.691406 182.273438 287.730469 174.84375 288.253906 169.195312 C 287.730469 163.492188 294.691406 156.113281 294.324219 151.246094 C 293.800781 149.730469 290.816406 148.316406 287.886719 146.957031 C 284.488281 145.386719 281.085938 143.816406 278.992188 140.9375 C 276.898438 138.0625 276.429688 134.347656 275.957031 130.578125 C 275.121094 122.519531 274.335938 121.945312 266.382812 123.566406 C 258.378906 125.609375 252.253906 123.621094 247.023438 117.183594 Z M 247.023438 117.183594 "/><path style=" stroke:none;fill-rule:evenodd;fill:#00a6f4;fill-opacity:1;" d="M 240.378906 133.300781 C 287.625 134.765625 287.625 203.359375 240.378906 204.824219 C 193.128906 203.308594 193.128906 134.765625 240.378906 133.300781 Z M 260.367188 149.050781 C 233.15625 123.460938 194.804688 161.816406 220.390625 189.023438 C 247.597656 214.664062 285.953125 176.257812 260.367188 149.050781 Z M 260.367188 149.050781 "/><path style=" stroke:none;fill-rule:evenodd;fill:#00a6f4;fill-opacity:1;" d="M 90.417969 36.394531 L 143.578125 36.394531 C 158.804688 36.816406 158.804688 59.050781 143.578125 59.523438 C 143.578125 59.523438 90.367188 59.523438 90.367188 59.523438 C 87.175781 59.523438 84.296875 58.214844 82.203125 56.121094 C 74.984375 49.371094 80.371094 36.082031 90.417969 36.394531 Z M 143.578125 43.878906 L 90.417969 43.878906 C 85.132812 43.929688 85.082031 51.988281 90.417969 52.039062 C 90.417969 52.039062 143.632812 52.039062 143.632812 52.039062 C 148.917969 51.988281 148.917969 43.929688 143.578125 43.878906 Z M 143.578125 43.878906 "/><path style=" stroke:none;fill-rule:evenodd;fill:#00a6f4;fill-opacity:1;" d="M 87.488281 75.011719 L 111.503906 75.011719 C 113.859375 75.011719 116.058594 76.003906 117.625 77.523438 C 119.195312 79.09375 120.136719 81.238281 120.136719 83.644531 L 120.136719 107.660156 C 120.136719 112.421875 116.265625 116.292969 111.503906 116.292969 L 87.488281 116.292969 C 82.726562 116.292969 78.855469 112.371094 78.855469 107.660156 L 78.855469 83.644531 C 78.855469 78.933594 82.726562 75.011719 87.488281 75.011719 Z M 111.503906 82.492188 L 87.488281 82.492188 C 87.175781 82.492188 86.914062 82.597656 86.703125 82.808594 C 86.492188 83.015625 86.390625 83.277344 86.390625 83.59375 L 86.390625 107.609375 C 86.390625 108.238281 86.914062 108.757812 87.539062 108.757812 L 111.558594 108.757812 C 112.183594 108.757812 112.707031 108.238281 112.707031 107.609375 L 112.707031 83.59375 C 112.65625 83.015625 112.132812 82.492188 111.503906 82.492188 Z M 111.503906 82.492188 "/><path style=" stroke:none;fill-rule:evenodd;fill:#00a6f4;fill-opacity:1;" d="M 131.648438 99.132812 C 126.785156 99.132812 126.730469 91.648438 131.648438 91.648438 C 131.648438 91.648438 218.453125 91.648438 218.453125 91.648438 C 223.320312 91.648438 223.371094 99.132812 218.453125 99.132812 C 218.453125 99.132812 131.648438 99.132812 131.648438 99.132812 Z M 131.648438 99.132812 "/><path style=" stroke:none;fill-rule:evenodd;fill:#00a6f4;fill-opacity:1;" d="M 131.648438 115.769531 C 126.785156 115.769531 126.730469 108.289062 131.648438 108.289062 L 175.078125 108.289062 C 179.945312 108.289062 179.996094 115.769531 175.078125 115.769531 Z M 131.648438 115.769531 "/><path style=" stroke:none;fill-rule:evenodd;fill:#00a6f4;fill-opacity:1;" d="M 131.648438 82.492188 C 126.785156 82.492188 126.730469 75.011719 131.648438 75.011719 C 131.648438 75.011719 218.453125 75.011719 218.453125 75.011719 C 223.320312 75.011719 223.371094 82.492188 218.453125 82.492188 C 218.453125 82.492188 131.648438 82.492188 131.648438 82.492188 Z M 131.648438 82.492188 "/><path style=" stroke:none;fill-rule:evenodd;fill:#00a6f4;fill-opacity:1;" d="M 131.648438 132.410156 C 126.785156 132.410156 126.730469 124.925781 131.648438 124.925781 L 182.925781 124.925781 C 187.792969 124.925781 187.84375 132.410156 182.925781 132.410156 Z M 131.648438 132.410156 "/><path style=" stroke:none;fill-rule:evenodd;fill:#00a6f4;fill-opacity:1;" d="M 87.488281 124.925781 L 111.503906 124.925781 C 113.859375 124.925781 116.058594 125.921875 117.625 127.492188 C 119.195312 129.0625 120.136719 131.207031 120.136719 133.5625 L 120.136719 157.578125 C 120.136719 162.285156 116.214844 166.210938 111.503906 166.210938 L 87.488281 166.210938 C 82.726562 166.210938 78.855469 162.339844 78.855469 157.578125 L 78.855469 133.5625 C 78.855469 128.800781 82.726562 124.925781 87.488281 124.925781 Z M 111.503906 132.410156 L 87.488281 132.410156 C 87.175781 132.410156 86.914062 132.515625 86.703125 132.722656 C 86.492188 132.933594 86.390625 133.195312 86.390625 133.507812 L 86.390625 157.523438 C 86.390625 158.152344 86.914062 158.675781 87.539062 158.675781 L 111.558594 158.675781 C 112.183594 158.675781 112.707031 158.207031 112.707031 157.523438 L 112.707031 133.5625 C 112.65625 132.882812 112.183594 132.410156 111.503906 132.410156 Z M 111.503906 132.410156 "/><path style=" stroke:none;fill-rule:evenodd;fill:#00a6f4;fill-opacity:1;" d="M 131.648438 149.050781 C 126.785156 149.050781 126.730469 141.566406 131.648438 141.566406 L 166.234375 141.566406 C 171.101562 141.566406 171.152344 149.050781 166.234375 149.050781 Z M 131.648438 149.050781 "/><path style=" stroke:none;fill-rule:evenodd;fill:#00a6f4;fill-opacity:1;" d="M 131.648438 165.636719 C 126.785156 165.636719 126.730469 158.152344 131.648438 158.152344 L 169.324219 158.152344 C 174.1875 158.152344 174.242188 165.636719 169.324219 165.636719 Z M 131.648438 165.636719 "/><path style=" stroke:none;fill-rule:evenodd;fill:#00a6f4;fill-opacity:1;" d="M 82.570312 182.273438 C 77.703125 182.273438 77.652344 174.792969 82.570312 174.792969 C 82.570312 174.792969 166.707031 174.792969 166.707031 174.792969 C 171.574219 174.792969 171.625 182.273438 166.707031 182.273438 C 166.757812 182.273438 82.570312 182.273438 82.570312 182.273438 Z M 82.570312 182.273438 "/><path style=" stroke:none;fill-rule:evenodd;fill:#00a6f4;fill-opacity:1;" d="M 82.570312 198.914062 C 77.703125 198.914062 77.652344 191.429688 82.570312 191.429688 C 82.570312 191.429688 167.753906 191.429688 167.753906 191.429688 C 172.617188 191.429688 172.671875 198.914062 167.753906 198.914062 C 167.753906 198.914062 82.570312 198.914062 82.570312 198.914062 Z M 82.570312 198.914062 "/><path style=" stroke:none;fill-rule:evenodd;fill:#00a6f4;fill-opacity:1;" d="M 146.457031 50.835938 Z M 146.457031 45.082031 Z M 90.417969 52.039062 L 143.578125 52.039062 C 144.679688 52.039062 145.722656 51.570312 146.457031 50.835938 C 148.96875 48.484375 147.136719 43.773438 143.578125 43.878906 L 90.417969 43.878906 C 85.082031 43.929688 85.082031 51.988281 90.417969 52.039062 Z M 90.417969 52.039062 "/><path style=" stroke:none;fill-rule:evenodd;fill:#00a6f4;fill-opacity:1;" d="M 196.113281 36.761719 C 196.113281 43.667969 201.761719 49.320312 208.671875 49.320312 L 231.324219 49.320312 L 196.058594 14.054688 L 196.058594 36.761719 Z M 196.113281 36.761719 "/><path style=" stroke:none;fill-rule:evenodd;fill:#00a6f4;fill-opacity:1;" d="M 276.117188 169.035156 C 274.648438 216.285156 206.054688 216.285156 204.589844 169.035156 C 206.105469 121.789062 274.648438 121.789062 276.117188 169.035156 Z M 240.378906 112.265625 C 235.40625 113.257812 230.804688 122.3125 225.257812 123.671875 C 220.179688 125.871094 211.234375 121.472656 206.839844 123.253906 C 205.582031 124.144531 205.214844 127.335938 204.796875 130.527344 C 204.328125 134.242188 203.855469 138.007812 201.761719 140.886719 C 199.671875 143.710938 196.269531 145.28125 192.867188 146.902344 C 185.230469 150.253906 184.96875 151.246094 188.996094 158.625 C 193.445312 165.6875 193.546875 172.4375 189.101562 179.5 C 187.636719 182.378906 185.910156 185.570312 186.484375 187.089844 C 189.046875 191.117188 198.9375 192.632812 201.761719 197.34375 C 205.375 201.425781 203.855469 211.3125 206.839844 214.925781 C 212.175781 216.652344 219.710938 212.257812 225.257812 214.507812 C 230.804688 215.8125 235.460938 224.917969 240.378906 225.914062 C 245.347656 224.917969 249.953125 215.867188 255.5 214.507812 C 260.992188 212.257812 268.582031 216.652344 273.917969 214.925781 C 276.847656 211.261719 275.332031 201.425781 278.992188 197.34375 C 281.820312 192.632812 291.761719 191.066406 294.273438 187.089844 C 294.792969 185.519531 293.277344 182.640625 291.761719 179.660156 C 287.207031 172.488281 287.261719 165.6875 291.761719 158.570312 C 295.738281 151.296875 295.527344 150.199219 287.835938 146.902344 C 284.433594 145.332031 281.035156 143.765625 278.941406 140.886719 C 276.847656 138.007812 276.378906 134.292969 275.90625 130.527344 C 275.539062 127.335938 275.121094 124.195312 273.867188 123.253906 C 269.46875 121.527344 260.523438 125.921875 255.449219 123.671875 C 249.953125 122.3125 245.296875 113.207031 240.378906 112.265625 Z M 240.378906 112.265625 "/></g></svg>