<svg xmlns="http://www.w3.org/2000/svg" xmlns:xlink="http://www.w3.org/1999/xlink" width="480" zoomAndPan="magnify" viewBox="0 0 360 269.999989" height="360" preserveAspectRatio="xMidYMid meet" version="1.2"><defs><clipPath id="7721b476bf"><path d="M 90 57 L 269 57 L 269 266.925781 L 90 266.925781 Z M 90 57 "/></clipPath></defs><g id="dfe1aa4513"><path style=" stroke:none;fill-rule:nonzero;fill:#00a6f4;fill-opacity:1;" d="M 342.875 246.289062 C 342.144531 246.289062 341.414062 246.242188 340.675781 246.144531 L 263.65625 235.871094 C 261.410156 235.570312 259.726562 233.652344 259.726562 231.378906 L 259.726562 92.292969 C 259.726562 90.019531 261.410156 88.101562 263.65625 87.800781 L 340.667969 77.53125 C 345.445312 76.882812 350.21875 78.339844 353.828125 81.496094 C 357.4375 84.65625 359.5 89.214844 359.5 94.007812 L 359.5 229.660156 C 359.5 234.457031 357.433594 239.015625 353.828125 242.171875 C 350.78125 244.84375 346.878906 246.289062 342.875 246.289062 Z M 268.796875 227.410156 L 341.878906 237.152344 C 344.050781 237.457031 346.195312 236.800781 347.851562 235.34375 C 349.515625 233.886719 350.433594 231.867188 350.433594 229.660156 L 350.433594 94.007812 C 350.433594 91.800781 349.523438 89.78125 347.851562 88.324219 C 346.183594 86.867188 344.042969 86.226562 341.878906 86.515625 L 268.796875 96.257812 Z M 268.796875 227.410156 "/><g clip-rule="nonzero" clip-path="url(#7721b476bf)"><path style=" stroke:none;fill-rule:nonzero;fill:#00a6f4;fill-opacity:1;" d="M 246.121094 266.148438 L 113.082031 266.148438 C 100.582031 266.148438 90.40625 255.972656 90.40625 243.472656 L 90.40625 80.199219 C 90.40625 67.699219 100.582031 57.519531 113.082031 57.519531 L 148.21875 57.519531 C 149.855469 57.519531 151.363281 58.402344 152.160156 59.820312 C 153.503906 62.1875 155.136719 64.316406 157.167969 66.351562 C 163.125 72.359375 171.085938 75.664062 179.601562 75.664062 C 188.117188 75.664062 196.082031 72.359375 202.023438 66.363281 C 204.070312 64.316406 205.703125 62.1875 207.042969 59.820312 C 207.847656 58.402344 209.355469 57.519531 210.988281 57.519531 L 246.121094 57.519531 C 258.621094 57.519531 268.796875 67.699219 268.796875 80.199219 L 268.796875 243.472656 C 268.796875 255.972656 258.621094 266.148438 246.121094 266.148438 Z M 113.082031 66.589844 C 105.585938 66.589844 99.476562 72.699219 99.476562 80.199219 L 99.476562 243.472656 C 99.476562 250.972656 105.585938 257.078125 113.082031 257.078125 L 246.121094 257.078125 C 253.621094 257.078125 259.726562 250.972656 259.726562 243.472656 L 259.726562 80.199219 C 259.726562 72.699219 253.621094 66.589844 246.121094 66.589844 L 213.519531 66.589844 C 212.0625 68.773438 210.371094 70.84375 208.445312 72.765625 C 200.808594 80.476562 190.558594 84.734375 179.601562 84.734375 C 168.644531 84.734375 158.394531 80.476562 150.738281 72.753906 C 148.839844 70.847656 147.132812 68.78125 145.683594 66.589844 Z M 113.082031 66.589844 "/></g><path style=" stroke:none;fill-rule:nonzero;fill:#00a6f4;fill-opacity:1;" d="M 179.601562 84.734375 C 157.09375 84.734375 138.785156 66.421875 138.785156 43.914062 C 138.785156 21.40625 157.09375 3.097656 179.601562 3.097656 C 202.109375 3.097656 220.421875 21.40625 220.421875 43.914062 C 220.421875 66.421875 202.109375 84.734375 179.601562 84.734375 Z M 179.601562 12.167969 C 162.09375 12.167969 147.855469 26.40625 147.855469 43.914062 C 147.855469 61.421875 162.09375 75.664062 179.601562 75.664062 C 197.109375 75.664062 211.347656 61.421875 211.347656 43.914062 C 211.347656 26.40625 197.109375 12.167969 179.601562 12.167969 Z M 179.601562 12.167969 "/><path style=" stroke:none;fill-rule:nonzero;fill:#00a6f4;fill-opacity:1;" d="M 212.8125 187.535156 L 146.390625 187.535156 C 143.886719 187.535156 141.855469 185.503906 141.855469 183 L 141.855469 173.882812 C 141.855469 153.066406 158.789062 136.132812 179.601562 136.132812 C 200.417969 136.132812 217.347656 153.066406 217.347656 173.882812 L 217.347656 183 C 217.347656 185.503906 215.316406 187.535156 212.8125 187.535156 Z M 150.925781 178.464844 L 208.277344 178.464844 L 208.277344 173.882812 C 208.277344 158.066406 195.414062 145.207031 179.601562 145.207031 C 163.789062 145.207031 150.925781 158.066406 150.925781 173.882812 Z M 150.925781 178.464844 "/><path style=" stroke:none;fill-rule:nonzero;fill:#00a6f4;fill-opacity:1;" d="M 179.601562 145.207031 C 165.425781 145.207031 153.902344 133.679688 153.902344 119.503906 C 153.902344 105.328125 165.425781 93.804688 179.601562 93.804688 C 193.777344 93.804688 205.300781 105.328125 205.300781 119.503906 C 205.300781 133.679688 193.777344 145.207031 179.601562 145.207031 Z M 179.601562 102.875 C 170.429688 102.875 162.972656 110.332031 162.972656 119.503906 C 162.972656 128.679688 170.429688 136.132812 179.601562 136.132812 C 188.777344 136.132812 196.230469 128.679688 196.230469 119.503906 C 196.230469 110.332031 188.777344 102.875 179.601562 102.875 Z M 179.601562 102.875 "/><path style=" stroke:none;fill-rule:nonzero;fill:#00a6f4;fill-opacity:1;" d="M 330.78125 205.675781 C 330.625 205.675781 330.460938 205.671875 330.304688 205.652344 L 273.371094 199.605469 C 271.058594 199.359375 269.3125 197.417969 269.3125 195.09375 L 269.3125 193.324219 C 269.3125 175.125 284.117188 160.324219 302.316406 160.324219 C 320.511719 160.324219 335.316406 175.125 335.316406 193.324219 L 335.316406 201.140625 C 335.316406 202.429688 334.773438 203.652344 333.816406 204.515625 C 332.976562 205.265625 331.902344 205.675781 330.78125 205.675781 Z M 278.496094 191.023438 L 326.246094 196.097656 L 326.246094 193.324219 C 326.246094 180.128906 315.511719 169.394531 302.316406 169.394531 C 289.890625 169.394531 279.652344 178.90625 278.496094 191.023438 Z M 278.496094 191.023438 "/><path style=" stroke:none;fill-rule:nonzero;fill:#00a6f4;fill-opacity:1;" d="M 302.316406 169.394531 C 289.816406 169.394531 279.640625 159.214844 279.640625 146.71875 C 279.640625 134.21875 289.816406 124.039062 302.316406 124.039062 C 314.816406 124.039062 324.996094 134.21875 324.996094 146.71875 C 324.996094 159.214844 314.816406 169.394531 302.316406 169.394531 Z M 302.316406 133.109375 C 294.820312 133.109375 288.710938 139.21875 288.710938 146.71875 C 288.710938 154.214844 294.820312 160.324219 302.316406 160.324219 C 309.816406 160.324219 315.921875 154.214844 315.921875 146.71875 C 315.921875 139.21875 309.816406 133.109375 302.316406 133.109375 Z M 302.316406 133.109375 "/><path style=" stroke:none;fill-rule:nonzero;fill:#00a6f4;fill-opacity:1;" d="M 16.328125 246.289062 C 12.324219 246.289062 8.421875 244.84375 5.371094 242.171875 C 1.757812 239.015625 -0.300781 234.457031 -0.300781 229.660156 L -0.300781 94.007812 C -0.300781 89.214844 1.765625 84.65625 5.371094 81.496094 C 8.984375 78.339844 13.75 76.867188 18.527344 77.53125 L 95.546875 87.800781 C 97.796875 88.101562 99.476562 90.019531 99.476562 92.292969 L 99.476562 231.378906 C 99.476562 233.652344 97.796875 235.570312 95.546875 235.871094 L 18.527344 246.140625 C 17.789062 246.242188 17.058594 246.289062 16.328125 246.289062 Z M 16.292969 86.449219 C 14.472656 86.449219 12.746094 87.089844 11.351562 88.324219 C 9.6875 89.78125 8.769531 91.800781 8.769531 94.007812 L 8.769531 229.660156 C 8.769531 231.867188 9.679688 233.886719 11.351562 235.34375 C 13.019531 236.800781 15.183594 237.449219 17.324219 237.152344 L 90.40625 227.410156 L 90.40625 96.257812 L 17.324219 86.515625 C 16.980469 86.46875 16.636719 86.449219 16.292969 86.449219 Z M 94.941406 231.378906 L 95 231.378906 Z M 94.941406 231.378906 "/><path style=" stroke:none;fill-rule:nonzero;fill:#00a6f4;fill-opacity:1;" d="M 30.796875 199.628906 C 29.679688 199.628906 28.601562 199.21875 27.761719 198.46875 C 26.800781 197.605469 26.261719 196.382812 26.261719 195.09375 L 26.261719 187.929688 C 26.261719 171.039062 39.996094 157.300781 56.886719 157.300781 C 73.777344 157.300781 87.515625 171.039062 87.515625 187.929688 L 87.515625 189.550781 C 87.515625 191.871094 85.765625 193.8125 83.457031 194.058594 L 31.269531 199.605469 C 31.113281 199.625 30.957031 199.628906 30.796875 199.628906 Z M 56.886719 166.371094 C 44.996094 166.371094 35.332031 176.046875 35.332031 187.929688 L 35.332031 190.050781 L 78.3125 185.484375 C 77.089844 174.746094 67.945312 166.371094 56.886719 166.371094 Z M 56.886719 166.371094 "/><path style=" stroke:none;fill-rule:nonzero;fill:#00a6f4;fill-opacity:1;" d="M 56.886719 166.371094 C 45.214844 166.371094 35.722656 156.875 35.722656 145.207031 C 35.722656 133.535156 45.214844 124.039062 56.886719 124.039062 C 68.558594 124.039062 78.050781 133.535156 78.050781 145.207031 C 78.050781 156.875 68.558594 166.371094 56.886719 166.371094 Z M 56.886719 133.109375 C 50.214844 133.109375 44.792969 138.535156 44.792969 145.207031 C 44.792969 151.875 50.214844 157.300781 56.886719 157.300781 C 63.554688 157.300781 68.980469 151.875 68.980469 145.207031 C 68.980469 138.535156 63.554688 133.109375 56.886719 133.109375 Z M 56.886719 133.109375 "/><path style=" stroke:none;fill-rule:nonzero;fill:#00a6f4;fill-opacity:1;" d="M 173.554688 60.542969 C 172.394531 60.542969 171.234375 60.101562 170.347656 59.214844 L 158.253906 47.121094 C 156.484375 45.347656 156.484375 42.476562 158.253906 40.703125 C 160.027344 38.933594 162.898438 38.933594 164.671875 40.703125 L 173.5625 49.59375 L 194.542969 28.609375 C 196.316406 26.835938 199.1875 26.835938 200.960938 28.609375 C 202.730469 30.382812 202.730469 33.253906 200.960938 35.023438 L 176.773438 59.214844 C 175.875 60.101562 174.714844 60.542969 173.554688 60.542969 Z M 173.554688 60.542969 "/><path style=" stroke:none;fill-rule:nonzero;fill:#00a6f4;fill-opacity:1;" d="M 227.980469 211.722656 L 131.222656 211.722656 C 128.71875 211.722656 126.6875 209.691406 126.6875 207.1875 C 126.6875 204.683594 128.71875 202.652344 131.222656 202.652344 L 227.980469 202.652344 C 230.484375 202.652344 232.515625 204.683594 232.515625 207.1875 C 232.515625 209.691406 230.484375 211.722656 227.980469 211.722656 Z M 227.980469 211.722656 "/><path style=" stroke:none;fill-rule:nonzero;fill:#00a6f4;fill-opacity:1;" d="M 227.980469 235.914062 L 131.222656 235.914062 C 128.71875 235.914062 126.6875 233.882812 126.6875 231.378906 C 126.6875 228.875 128.71875 226.84375 131.222656 226.84375 L 227.980469 226.84375 C 230.484375 226.84375 232.515625 228.875 232.515625 231.378906 C 232.515625 233.882812 230.484375 235.914062 227.980469 235.914062 Z M 227.980469 235.914062 "/></g></svg>