<svg xmlns="http://www.w3.org/2000/svg" xmlns:xlink="http://www.w3.org/1999/xlink" width="480" zoomAndPan="magnify" viewBox="0 0 360 269.999989" height="360" preserveAspectRatio="xMidYMid meet" version="1.2"><defs><clipPath id="7deb9d69e4"><path d="M 48 2 L 313.6875 2 L 313.6875 268 L 48 268 Z M 48 2 "/></clipPath></defs><g id="e0fe730b23"><g clip-rule="nonzero" clip-path="url(#7deb9d69e4)"><path style=" stroke:none;fill-rule:nonzero;fill:#00a6f4;fill-opacity:1;" d="M 305.777344 134.882812 C 305.707031 160.84375 297.644531 186.207031 282.605469 207.382812 C 268.167969 227.714844 247.402344 243.609375 223.976562 252.160156 C 199.242188 261.179688 171.933594 262.222656 146.601562 255.023438 C 122.328125 248.117188 100.597656 233.75 84.492188 214.347656 C 68.214844 194.734375 58.226562 169.988281 56.335938 144.574219 C 54.402344 118.632812 60.492188 92.527344 73.972656 70.257812 C 86.976562 48.769531 106.40625 31.5625 129.234375 21.101562 C 152.9375 10.242188 180.199219 7.238281 205.730469 12.441406 C 230.671875 17.527344 253.644531 30.242188 271.234375 48.648438 C 288.800781 67.027344 300.378906 90.570312 304.332031 115.671875 C 305.335938 122.019531 305.761719 128.457031 305.777344 134.875 C 305.789062 139.648438 313.207031 139.65625 313.191406 134.875 C 313.117188 107.601562 304.691406 80.59375 288.820312 58.363281 C 273.253906 36.570312 251.398438 19.808594 226.253906 10.558594 C 200.28125 1.003906 171.234375 0.015625 144.632812 7.582031 C 119.011719 14.871094 95.746094 30.074219 78.832031 50.664062 C 61.605469 71.636719 51.128906 97.441406 48.96875 124.5 C 46.785156 151.871094 53.34375 179.75 67.566406 203.246094 C 81.296875 225.929688 101.902344 244.398438 126.085938 255.332031 C 151.472656 266.8125 180.042969 270.03125 207.367188 264.53125 C 233.59375 259.253906 257.996094 245.6875 276.472656 226.355469 C 295.019531 206.953125 307.539062 181.945312 311.585938 155.386719 C 312.617188 148.59375 313.171875 141.753906 313.191406 134.875 C 313.207031 130.105469 305.789062 130.097656 305.777344 134.875 Z M 305.777344 134.882812 "/></g><path style=" stroke:none;fill-rule:nonzero;fill:#00a6f4;fill-opacity:1;" d="M 255.886719 137.199219 C 254.878906 129.558594 253.875 121.921875 252.859375 114.277344 C 252.292969 110.03125 250.238281 105.78125 245.621094 104.929688 C 240.921875 104.066406 237.214844 107.039062 235.902344 111.429688 C 234.59375 115.820312 235.285156 121.308594 235.375 125.9375 L 235.527344 134.09375 C 235.539062 134.550781 235.589844 135.039062 235.539062 135.496094 C 235.378906 136.84375 234.152344 139.46875 233.6875 141.308594 C 233.164062 143.375 234.359375 145.160156 236.277344 145.871094 L 236.289062 145.871094 C 235.421875 144.351562 234.5625 142.835938 233.699219 141.3125 C 232.757812 144.796875 232.167969 148.414062 231.40625 151.945312 C 231.28125 152.515625 230.96875 153.300781 230.984375 153.886719 C 231.019531 155.078125 232.605469 152.238281 231.648438 152.785156 C 230.628906 153.367188 229.695312 154.464844 228.808594 155.226562 C 223.164062 160.09375 217.515625 164.960938 211.867188 169.824219 C 213.933594 171.027344 216 172.226562 218.066406 173.433594 C 218.601562 171.996094 219.136719 170.5625 219.667969 169.125 C 219.992188 168.257812 220.300781 167.394531 220.628906 166.53125 C 220.710938 166.316406 220.78125 166.089844 220.875 165.871094 C 220.929688 165.746094 221.058594 165.550781 220.820312 166.066406 C 220.996094 165.691406 221.1875 165.320312 221.363281 164.945312 C 224.507812 158.496094 228.847656 151.855469 229.519531 144.554688 C 229.832031 141.1875 228.691406 138.421875 226.066406 136.371094 C 223.21875 134.144531 219.917969 134.121094 216.96875 136.160156 C 214.023438 138.203125 212.101562 141.179688 210.277344 144.191406 C 206.21875 150.890625 202.164062 157.601562 198.105469 164.304688 C 197.445312 165.402344 196.773438 166.492188 196.113281 167.597656 C 195.972656 167.839844 195.8125 168.074219 195.675781 168.316406 C 195.65625 168.351562 195.628906 168.386719 195.609375 168.421875 C 195.542969 168.550781 195.332031 168.929688 195.265625 169.0625 L 194.890625 169.949219 C 195.441406 169.125 195.492188 169.015625 195.046875 169.617188 C 194.175781 170.90625 193.523438 172.351562 192.8125 173.738281 C 192.566406 174.21875 192.304688 174.695312 192.070312 175.1875 C 191.878906 175.597656 191.734375 176.003906 191.5625 176.414062 C 191.484375 176.601562 192.011719 175.347656 191.863281 175.699219 C 191.550781 176.445312 191.210938 177.179688 190.9375 177.941406 C 189.550781 181.851562 189.621094 186.433594 189.164062 190.566406 C 188.792969 193.953125 188.441406 197.347656 188.0625 200.734375 C 187.820312 202.878906 189.96875 204.234375 191.769531 204.441406 C 201.855469 205.597656 211.9375 206.757812 222.023438 207.90625 C 224.167969 208.15625 225.527344 206 225.730469 204.199219 C 225.824219 203.359375 225.921875 202.519531 226.011719 201.675781 C 226.140625 200.410156 225.75 202.199219 226.050781 201.53125 C 226.722656 200.0625 226.980469 198.25 227.421875 196.695312 C 227.644531 195.921875 227.890625 195.144531 228.082031 194.359375 C 228.140625 194.125 228.222656 193.894531 228.28125 193.660156 C 228.035156 194.644531 228.148438 193.9375 228.398438 193.398438 C 228.882812 192.371094 229.363281 191.34375 229.90625 190.347656 C 230.132812 189.933594 230.367188 189.515625 230.632812 189.125 C 230.015625 190.023438 230.785156 188.996094 230.945312 188.8125 C 232.433594 187.117188 232.441406 184.144531 230.195312 182.988281 L 230.140625 182.960938 L 230.890625 188.78125 C 235.664062 184.660156 240.570312 180.652344 245.230469 176.398438 C 250.296875 171.777344 250.839844 164.625 252.1875 158.289062 C 253.050781 154.222656 253.808594 150.136719 254.597656 146.058594 C 254.953125 144.214844 255.335938 142.375 255.625 140.515625 C 255.558594 140.964844 255.542969 141.3125 255.726562 140.214844 C 255.894531 139.191406 255.949219 138.222656 255.859375 137.191406 C 255.464844 132.46875 248.046875 132.425781 248.445312 137.191406 C 248.671875 139.910156 247.703125 142.757812 247.195312 145.402344 C 246.4375 149.339844 245.691406 153.28125 244.84375 157.199219 C 244.191406 160.210938 243.53125 163.214844 242.90625 166.230469 C 242.460938 168.386719 241.355469 169.9375 239.738281 171.367188 C 235.085938 175.46875 230.347656 179.480469 225.652344 183.53125 C 223.894531 185.050781 224.378906 188.3125 226.402344 189.355469 L 226.457031 189.386719 L 225.707031 183.5625 C 220.921875 189.015625 219.097656 197.152344 218.308594 204.195312 L 222.015625 200.488281 C 211.933594 199.332031 201.847656 198.175781 191.765625 197.023438 L 195.472656 200.730469 C 196.039062 195.664062 196.796875 190.558594 197.125 185.46875 C 197.257812 183.355469 197.492188 181.390625 198.285156 179.390625 C 198.902344 177.828125 198.636719 178.585938 198.566406 178.726562 C 198.980469 177.882812 199.425781 177.050781 199.851562 176.210938 C 201.027344 173.910156 201.28125 173.339844 202.601562 171.160156 C 206.136719 165.316406 209.675781 159.46875 213.207031 153.625 C 214.628906 151.28125 216.035156 148.933594 217.460938 146.597656 C 217.871094 145.917969 218.265625 145.222656 218.746094 144.59375 C 219.453125 143.675781 220.300781 142.84375 221.246094 142.175781 C 222.546875 141.257812 221.375 142.074219 221.425781 142.113281 C 221.710938 142.316406 222.207031 143.140625 222.0625 142.722656 C 222.546875 144.15625 221.722656 146.136719 221.28125 147.472656 C 220.632812 149.449219 219.871094 151.371094 218.921875 153.222656 C 217.476562 156.054688 216.050781 158.902344 214.65625 161.757812 C 213.140625 164.867188 212.085938 168.207031 210.886719 171.445312 C 209.488281 175.214844 214.546875 177.238281 217.085938 175.054688 C 222.863281 170.074219 228.644531 165.09375 234.425781 160.113281 C 235.269531 159.386719 236.21875 158.699219 237 157.890625 C 238.058594 156.804688 238.1875 155.484375 238.488281 154.082031 C 239.257812 150.492188 239.863281 146.8125 240.816406 143.269531 C 241.371094 141.214844 240.121094 139.410156 238.226562 138.707031 L 238.214844 138.707031 C 239.082031 140.226562 239.941406 141.742188 240.808594 143.265625 C 241.503906 140.496094 242.867188 137.964844 242.925781 135.0625 C 242.953125 133.726562 242.878906 132.375 242.851562 131.039062 C 242.769531 126.671875 242.730469 122.296875 242.601562 117.925781 C 242.558594 116.417969 242.195312 113.363281 243.480469 112.300781 C 243.871094 111.980469 244.386719 112.207031 244.824219 112.734375 C 245.226562 113.21875 245.304688 113.980469 245.429688 114.570312 C 245.304688 114 245.414062 114.390625 245.4375 114.535156 C 246.078125 118.234375 246.425781 122.007812 246.917969 125.726562 C 247.40625 129.445312 247.925781 133.367188 248.429688 137.183594 C 248.691406 139.167969 249.945312 140.890625 252.136719 140.890625 C 253.9375 140.890625 256.105469 139.183594 255.84375 137.183594 Z M 255.886719 137.199219 "/><path style=" stroke:none;fill-rule:nonzero;fill:#00a6f4;fill-opacity:1;" d="M 217.582031 216.015625 C 210.375 215.210938 203.175781 214.410156 195.964844 213.601562 C 195.304688 213.527344 193.4375 212.953125 192.804688 213.25 C 193.707031 212.832031 193.644531 214.324219 194.09375 213.628906 C 194.355469 213.222656 194.261719 212.09375 194.3125 211.621094 C 194.707031 207.960938 195.105469 204.304688 195.503906 200.644531 L 191.792969 204.355469 C 201.878906 205.464844 211.96875 206.578125 222.050781 207.695312 L 218.34375 203.988281 C 218.253906 206.132812 217.878906 208.296875 217.617188 210.429688 C 217.46875 211.644531 217.316406 212.859375 217.171875 214.078125 C 217.125 214.488281 216.796875 215.558594 216.957031 215.929688 C 217.371094 216.910156 216.503906 216.015625 217.578125 216.011719 C 212.808594 216.035156 212.796875 223.449219 217.578125 223.425781 C 222.210938 223.398438 223.90625 220.003906 224.371094 215.929688 C 224.835938 211.859375 225.589844 207.960938 225.757812 203.984375 C 225.847656 201.824219 223.976562 200.488281 222.050781 200.277344 C 211.96875 199.164062 201.878906 198.050781 191.792969 196.933594 C 189.652344 196.695312 188.285156 198.835938 188.085938 200.640625 C 187.761719 203.660156 187.429688 206.683594 187.101562 209.699219 C 186.683594 213.578125 185.921875 217.863281 190.222656 220 C 192.34375 221.050781 195.515625 220.957031 197.824219 221.214844 C 201.765625 221.65625 205.710938 222.09375 209.648438 222.535156 C 212.292969 222.832031 214.9375 223.125 217.582031 223.417969 C 219.574219 223.640625 221.289062 221.554688 221.289062 219.710938 C 221.289062 217.523438 219.582031 216.226562 217.582031 216.003906 Z M 217.582031 216.015625 "/><path style=" stroke:none;fill-rule:nonzero;fill:#00a6f4;fill-opacity:1;" d="M 113.269531 137.199219 C 114.238281 129.863281 115.179688 122.523438 116.179688 115.1875 C 116.21875 114.890625 116.242188 114.585938 116.296875 114.292969 C 116.144531 115.113281 116.5625 113.347656 116.667969 113.144531 C 116.894531 112.695312 117.03125 112.34375 117.503906 112.183594 C 119.183594 111.605469 119.144531 116.289062 119.113281 117.351562 C 119.011719 121.253906 118.964844 125.15625 118.890625 129.058594 C 118.855469 130.984375 118.789062 132.917969 118.78125 134.847656 C 118.773438 137.835938 120.183594 140.425781 120.898438 143.273438 L 123.488281 138.710938 L 123.480469 138.710938 C 121.589844 139.414062 120.332031 141.199219 120.890625 143.273438 C 121.828125 146.761719 122.421875 150.378906 123.183594 153.90625 C 123.492188 155.355469 123.621094 156.78125 124.710938 157.898438 C 125.492188 158.699219 126.441406 159.386719 127.285156 160.117188 C 133.0625 165.097656 138.847656 170.078125 144.625 175.058594 C 147.160156 177.246094 152.222656 175.226562 150.824219 171.453125 C 149.871094 168.890625 148.992188 166.285156 147.96875 163.753906 C 145.613281 157.9375 141.976562 152.726562 140.175781 146.667969 C 139.839844 145.527344 139.246094 143.921875 139.652344 142.722656 C 139.5 143.171875 140.804688 141.847656 139.929688 141.875 C 141.359375 141.828125 143.210938 144.894531 143.84375 145.90625 C 144.980469 147.71875 146.058594 149.566406 147.167969 151.398438 C 150.894531 157.5625 154.625 163.71875 158.355469 169.882812 C 158.75 170.542969 159.167969 171.183594 159.542969 171.851562 C 159.605469 171.957031 159.671875 172.054688 159.734375 172.160156 C 160.113281 172.863281 160.523438 173.519531 160.914062 174.210938 C 160.40625 173.304688 160.914062 174.3125 160.953125 174.402344 C 161.570312 175.792969 162.316406 177.164062 163.050781 178.5 C 163.160156 178.691406 163.496094 179.433594 163.023438 178.375 C 163.152344 178.660156 163.292969 179.015625 163.40625 179.300781 C 163.84375 180.417969 164.203125 181.566406 164.402344 182.757812 C 165.398438 188.640625 165.59375 194.792969 166.257812 200.730469 L 169.964844 197.023438 C 159.882812 198.179688 149.796875 199.335938 139.710938 200.488281 L 143.421875 204.195312 C 142.632812 197.152344 140.816406 189.015625 136.023438 183.5625 L 135.273438 189.386719 L 135.328125 189.355469 C 137.351562 188.3125 137.835938 185.050781 136.078125 183.53125 C 131.382812 179.480469 126.644531 175.46875 121.992188 171.367188 C 120.382812 169.949219 119.265625 168.363281 118.824219 166.230469 C 118.195312 163.222656 117.539062 160.214844 116.882812 157.199219 C 116.070312 153.421875 115.347656 149.628906 114.621094 145.835938 C 114.085938 143.058594 113.046875 140.039062 113.285156 137.183594 C 113.679688 132.429688 106.265625 132.453125 105.871094 137.183594 C 105.785156 138.21875 105.835938 139.1875 106.003906 140.210938 C 106.144531 141.054688 106.222656 141.214844 106.09375 140.433594 C 106.398438 142.3125 106.765625 144.179688 107.132812 146.054688 C 107.921875 150.132812 108.683594 154.21875 109.542969 158.28125 C 110.886719 164.613281 111.433594 171.78125 116.5 176.394531 C 121.164062 180.640625 126.0625 184.65625 130.839844 188.777344 L 131.589844 182.953125 L 131.535156 182.984375 C 129.289062 184.140625 129.296875 187.113281 130.785156 188.808594 C 130.867188 188.902344 131.601562 189.800781 131.234375 189.296875 C 130.894531 188.828125 131.75 190.203125 131.828125 190.347656 C 132.371094 191.34375 132.859375 192.371094 133.335938 193.398438 C 134.027344 194.882812 133.335938 192.933594 133.613281 194.226562 C 133.796875 195.054688 134.082031 195.875 134.316406 196.695312 C 134.753906 198.25 135.015625 200.0625 135.683594 201.53125 C 136.011719 202.246094 135.578125 200.304688 135.722656 201.675781 C 135.8125 202.515625 135.910156 203.355469 136.003906 204.199219 C 136.207031 206.007812 137.546875 208.15625 139.710938 207.90625 C 149.796875 206.75 159.882812 205.59375 169.964844 204.441406 C 171.78125 204.234375 173.914062 202.90625 173.671875 200.734375 C 173.023438 194.953125 172.5 189.148438 171.914062 183.363281 C 171.738281 181.644531 171.457031 179.925781 170.910156 178.28125 C 170.65625 177.527344 170.339844 176.800781 170.03125 176.070312 C 169.53125 174.90625 170.667969 177.421875 169.851562 175.628906 C 169.144531 174.070312 168.34375 172.550781 167.542969 171.035156 C 167.359375 170.691406 167.1875 170.324219 166.980469 169.988281 C 165.855469 168.179688 166.6875 169.613281 166.847656 169.945312 C 166.652344 169.546875 166.511719 169.132812 166.300781 168.738281 C 166.222656 168.589844 166.160156 168.476562 166.085938 168.335938 C 165.695312 167.628906 165.246094 166.953125 164.828125 166.261719 C 160.769531 159.558594 156.71875 152.851562 152.660156 146.148438 C 151.324219 143.945312 150.074219 141.679688 148.460938 139.667969 C 146.480469 137.195312 143.628906 134.59375 140.265625 134.535156 C 137.511719 134.492188 134.28125 136.792969 133.082031 139.222656 C 131.164062 143.117188 132.59375 147.703125 134.023438 151.503906 C 135.453125 155.308594 137.511719 159.101562 139.367188 162.875 C 140.542969 165.273438 140.828125 165.761719 141.746094 168.21875 C 142.386719 169.953125 143.035156 171.6875 143.675781 173.421875 C 145.742188 172.222656 147.808594 171.019531 149.875 169.816406 C 144.230469 164.949219 138.582031 160.082031 132.933594 155.21875 C 132.054688 154.460938 131.117188 153.355469 130.097656 152.777344 C 129.140625 152.226562 130.722656 155.070312 130.761719 153.878906 C 130.78125 153.28125 130.46875 152.515625 130.339844 151.933594 C 129.578125 148.40625 128.984375 144.789062 128.046875 141.300781 L 125.457031 145.863281 L 125.464844 145.863281 C 127.375 145.152344 128.582031 143.386719 128.054688 141.300781 C 127.433594 138.832031 126.191406 136.675781 126.210938 134.527344 C 126.230469 132.375 126.292969 130.25 126.335938 128.113281 C 126.421875 123.75 126.96875 119.09375 126.472656 114.742188 C 125.9375 110.011719 123.765625 105.296875 118.464844 104.820312 C 114.253906 104.445312 110.941406 107.15625 109.582031 111.003906 C 108.222656 114.855469 108.199219 119.570312 107.671875 123.5625 L 105.871094 137.191406 C 105.609375 139.175781 107.765625 140.898438 109.578125 140.898438 C 111.796875 140.898438 113.023438 139.183594 113.285156 137.191406 Z M 113.269531 137.199219 "/><path style=" stroke:none;fill-rule:nonzero;fill:#00a6f4;fill-opacity:1;" d="M 144.167969 223.429688 C 150.265625 222.746094 156.363281 222.070312 162.460938 221.386719 C 164.65625 221.140625 166.859375 220.921875 169.050781 220.652344 C 172.257812 220.257812 174.9375 217.996094 175.105469 214.601562 C 175.160156 213.484375 174.929688 212.328125 174.808594 211.226562 C 174.425781 207.699219 174.042969 204.171875 173.65625 200.644531 C 173.460938 198.828125 172.109375 196.703125 169.949219 196.9375 C 159.867188 198.050781 149.777344 199.164062 139.691406 200.28125 C 137.765625 200.492188 135.890625 201.808594 135.984375 203.988281 C 136.152344 207.96875 136.925781 211.980469 137.375 215.9375 C 137.824219 219.890625 139.519531 223.410156 144.167969 223.429688 C 148.8125 223.449219 148.945312 216.039062 144.167969 216.015625 C 144.152344 216.015625 144.84375 216.40625 144.84375 216.402344 C 144.714844 215.800781 144.699219 215.148438 144.625 214.535156 C 144.464844 213.167969 144.296875 211.796875 144.125 210.429688 C 143.863281 208.292969 143.488281 206.132812 143.398438 203.988281 L 139.691406 207.695312 C 149.777344 206.582031 159.867188 205.472656 169.949219 204.355469 L 166.242188 200.644531 C 166.636719 204.304688 167.039062 207.960938 167.433594 211.621094 C 167.484375 212.09375 167.386719 213.21875 167.652344 213.628906 C 168.101562 214.320312 168.039062 212.828125 168.941406 213.25 C 168.308594 212.960938 166.445312 213.527344 165.777344 213.601562 C 158.570312 214.410156 151.367188 215.210938 144.160156 216.015625 C 142.167969 216.238281 140.453125 217.5625 140.453125 219.722656 C 140.453125 221.554688 142.160156 223.652344 144.160156 223.429688 Z M 144.167969 223.429688 "/><path style=" stroke:none;fill-rule:nonzero;fill:#00a6f4;fill-opacity:1;" d="M 157.195312 95.425781 C 153.46875 100.734375 152.496094 106.605469 152.496094 112.949219 C 154.605469 112.074219 156.71875 111.199219 158.824219 110.328125 C 153.355469 104.457031 147.890625 98.582031 142.425781 92.714844 C 140.648438 90.800781 136.335938 87.105469 140.28125 84.738281 C 143.523438 82.792969 147.207031 88.566406 149.03125 90.527344 C 151.945312 93.65625 154.863281 96.789062 157.773438 99.917969 C 161.03125 103.417969 166.269531 98.167969 163.019531 94.671875 C 160.050781 91.484375 157.082031 88.296875 154.113281 85.109375 C 150.269531 80.984375 146.617188 75.972656 140.175781 77.039062 C 135.234375 77.855469 131.417969 82.25 131.347656 87.289062 C 131.308594 90.382812 132.625 93.003906 134.65625 95.246094 C 137.808594 98.730469 141.066406 102.132812 144.273438 105.578125 C 147.378906 108.910156 150.480469 112.242188 153.582031 115.574219 C 155.804688 117.957031 159.910156 116.085938 159.910156 112.953125 C 159.910156 107.847656 160.582031 103.472656 163.597656 99.171875 C 166.347656 95.257812 159.921875 91.550781 157.195312 95.429688 Z M 157.195312 95.425781 "/><path style=" stroke:none;fill-rule:nonzero;fill:#00a6f4;fill-opacity:1;" d="M 222.210938 89.609375 C 215.773438 96.527344 209.539062 103.714844 202.863281 110.390625 C 204.972656 111.265625 207.085938 112.140625 209.191406 113.011719 C 209.191406 106.664062 208.242188 100.792969 204.511719 95.464844 L 203.933594 99.957031 C 207.222656 96.429688 210.507812 92.898438 213.796875 89.363281 C 215.019531 88.054688 216.179688 86.621094 217.488281 85.394531 C 220.464844 82.617188 224.875 86.4375 222.210938 89.605469 C 219.15625 93.234375 224.375 98.507812 227.457031 94.851562 C 231.921875 89.535156 231.113281 81.292969 224.554688 77.984375 C 219.835938 75.605469 214.875 77.328125 211.480469 80.980469 C 207.21875 85.558594 202.957031 90.136719 198.695312 94.707031 C 197.648438 95.835938 197.164062 97.835938 198.117188 99.199219 C 201.128906 103.507812 201.78125 107.894531 201.78125 113.007812 C 201.78125 116.214844 205.839844 117.902344 208.105469 115.628906 C 214.785156 108.949219 221.019531 101.761719 227.457031 94.847656 C 230.703125 91.355469 225.472656 86.101562 222.210938 89.601562 Z M 222.210938 89.609375 "/><path style=" stroke:none;fill-rule:nonzero;fill:#00a6f4;fill-opacity:1;" d="M 201.773438 110.214844 L 201.773438 124.90625 C 201.773438 125.675781 201.335938 128.097656 201.773438 128.75 C 202.0625 129.171875 202.53125 128.261719 202.53125 128.265625 C 202.507812 128.222656 202.070312 128.277344 202.03125 128.265625 C 201.285156 128.039062 200.113281 128.265625 199.332031 128.265625 L 189.273438 128.265625 C 181.074219 128.265625 172.871094 128.265625 164.671875 128.265625 C 164.160156 128.265625 159.445312 127.832031 159.183594 128.265625 C 159.164062 128.296875 159.707031 129.0625 159.910156 128.859375 C 160.042969 128.726562 159.910156 127.695312 159.910156 127.519531 L 159.910156 122.484375 C 159.910156 118.503906 159.886719 114.519531 159.910156 110.535156 C 159.957031 103.328125 163.722656 97.1875 170.113281 93.867188 L 166.371094 93.867188 C 175.082031 99.804688 186.671875 99.808594 195.398438 93.910156 L 191.65625 93.910156 C 197.875 97.175781 201.640625 103.171875 201.773438 110.210938 C 201.863281 114.976562 209.277344 114.988281 209.191406 110.210938 C 209.011719 100.664062 203.90625 91.96875 195.398438 87.503906 C 194.269531 86.910156 192.773438 86.75 191.65625 87.503906 C 184.949219 92.039062 176.804688 92.023438 170.113281 87.460938 C 169 86.699219 167.5 86.871094 166.371094 87.460938 C 158.964844 91.316406 153.816406 98.566406 152.746094 106.863281 C 152.269531 110.582031 152.496094 114.417969 152.496094 118.152344 C 152.496094 121.890625 152.328125 125.359375 152.496094 128.941406 C 152.722656 133.71875 156.449219 135.683594 160.6875 135.683594 L 185.253906 135.683594 C 189.453125 135.683594 193.648438 135.683594 197.84375 135.683594 C 200.066406 135.683594 202.699219 136.007812 204.824219 135.246094 C 210.308594 133.289062 209.191406 126.589844 209.191406 122.015625 L 209.191406 110.210938 C 209.191406 105.4375 201.773438 105.429688 201.773438 110.210938 Z M 201.773438 110.214844 "/><path style=" stroke:none;fill-rule:nonzero;fill:#00a6f4;fill-opacity:1;" d="M 199.34375 72.355469 C 199.199219 80.726562 193.742188 88.257812 185.523438 90.402344 C 177.074219 92.605469 168.304688 88.355469 164.410156 80.644531 C 157.222656 66.425781 171.074219 49.957031 186.242188 54.515625 C 194.097656 56.878906 199.222656 64.273438 199.347656 72.355469 C 199.421875 77.121094 206.835938 77.132812 206.761719 72.355469 C 206.609375 62.269531 200.859375 52.808594 191.558594 48.636719 C 182.101562 44.398438 170.957031 46.21875 163.347656 53.261719 C 155.75 60.296875 153.050781 71.804688 156.730469 81.484375 C 160.835938 92.261719 171.769531 99.4375 183.367188 98.261719 C 196.691406 96.90625 206.535156 85.601562 206.757812 72.347656 C 206.835938 67.574219 199.421875 67.574219 199.34375 72.347656 Z M 199.34375 72.355469 "/></g></svg>