<svg xmlns="http://www.w3.org/2000/svg" xmlns:xlink="http://www.w3.org/1999/xlink" width="480" zoomAndPan="magnify" viewBox="0 0 360 269.999989" height="360" preserveAspectRatio="xMidYMid meet" version="1.2"><defs><clipPath id="e6b874bfd0"><path d="M 37.332031 0 L 322.332031 0 L 322.332031 270 L 37.332031 270 Z M 37.332031 0 "/></clipPath></defs><g id="2b68724f56"><g clip-rule="nonzero" clip-path="url(#e6b874bfd0)"><path style=" stroke:none;fill-rule:evenodd;fill:#00a6f4;fill-opacity:1;" d="M 188.90625 67.394531 C 188.90625 65.007812 190.847656 63.066406 193.238281 63.066406 L 210.167969 63.066406 C 212.558594 63.066406 214.5 65.007812 214.5 67.394531 C 214.5 69.785156 212.558594 71.722656 210.167969 71.722656 L 193.238281 71.722656 C 190.847656 71.722656 188.90625 69.785156 188.90625 67.394531 Z M 188.90625 45.007812 C 188.90625 42.617188 190.847656 40.679688 193.238281 40.679688 L 210.167969 40.679688 C 212.558594 40.679688 214.5 42.617188 214.5 45.007812 C 214.5 47.394531 212.558594 49.335938 210.167969 49.335938 L 193.238281 49.335938 C 190.847656 49.335938 188.90625 47.394531 188.90625 45.007812 Z M 188.90625 26.5625 C 188.90625 24.171875 190.847656 22.234375 193.238281 22.234375 L 210.167969 22.234375 C 212.558594 22.234375 214.5 24.171875 214.5 26.5625 C 214.5 28.949219 212.558594 30.886719 210.167969 30.886719 L 193.238281 30.886719 C 190.847656 30.886719 188.90625 28.949219 188.90625 26.5625 Z M 201.148438 176.945312 C 201.148438 184.722656 194.824219 191.046875 187.050781 191.046875 C 179.273438 191.046875 172.953125 184.722656 172.953125 176.945312 C 172.953125 169.171875 179.273438 162.847656 187.050781 162.847656 C 194.824219 162.847656 201.148438 169.171875 201.148438 176.945312 Z M 164.871094 176.945312 C 164.871094 189.171875 174.820312 199.121094 187.050781 199.121094 C 199.277344 199.121094 209.222656 189.171875 209.222656 176.945312 C 209.222656 164.714844 199.277344 154.765625 187.050781 154.765625 C 174.820312 154.765625 164.871094 164.714844 164.871094 176.945312 Z M 242.878906 181.445312 C 243.773438 180.414062 244.21875 179.085938 244.121094 177.710938 C 243.789062 173.09375 238.085938 171.261719 235.105469 174.679688 L 206.207031 207.878906 C 203.164062 211.371094 199.5 213.851562 195.390625 215.253906 L 200.832031 241.734375 C 201.128906 243.148438 200.644531 244.609375 199.566406 245.570312 L 189.734375 254.308594 C 188.207031 255.664062 185.890625 255.664062 184.371094 254.308594 L 174.53125 245.570312 C 173.457031 244.609375 172.964844 243.148438 173.261719 241.734375 L 178.707031 215.253906 C 174.597656 213.851562 170.933594 211.371094 167.886719 207.878906 L 138.988281 174.679688 C 136.046875 171.296875 130.296875 173.066406 129.976562 177.710938 C 129.867188 179.296875 130.371094 180.359375 131.289062 181.527344 L 159.085938 215.25 C 162.992188 219.984375 164.886719 225.273438 164.886719 231.40625 L 164.886719 258.734375 C 164.886719 260.304688 166.167969 261.578125 167.734375 261.578125 L 206.363281 261.578125 C 207.902344 261.578125 209.207031 260.277344 209.207031 258.734375 L 209.207031 231.40625 C 209.207031 225.273438 211.105469 219.984375 215.011719 215.25 L 242.804688 181.527344 C 242.828125 181.5 242.855469 181.472656 242.878906 181.445312 Z M 192.460938 241.078125 L 187.050781 245.882812 L 181.644531 241.078125 L 186.683594 216.59375 L 187.414062 216.59375 Z M 247.679688 168.085938 C 242.175781 163.296875 233.800781 163.875 229.015625 169.375 L 200.113281 202.574219 C 196.683594 206.523438 192.285156 208.523438 187.050781 208.523438 C 181.8125 208.523438 177.417969 206.523438 173.980469 202.574219 L 145.078125 169.378906 C 137.421875 160.574219 122.730469 165.34375 121.921875 177.148438 C 121.679688 180.660156 122.800781 184.050781 125.089844 186.703125 L 152.851562 220.386719 C 155.550781 223.660156 156.8125 227.164062 156.8125 231.40625 L 156.8125 258.734375 C 156.8125 264.757812 161.707031 269.65625 167.734375 269.65625 L 206.363281 269.65625 C 212.386719 269.65625 217.285156 264.757812 217.285156 258.734375 L 217.285156 231.40625 C 217.285156 227.164062 218.542969 223.660156 221.242188 220.386719 L 249.007812 186.703125 C 253.707031 181.136719 253.214844 172.90625 247.679688 168.085938 Z M 242.160156 46.8125 C 243.425781 44.976562 245.945312 44.519531 247.777344 45.792969 C 260.113281 54.332031 270.34375 65.136719 278.179688 77.910156 C 279.832031 80.601562 277.871094 84.058594 274.742188 84.058594 C 273.382812 84.058594 272.050781 83.375 271.292969 82.132812 C 264.148438 70.488281 254.425781 60.214844 243.183594 52.433594 C 241.34375 51.164062 240.890625 48.644531 242.160156 46.8125 Z M 95.921875 77.910156 C 103.753906 65.140625 113.980469 54.332031 126.324219 45.792969 C 128.160156 44.519531 130.671875 44.976562 131.945312 46.8125 C 133.210938 48.644531 132.75 51.164062 130.917969 52.433594 C 119.671875 60.21875 109.949219 70.488281 102.804688 82.132812 C 101.632812 84.050781 99.132812 84.617188 97.25 83.464844 C 95.351562 82.296875 94.753906 79.808594 95.921875 77.910156 Z M 312.867188 155.449219 L 251.414062 155.449219 C 250.652344 155.449219 250.007812 154.808594 250.007812 154.046875 L 250.007812 122.621094 L 278.097656 137.421875 L 278.097656 138.617188 C 278.097656 140.847656 279.910156 142.65625 282.140625 142.65625 C 284.371094 142.65625 286.175781 140.847656 286.175781 138.617188 L 286.175781 137.421875 L 314.273438 122.621094 L 314.273438 154.046875 C 314.269531 154.808594 313.632812 155.449219 312.867188 155.449219 Z M 272.179688 101.617188 C 272.179688 101.023438 272.683594 100.523438 273.273438 100.523438 L 291.007812 100.523438 C 291.601562 100.523438 292.101562 101.023438 292.101562 101.617188 L 292.101562 106.445312 L 272.179688 106.445312 Z M 286.066406 128.351562 L 312.308594 114.523438 L 251.964844 114.523438 L 278.214844 128.351562 C 279.1875 124.226562 285.097656 124.238281 286.066406 128.351562 Z M 312.867188 106.445312 C 318.097656 106.445312 322.347656 110.699219 322.347656 115.925781 L 322.347656 154.046875 C 322.347656 159.277344 318.097656 163.53125 312.867188 163.53125 L 251.414062 163.53125 C 246.1875 163.53125 241.929688 159.277344 241.929688 154.046875 L 241.929688 115.925781 C 241.929688 110.699219 246.1875 106.445312 251.414062 106.445312 L 264.101562 106.445312 L 264.101562 101.617188 C 264.101562 96.558594 268.214844 92.445312 273.273438 92.445312 L 291.007812 92.445312 C 296.066406 92.445312 300.183594 96.558594 300.183594 101.617188 L 300.183594 106.445312 Z M 157.140625 71.96875 C 155.558594 70.390625 155.558594 67.832031 157.140625 66.253906 C 158.714844 64.675781 161.277344 64.675781 162.851562 66.253906 L 164.699219 68.101562 L 173.015625 58.121094 C 174.445312 56.40625 176.988281 56.171875 178.703125 57.601562 C 180.417969 59.027344 180.648438 61.574219 179.222656 63.289062 L 168.074219 76.667969 C 166.550781 78.496094 163.792969 78.621094 162.113281 76.941406 Z M 158.339844 49.578125 L 163.3125 54.554688 C 164.984375 56.226562 167.753906 56.105469 169.273438 54.285156 L 180.421875 40.902344 C 181.84375 39.1875 181.613281 36.640625 179.902344 35.214844 C 178.1875 33.785156 175.644531 34.019531 174.210938 35.730469 L 165.898438 45.714844 L 164.046875 43.867188 C 162.472656 42.289062 159.914062 42.289062 158.339844 43.867188 C 156.757812 45.445312 156.757812 47.996094 158.339844 49.578125 Z M 159.535156 27.191406 C 157.960938 25.613281 157.960938 23.054688 159.535156 21.480469 C 161.117188 19.902344 163.671875 19.902344 165.246094 21.480469 L 167.089844 23.324219 L 175.414062 13.34375 C 176.84375 11.628906 179.390625 11.398438 181.101562 12.828125 C 182.816406 14.257812 183.046875 16.800781 181.621094 18.515625 L 170.464844 31.894531 C 168.945312 33.71875 166.191406 33.84375 164.515625 32.164062 Z M 151.035156 10.292969 L 151.035156 83.105469 C 151.035156 84.289062 152.039062 85.289062 153.222656 85.289062 L 217.128906 85.289062 C 218.316406 85.289062 219.316406 84.289062 219.316406 83.105469 L 219.316406 10.292969 C 219.316406 9.109375 218.316406 8.109375 217.128906 8.109375 L 153.21875 8.109375 C 152.039062 8.109375 151.035156 9.109375 151.035156 10.292969 Z M 153.21875 93.367188 L 217.128906 93.367188 C 222.789062 93.367188 227.394531 88.765625 227.394531 83.105469 L 227.394531 10.292969 C 227.394531 4.632812 222.789062 0.03125 217.128906 0.03125 L 153.21875 0.03125 C 147.558594 0.03125 142.957031 4.632812 142.957031 10.292969 L 142.957031 83.105469 C 142.957031 88.765625 147.5625 93.367188 153.21875 93.367188 Z M 91.84375 135.210938 C 93.980469 137.894531 91.972656 141.773438 88.691406 141.773438 C 87.503906 141.773438 86.332031 141.253906 85.535156 140.257812 L 77.804688 130.601562 C 76.523438 128.992188 76.648438 126.683594 78.097656 125.226562 L 96.527344 106.726562 C 98.101562 105.144531 100.660156 105.140625 102.234375 106.710938 C 103.816406 108.285156 103.820312 110.84375 102.25 112.425781 L 86.367188 128.367188 Z M 61.816406 128.074219 C 61.816406 130.304688 60.011719 132.113281 57.777344 132.113281 L 51.984375 132.113281 C 49.75 132.113281 47.945312 130.304688 47.945312 128.074219 C 47.945312 125.847656 49.75 124.039062 51.984375 124.039062 L 57.777344 124.039062 C 60.011719 124.039062 61.816406 125.847656 61.816406 128.074219 Z M 85 151.253906 L 85 157.054688 C 85 159.28125 83.195312 161.09375 80.957031 161.09375 C 78.726562 161.09375 76.921875 159.285156 76.921875 157.054688 L 76.921875 151.253906 C 76.921875 149.027344 78.726562 147.21875 80.957031 147.21875 C 83.195312 147.21875 85 149.027344 85 151.253906 Z M 113.976562 128.074219 C 113.976562 125.847656 112.171875 124.039062 109.9375 124.039062 L 104.140625 124.039062 C 101.910156 124.039062 100.105469 125.847656 100.105469 128.074219 C 100.105469 130.304688 101.910156 132.113281 104.140625 132.113281 L 109.9375 132.113281 C 112.167969 132.113281 113.976562 130.304688 113.976562 128.074219 Z M 76.921875 104.890625 C 76.921875 107.125 78.726562 108.933594 80.957031 108.933594 C 83.195312 108.933594 85 107.125 85 104.890625 L 85 99.097656 C 85 96.867188 83.195312 95.058594 80.957031 95.058594 C 78.726562 95.058594 76.921875 96.867188 76.921875 99.097656 Z M 80.957031 163.636719 C 100.574219 163.636719 116.523438 147.6875 116.523438 128.074219 C 116.523438 108.464844 100.574219 92.511719 80.957031 92.511719 C 61.347656 92.511719 45.394531 108.464844 45.394531 128.074219 C 45.394531 147.6875 61.347656 163.636719 80.957031 163.636719 Z M 80.957031 84.433594 C 105.027344 84.433594 124.605469 104.011719 124.605469 128.074219 C 124.605469 152.140625 105.027344 171.71875 80.957031 171.71875 C 56.894531 171.71875 37.316406 152.140625 37.316406 128.074219 C 37.316406 104.011719 56.894531 84.433594 80.957031 84.433594 Z M 80.957031 84.433594 "/></g></g></svg>