<svg xmlns="http://www.w3.org/2000/svg" xmlns:xlink="http://www.w3.org/1999/xlink" width="480" zoomAndPan="magnify" viewBox="0 0 360 269.999989" height="360" preserveAspectRatio="xMidYMid meet" version="1.2"><defs><clipPath id="f86d9c9cff"><path d="M 12.207031 138 L 346 138 L 346 270 L 12.207031 270 Z M 12.207031 138 "/></clipPath></defs><g id="a3dc2a745b"><path style=" stroke:none;fill-rule:nonzero;fill:#00a6f4;fill-opacity:1;" d="M 227.789062 132.640625 C 264.351562 132.640625 294.097656 102.894531 294.097656 66.332031 C 294.097656 29.769531 264.351562 0.0234375 227.789062 0.0234375 C 191.222656 0.0234375 161.480469 29.769531 161.480469 66.332031 C 161.480469 102.894531 191.222656 132.640625 227.789062 132.640625 Z M 172.503906 66.332031 C 172.503906 35.847656 197.304688 11.046875 227.789062 11.046875 C 258.269531 11.046875 283.070312 35.847656 283.070312 66.332031 C 283.070312 96.8125 258.269531 121.613281 227.789062 121.613281 C 197.304688 121.613281 172.503906 96.8125 172.503906 66.332031 Z M 172.503906 66.332031 "/><path style=" stroke:none;fill-rule:nonzero;fill:#00a6f4;fill-opacity:1;" d="M 211.589844 96.699219 C 214.453125 99.496094 218.269531 101.464844 222.464844 102.332031 L 222.421875 108.191406 C 222.398438 111.148438 224.789062 113.570312 227.746094 113.59375 L 227.785156 113.59375 C 230.722656 113.59375 233.128906 111.203125 233.152344 108.269531 L 233.195312 102.3125 C 237.375 101.429688 241.175781 99.457031 244.023438 96.660156 C 247.328125 93.414062 249.148438 89.257812 249.148438 84.957031 L 249.148438 82.589844 C 249.148438 76.875 245.933594 71.46875 240.539062 68.128906 L 221.414062 56.289062 C 219.171875 54.902344 217.886719 52.957031 217.886719 50.949219 L 217.886719 47.25 C 217.886719 45.445312 218.882812 43.714844 220.695312 42.371094 C 222.667969 40.90625 225.316406 40.097656 228.152344 40.097656 C 230.988281 40.097656 233.636719 40.90625 235.613281 42.371094 C 237.425781 43.714844 238.421875 45.445312 238.421875 47.25 L 238.421875 51.425781 C 238.421875 54.382812 240.828125 56.792969 243.785156 56.792969 C 246.746094 56.792969 249.152344 54.382812 249.152344 51.425781 L 249.152344 47.25 C 249.152344 39.078125 242.664062 32.011719 233.519531 29.964844 L 233.519531 24.429688 C 233.519531 21.472656 231.113281 19.066406 228.152344 19.066406 C 225.195312 19.066406 222.789062 21.472656 222.789062 24.429688 L 222.789062 29.964844 C 213.644531 32.011719 207.15625 39.078125 207.15625 47.25 L 207.15625 50.949219 C 207.15625 56.667969 210.375 62.074219 215.765625 65.410156 L 234.894531 77.25 C 237.136719 78.640625 238.421875 80.585938 238.421875 82.589844 L 238.421875 84.957031 C 238.421875 86.757812 237.425781 88.492188 235.613281 89.835938 C 233.640625 91.300781 230.988281 92.109375 228.152344 92.109375 L 227.425781 92.109375 C 224.589844 92.109375 221.941406 91.300781 219.964844 89.835938 C 218.152344 88.492188 217.15625 86.757812 217.15625 84.957031 L 217.15625 82.65625 C 217.15625 79.699219 214.75 77.292969 211.792969 77.292969 C 208.835938 77.292969 206.425781 79.699219 206.425781 82.65625 L 206.425781 84.957031 C 206.425781 89.277344 208.257812 93.449219 211.589844 96.699219 Z M 211.589844 96.699219 "/><g clip-rule="nonzero" clip-path="url(#f86d9c9cff)"><path style=" stroke:none;fill-rule:nonzero;fill:#00a6f4;fill-opacity:1;" d="M 339.640625 148.574219 C 332.164062 140.261719 320.21875 139.433594 311.816406 146.628906 L 262.566406 186.46875 C 262.585938 185.980469 262.59375 185.492188 262.585938 185 C 262.390625 173.121094 253.0625 163.457031 241.792969 163.457031 L 187.105469 163.457031 C 183.953125 163.457031 180.980469 161.636719 179.148438 158.589844 C 178.753906 157.929688 178.210938 157.382812 177.605469 156.910156 C 155.21875 139.246094 125.128906 136.929688 99.363281 148.382812 L 89.839844 152.613281 L 70.707031 152.613281 L 70.707031 143.878906 C 70.707031 140.746094 68.167969 138.203125 65.03125 138.203125 L 17.886719 138.203125 C 14.753906 138.203125 12.210938 140.746094 12.210938 143.878906 L 12.210938 248.878906 C 12.210938 252.011719 14.753906 254.554688 17.886719 254.554688 L 65.03125 254.554688 C 68.164062 254.554688 70.707031 252.011719 70.707031 248.878906 L 70.707031 239.867188 L 90.164062 239.867188 L 157.496094 261.246094 C 172.765625 266.890625 185.570312 269.714844 198.371094 269.714844 C 208.632812 269.714844 218.894531 267.902344 230.425781 264.273438 C 231.484375 263.941406 232.558594 263.589844 233.640625 263.226562 C 235.976562 262.328125 238.242188 261.261719 240.429688 260.042969 C 242.230469 259.035156 243.9375 257.867188 245.539062 256.5625 L 339.621094 179.804688 C 339.929688 179.550781 340.214844 179.265625 340.464844 178.953125 C 347.460938 170.207031 347.101562 156.863281 339.640625 148.574219 Z M 59.355469 243.203125 L 23.566406 243.203125 L 23.566406 149.558594 L 59.355469 149.558594 Z M 331.925781 171.433594 L 244.175781 243.023438 C 236.511719 249.273438 227.527344 253.710938 217.898438 255.964844 C 198.820312 260.429688 183.097656 258.625 161.316406 250.554688 C 161.230469 250.523438 161.144531 250.496094 161.058594 250.46875 L 92.761719 228.78125 C 92.207031 228.605469 91.628906 228.515625 91.042969 228.515625 L 70.707031 228.515625 L 70.707031 163.96875 L 91.046875 163.96875 C 91.839844 163.96875 92.625 163.804688 93.351562 163.480469 L 103.976562 158.757812 C 125.683594 149.109375 150.320312 151.640625 170.09375 165.496094 C 174.054688 171.355469 180.328125 174.8125 187.105469 174.8125 L 241.792969 174.8125 C 246.902344 174.8125 251.140625 179.46875 251.234375 185.191406 C 251.285156 188.347656 250.144531 191.351562 248.105469 193.425781 C 247.101562 194.445312 245.933594 195.179688 244.683594 195.597656 C 243.070312 195.855469 241.429688 195.988281 239.773438 195.988281 L 178.941406 195.988281 C 175.820312 195.988281 173.21875 198.472656 173.179688 201.589844 C 173.140625 204.761719 175.695312 207.34375 178.855469 207.34375 L 242.277344 207.34375 C 243.984375 207.34375 245.660156 207.113281 247.28125 206.671875 C 254.359375 205.394531 261.042969 202.304688 266.914062 197.554688 L 319.023438 155.402344 C 319.070312 155.363281 319.117188 155.324219 319.164062 155.285156 C 322.828125 152.117188 327.890625 152.492188 331.203125 156.167969 C 334.863281 160.234375 335.144531 166.96875 331.925781 171.433594 Z M 331.925781 171.433594 "/></g></g></svg>