<svg xmlns="http://www.w3.org/2000/svg" xmlns:xlink="http://www.w3.org/1999/xlink" width="480" zoomAndPan="magnify" viewBox="0 0 360 269.999989" height="360" preserveAspectRatio="xMidYMid meet" version="1.2"><defs><clipPath id="5ad8648206"><path d="M 48 0 L 311.867188 0 L 311.867188 270 L 48 270 Z M 48 0 "/></clipPath></defs><g id="ad9d2d6b3a"><g clip-rule="nonzero" clip-path="url(#5ad8648206)"><path style=" stroke:none;fill-rule:nonzero;fill:#00a6f4;fill-opacity:1;" d="M 310.757812 188.851562 L 287.558594 139.207031 L 287.558594 58.523438 C 287.558594 57.207031 287.09375 56.082031 286.160156 55.148438 L 244.0625 13.039062 C 243.128906 12.105469 242.003906 11.640625 240.683594 11.636719 L 214.542969 11.636719 L 208.066406 7.730469 C 206.941406 7.046875 205.734375 6.863281 204.453125 7.179688 L 198.332031 8.6875 L 175.199219 0.289062 C 173.960938 -0.160156 172.742188 -0.105469 171.546875 0.453125 L 147.578125 11.648438 L 106.277344 11.648438 C 105.964844 11.648438 105.652344 11.679688 105.347656 11.742188 C 105.039062 11.804688 104.742188 11.894531 104.449219 12.011719 C 104.160156 12.132812 103.886719 12.28125 103.625 12.453125 C 103.363281 12.628906 103.125 12.828125 102.902344 13.046875 C 102.679688 13.269531 102.480469 13.511719 102.308594 13.773438 C 102.132812 14.03125 101.988281 14.308594 101.867188 14.597656 C 101.746094 14.886719 101.65625 15.1875 101.59375 15.492188 C 101.535156 15.800781 101.503906 16.109375 101.503906 16.425781 L 101.503906 32.503906 L 75.566406 38.890625 C 75.261719 38.964844 74.96875 39.070312 74.683594 39.199219 C 74.398438 39.332031 74.132812 39.492188 73.878906 39.679688 C 73.625 39.863281 73.394531 40.074219 73.183594 40.304688 C 72.972656 40.535156 72.785156 40.785156 72.621094 41.054688 C 72.460938 41.320312 72.324219 41.601562 72.21875 41.898438 C 72.113281 42.191406 72.035156 42.492188 71.988281 42.804688 C 71.941406 43.113281 71.925781 43.425781 71.9375 43.738281 C 71.953125 44.050781 71.996094 44.359375 72.074219 44.664062 L 72.574219 46.691406 L 51.289062 56.648438 C 51.003906 56.78125 50.734375 56.9375 50.480469 57.125 C 50.230469 57.308594 49.996094 57.519531 49.785156 57.75 C 49.574219 57.980469 49.386719 58.230469 49.222656 58.5 C 49.0625 58.769531 48.925781 59.050781 48.820312 59.34375 C 48.714844 59.640625 48.636719 59.941406 48.589844 60.25 C 48.542969 60.5625 48.523438 60.871094 48.539062 61.1875 C 48.550781 61.5 48.597656 61.808594 48.671875 62.113281 C 48.746094 62.417969 48.851562 62.710938 48.984375 62.996094 L 101.507812 175.390625 L 101.507812 244.078125 C 101.507812 244.390625 101.535156 244.703125 101.597656 245.007812 C 101.660156 245.316406 101.75 245.613281 101.871094 245.90625 C 101.988281 246.195312 102.136719 246.46875 102.308594 246.730469 C 102.484375 246.988281 102.683594 247.230469 102.902344 247.453125 C 103.125 247.675781 103.367188 247.871094 103.625 248.046875 C 103.886719 248.21875 104.164062 248.367188 104.453125 248.488281 C 104.742188 248.605469 105.039062 248.695312 105.347656 248.757812 C 105.652344 248.820312 105.964844 248.851562 106.277344 248.851562 L 122.285156 248.851562 L 125.761719 263 C 125.835938 263.304688 125.941406 263.597656 126.074219 263.882812 C 126.207031 264.167969 126.363281 264.433594 126.550781 264.6875 C 126.734375 264.941406 126.945312 265.171875 127.175781 265.382812 C 127.40625 265.59375 127.65625 265.78125 127.925781 265.945312 C 128.191406 266.105469 128.472656 266.242188 128.769531 266.347656 C 129.0625 266.453125 129.367188 266.53125 129.675781 266.578125 C 129.984375 266.625 130.296875 266.644531 130.609375 266.628906 C 130.921875 266.613281 131.230469 266.570312 131.535156 266.496094 L 142.785156 263.730469 L 144.167969 266.695312 C 144.300781 266.980469 144.457031 267.246094 144.644531 267.5 C 144.828125 267.753906 145.035156 267.988281 145.269531 268.199219 C 145.5 268.414062 145.75 268.601562 146.015625 268.761719 C 146.285156 268.925781 146.566406 269.0625 146.859375 269.167969 C 147.15625 269.277344 147.457031 269.355469 147.765625 269.402344 C 148.078125 269.449219 148.390625 269.46875 148.703125 269.453125 C 149.015625 269.441406 149.324219 269.398438 149.628906 269.324219 C 149.933594 269.25 150.230469 269.144531 150.511719 269.011719 L 182.914062 253.871094 L 203.261719 248.863281 L 282.785156 248.863281 C 283.097656 248.863281 283.410156 248.835938 283.714844 248.773438 C 284.023438 248.710938 284.324219 248.621094 284.613281 248.5 C 284.902344 248.382812 285.175781 248.234375 285.4375 248.058594 C 285.699219 247.886719 285.9375 247.6875 286.160156 247.46875 C 286.382812 247.246094 286.578125 247.003906 286.753906 246.742188 C 286.925781 246.484375 287.074219 246.207031 287.195312 245.917969 C 287.3125 245.628906 287.40625 245.332031 287.464844 245.023438 C 287.527344 244.714844 287.558594 244.40625 287.558594 244.09375 L 287.558594 228.117188 L 300.824219 224.851562 C 301.128906 224.777344 301.421875 224.671875 301.707031 224.539062 C 301.992188 224.410156 302.257812 224.25 302.511719 224.0625 C 302.765625 223.878906 302.996094 223.667969 303.207031 223.4375 C 303.417969 223.207031 303.605469 222.957031 303.769531 222.6875 C 303.929688 222.421875 304.066406 222.140625 304.171875 221.84375 C 304.277344 221.550781 304.355469 221.246094 304.402344 220.9375 C 304.449219 220.628906 304.464844 220.316406 304.453125 220.003906 C 304.4375 219.691406 304.394531 219.382812 304.320312 219.078125 L 299.472656 199.375 L 308.457031 195.179688 C 308.742188 195.046875 309.007812 194.890625 309.261719 194.707031 C 309.515625 194.519531 309.75 194.3125 309.960938 194.082031 C 310.171875 193.851562 310.359375 193.601562 310.523438 193.332031 C 310.6875 193.066406 310.820312 192.785156 310.929688 192.488281 C 311.039062 192.195312 311.113281 191.890625 311.164062 191.582031 C 311.210938 191.273438 311.226562 190.960938 311.214844 190.648438 C 311.203125 190.332031 311.15625 190.023438 311.082031 189.71875 C 311.007812 189.414062 310.90625 189.121094 310.773438 188.835938 Z M 245.457031 27.945312 L 271.261719 53.75 L 245.457031 53.75 Z M 173.800781 9.933594 L 178.523438 11.648438 L 170.121094 11.648438 Z M 101.507812 42.335938 L 101.507812 124.410156 L 82.46875 47.019531 Z M 74.886719 56.15625 L 95.515625 140.015625 L 59.652344 63.277344 Z M 132.117188 248.851562 L 163.300781 248.851562 L 133.898438 256.09375 Z M 111.054688 239.289062 L 111.054688 21.195312 L 235.910156 21.195312 L 235.910156 58.523438 C 235.910156 58.839844 235.941406 59.148438 236.003906 59.457031 C 236.0625 59.765625 236.15625 60.0625 236.273438 60.351562 C 236.394531 60.640625 236.542969 60.917969 236.714844 61.175781 C 236.890625 61.4375 237.085938 61.679688 237.308594 61.898438 C 237.53125 62.121094 237.773438 62.320312 238.03125 62.492188 C 238.292969 62.667969 238.570312 62.816406 238.859375 62.933594 C 239.148438 63.054688 239.445312 63.144531 239.753906 63.207031 C 240.0625 63.265625 240.371094 63.296875 240.683594 63.296875 L 278.011719 63.296875 L 278.011719 239.316406 Z M 287.558594 218.269531 L 287.558594 190.929688 L 293.910156 216.714844 Z M 297.152344 189.921875 L 293.175781 173.777344 L 300.085938 188.554688 Z M 125.34375 62.191406 C 125.34375 61.878906 125.371094 61.570312 125.433594 61.261719 C 125.496094 60.953125 125.585938 60.65625 125.707031 60.367188 C 125.824219 60.078125 125.972656 59.800781 126.148438 59.539062 C 126.320312 59.28125 126.519531 59.039062 126.742188 58.816406 C 126.960938 58.597656 127.203125 58.398438 127.464844 58.222656 C 127.726562 58.050781 128 57.902344 128.289062 57.785156 C 128.578125 57.664062 128.878906 57.574219 129.183594 57.511719 C 129.492188 57.453125 129.804688 57.421875 130.117188 57.421875 L 170.660156 57.421875 C 170.964844 57.429688 171.273438 57.464844 171.574219 57.53125 C 171.875 57.597656 172.167969 57.695312 172.449219 57.816406 C 172.730469 57.941406 173 58.089844 173.253906 58.265625 C 173.507812 58.441406 173.742188 58.640625 173.957031 58.859375 C 174.171875 59.082031 174.367188 59.320312 174.535156 59.578125 C 174.703125 59.835938 174.847656 60.109375 174.964844 60.394531 C 175.078125 60.679688 175.167969 60.972656 175.226562 61.277344 C 175.285156 61.582031 175.316406 61.886719 175.316406 62.195312 C 175.316406 62.503906 175.285156 62.808594 175.226562 63.113281 C 175.167969 63.414062 175.078125 63.707031 174.964844 63.996094 C 174.847656 64.28125 174.703125 64.550781 174.535156 64.808594 C 174.367188 65.070312 174.171875 65.308594 173.957031 65.527344 C 173.742188 65.75 173.507812 65.949219 173.253906 66.125 C 173 66.296875 172.730469 66.449219 172.449219 66.570312 C 172.167969 66.695312 171.875 66.789062 171.574219 66.855469 C 171.273438 66.921875 170.964844 66.960938 170.660156 66.96875 L 130.121094 66.96875 C 129.808594 66.96875 129.496094 66.9375 129.191406 66.875 C 128.882812 66.816406 128.585938 66.726562 128.296875 66.605469 C 128.007812 66.484375 127.730469 66.339844 127.472656 66.167969 C 127.210938 65.992188 126.96875 65.796875 126.75 65.574219 C 126.527344 65.351562 126.328125 65.113281 126.15625 64.851562 C 125.980469 64.59375 125.832031 64.320312 125.710938 64.03125 C 125.59375 63.742188 125.5 63.445312 125.4375 63.136719 C 125.378906 62.832031 125.347656 62.519531 125.34375 62.207031 Z M 125.34375 81.878906 C 125.34375 81.566406 125.371094 81.257812 125.433594 80.949219 C 125.496094 80.640625 125.585938 80.34375 125.707031 80.054688 C 125.824219 79.761719 125.972656 79.488281 126.148438 79.226562 C 126.320312 78.96875 126.519531 78.726562 126.742188 78.503906 C 126.960938 78.285156 127.203125 78.085938 127.464844 77.910156 C 127.726562 77.738281 128 77.589844 128.289062 77.46875 C 128.578125 77.351562 128.878906 77.261719 129.183594 77.199219 C 129.492188 77.136719 129.804688 77.109375 130.117188 77.109375 L 203.335938 77.109375 C 203.652344 77.109375 203.960938 77.140625 204.269531 77.199219 C 204.578125 77.261719 204.875 77.351562 205.167969 77.472656 C 205.457031 77.59375 205.730469 77.738281 205.992188 77.914062 C 206.253906 78.089844 206.496094 78.285156 206.71875 78.507812 C 206.9375 78.730469 207.136719 78.972656 207.3125 79.234375 C 207.484375 79.492188 207.632812 79.769531 207.753906 80.058594 C 207.875 80.347656 207.964844 80.648438 208.023438 80.957031 C 208.085938 81.265625 208.117188 81.574219 208.117188 81.886719 C 208.117188 82.203125 208.085938 82.511719 208.023438 82.820312 C 207.964844 83.128906 207.875 83.429688 207.753906 83.71875 C 207.632812 84.007812 207.484375 84.285156 207.3125 84.542969 C 207.136719 84.804688 206.9375 85.046875 206.71875 85.269531 C 206.496094 85.492188 206.253906 85.6875 205.992188 85.863281 C 205.730469 86.039062 205.457031 86.183594 205.167969 86.304688 C 204.875 86.425781 204.578125 86.515625 204.269531 86.578125 C 203.960938 86.636719 203.652344 86.667969 203.335938 86.667969 L 130.121094 86.667969 C 129.804688 86.667969 129.496094 86.636719 129.1875 86.578125 C 128.878906 86.515625 128.582031 86.425781 128.292969 86.304688 C 128.003906 86.1875 127.726562 86.039062 127.46875 85.863281 C 127.207031 85.691406 126.964844 85.492188 126.742188 85.269531 C 126.523438 85.050781 126.324219 84.808594 126.148438 84.546875 C 125.976562 84.285156 125.828125 84.011719 125.707031 83.722656 C 125.589844 83.433594 125.496094 83.132812 125.4375 82.824219 C 125.375 82.519531 125.34375 82.207031 125.34375 81.894531 Z M 263.71875 108.324219 C 263.71875 108.636719 263.6875 108.949219 263.628906 109.253906 C 263.566406 109.5625 263.476562 109.859375 263.355469 110.152344 C 263.234375 110.441406 263.089844 110.714844 262.914062 110.976562 C 262.738281 111.238281 262.542969 111.476562 262.320312 111.699219 C 262.097656 111.921875 261.859375 112.121094 261.597656 112.292969 C 261.335938 112.46875 261.0625 112.613281 260.769531 112.734375 C 260.480469 112.855469 260.183594 112.945312 259.875 113.007812 C 259.566406 113.066406 259.257812 113.097656 258.945312 113.097656 L 130.121094 113.097656 C 129.804688 113.097656 129.496094 113.066406 129.1875 113.007812 C 128.878906 112.945312 128.582031 112.855469 128.289062 112.734375 C 128 112.613281 127.726562 112.46875 127.464844 112.292969 C 127.203125 112.117188 126.960938 111.917969 126.738281 111.699219 C 126.515625 111.476562 126.320312 111.234375 126.144531 110.972656 C 125.96875 110.710938 125.824219 110.4375 125.703125 110.148438 C 125.582031 109.855469 125.492188 109.558594 125.429688 109.25 C 125.371094 108.941406 125.339844 108.632812 125.339844 108.316406 C 125.339844 108.003906 125.371094 107.691406 125.429688 107.386719 C 125.492188 107.078125 125.582031 106.777344 125.703125 106.488281 C 125.824219 106.199219 125.96875 105.921875 126.144531 105.660156 C 126.320312 105.402344 126.515625 105.160156 126.738281 104.9375 C 126.960938 104.714844 127.203125 104.515625 127.464844 104.34375 C 127.726562 104.167969 128 104.019531 128.289062 103.902344 C 128.582031 103.78125 128.878906 103.691406 129.1875 103.628906 C 129.496094 103.566406 129.804688 103.539062 130.121094 103.539062 L 258.945312 103.539062 C 259.261719 103.539062 259.574219 103.566406 259.882812 103.628906 C 260.191406 103.691406 260.488281 103.78125 260.78125 103.902344 C 261.070312 104.023438 261.347656 104.171875 261.609375 104.347656 C 261.867188 104.523438 262.109375 104.722656 262.332031 104.945312 C 262.554688 105.167969 262.753906 105.410156 262.925781 105.671875 C 263.101562 105.933594 263.246094 106.210938 263.367188 106.503906 C 263.484375 106.792969 263.574219 107.09375 263.632812 107.402344 C 263.695312 107.710938 263.722656 108.023438 263.722656 108.339844 Z M 263.71875 130.210938 C 263.722656 130.527344 263.691406 130.839844 263.632812 131.148438 C 263.574219 131.457031 263.484375 131.757812 263.363281 132.046875 C 263.246094 132.339844 263.097656 132.613281 262.925781 132.878906 C 262.75 133.140625 262.554688 133.382812 262.332031 133.605469 C 262.109375 133.828125 261.867188 134.027344 261.605469 134.203125 C 261.347656 134.378906 261.070312 134.527344 260.78125 134.648438 C 260.488281 134.769531 260.191406 134.859375 259.882812 134.921875 C 259.574219 134.980469 259.261719 135.011719 258.945312 135.011719 L 130.121094 135.011719 C 129.804688 135.011719 129.496094 134.984375 129.1875 134.921875 C 128.878906 134.859375 128.582031 134.769531 128.289062 134.648438 C 128 134.527344 127.726562 134.382812 127.464844 134.207031 C 127.203125 134.03125 126.960938 133.835938 126.738281 133.613281 C 126.515625 133.390625 126.320312 133.148438 126.144531 132.886719 C 125.96875 132.628906 125.824219 132.351562 125.703125 132.0625 C 125.582031 131.773438 125.492188 131.472656 125.429688 131.164062 C 125.371094 130.855469 125.339844 130.546875 125.339844 130.234375 C 125.339844 129.917969 125.371094 129.609375 125.429688 129.300781 C 125.492188 128.992188 125.582031 128.691406 125.703125 128.402344 C 125.824219 128.113281 125.96875 127.835938 126.144531 127.578125 C 126.320312 127.316406 126.515625 127.074219 126.738281 126.851562 C 126.960938 126.628906 127.203125 126.433594 127.464844 126.257812 C 127.726562 126.082031 128 125.9375 128.289062 125.816406 C 128.582031 125.695312 128.878906 125.605469 129.1875 125.542969 C 129.496094 125.484375 129.804688 125.453125 130.121094 125.453125 L 258.945312 125.453125 C 259.261719 125.453125 259.570312 125.484375 259.878906 125.542969 C 260.1875 125.605469 260.484375 125.695312 260.773438 125.816406 C 261.0625 125.9375 261.339844 126.082031 261.601562 126.257812 C 261.859375 126.429688 262.101562 126.628906 262.324219 126.851562 C 262.546875 127.074219 262.742188 127.3125 262.917969 127.574219 C 263.089844 127.835938 263.238281 128.109375 263.359375 128.398438 C 263.476562 128.6875 263.570312 128.988281 263.628906 129.296875 C 263.691406 129.601562 263.722656 129.914062 263.722656 130.226562 Z M 263.71875 152.101562 C 263.71875 152.414062 263.6875 152.726562 263.628906 153.03125 C 263.566406 153.339844 263.476562 153.636719 263.355469 153.929688 C 263.234375 154.21875 263.089844 154.492188 262.914062 154.753906 C 262.738281 155.015625 262.542969 155.253906 262.320312 155.476562 C 262.097656 155.699219 261.855469 155.894531 261.597656 156.070312 C 261.335938 156.242188 261.0625 156.390625 260.769531 156.511719 C 260.480469 156.628906 260.183594 156.722656 259.875 156.78125 C 259.566406 156.84375 259.257812 156.875 258.945312 156.875 L 130.121094 156.875 C 129.804688 156.875 129.496094 156.84375 129.1875 156.78125 C 128.878906 156.722656 128.578125 156.632812 128.289062 156.511719 C 127.996094 156.390625 127.722656 156.242188 127.460938 156.070312 C 127.199219 155.894531 126.957031 155.699219 126.734375 155.476562 C 126.511719 155.253906 126.3125 155.011719 126.140625 154.75 C 125.964844 154.488281 125.816406 154.214844 125.695312 153.921875 C 125.578125 153.632812 125.484375 153.335938 125.425781 153.027344 C 125.363281 152.71875 125.332031 152.40625 125.332031 152.09375 C 125.332031 151.777344 125.363281 151.46875 125.425781 151.160156 C 125.484375 150.851562 125.578125 150.550781 125.695312 150.261719 C 125.816406 149.972656 125.964844 149.695312 126.140625 149.433594 C 126.3125 149.171875 126.511719 148.933594 126.734375 148.710938 C 126.957031 148.488281 127.199219 148.289062 127.460938 148.117188 C 127.722656 147.941406 127.996094 147.792969 128.289062 147.675781 C 128.578125 147.554688 128.878906 147.464844 129.1875 147.402344 C 129.496094 147.34375 129.804688 147.3125 130.121094 147.3125 L 258.945312 147.3125 C 259.261719 147.3125 259.574219 147.34375 259.882812 147.40625 C 260.1875 147.464844 260.488281 147.558594 260.777344 147.675781 C 261.070312 147.796875 261.34375 147.945312 261.605469 148.121094 C 261.867188 148.296875 262.109375 148.496094 262.332031 148.71875 C 262.550781 148.941406 262.75 149.183594 262.925781 149.445312 C 263.097656 149.707031 263.246094 149.984375 263.363281 150.273438 C 263.484375 150.566406 263.574219 150.863281 263.632812 151.171875 C 263.695312 151.480469 263.722656 151.792969 263.722656 152.105469 Z M 263.71875 173.992188 C 263.71875 174.304688 263.6875 174.613281 263.628906 174.921875 C 263.566406 175.230469 263.476562 175.527344 263.355469 175.816406 C 263.234375 176.105469 263.089844 176.382812 262.914062 176.640625 C 262.738281 176.902344 262.542969 177.144531 262.320312 177.367188 C 262.097656 177.585938 261.855469 177.785156 261.597656 177.957031 C 261.335938 178.132812 261.0625 178.28125 260.769531 178.398438 C 260.480469 178.519531 260.183594 178.609375 259.875 178.671875 C 259.566406 178.730469 259.257812 178.761719 258.945312 178.761719 L 130.121094 178.761719 C 129.804688 178.761719 129.496094 178.730469 129.1875 178.671875 C 128.878906 178.609375 128.582031 178.519531 128.289062 178.398438 C 128 178.277344 127.726562 178.128906 127.464844 177.957031 C 127.203125 177.78125 126.960938 177.582031 126.738281 177.363281 C 126.515625 177.140625 126.320312 176.898438 126.144531 176.636719 C 125.96875 176.375 125.824219 176.101562 125.703125 175.8125 C 125.582031 175.519531 125.492188 175.222656 125.429688 174.914062 C 125.371094 174.605469 125.339844 174.296875 125.339844 173.980469 C 125.339844 173.667969 125.371094 173.355469 125.429688 173.050781 C 125.492188 172.742188 125.582031 172.441406 125.703125 172.152344 C 125.824219 171.863281 125.96875 171.585938 126.144531 171.324219 C 126.320312 171.066406 126.515625 170.824219 126.738281 170.601562 C 126.960938 170.378906 127.203125 170.179688 127.464844 170.007812 C 127.726562 169.832031 128 169.683594 128.289062 169.566406 C 128.582031 169.445312 128.878906 169.355469 129.1875 169.292969 C 129.496094 169.230469 129.804688 169.199219 130.121094 169.199219 L 258.945312 169.199219 C 259.261719 169.199219 259.574219 169.230469 259.882812 169.292969 C 260.191406 169.355469 260.492188 169.445312 260.78125 169.566406 C 261.070312 169.6875 261.347656 169.835938 261.609375 170.011719 C 261.871094 170.1875 262.113281 170.386719 262.332031 170.609375 C 262.554688 170.832031 262.753906 171.074219 262.925781 171.339844 C 263.101562 171.601562 263.246094 171.878906 263.367188 172.167969 C 263.484375 172.460938 263.574219 172.761719 263.636719 173.070312 C 263.695312 173.378906 263.722656 173.691406 263.722656 174.003906 Z M 263.71875 195.875 C 263.71875 196.191406 263.6875 196.5 263.628906 196.808594 C 263.566406 197.117188 263.476562 197.414062 263.355469 197.703125 C 263.234375 197.992188 263.089844 198.269531 262.914062 198.527344 C 262.738281 198.789062 262.542969 199.03125 262.320312 199.253906 C 262.097656 199.472656 261.859375 199.671875 261.597656 199.847656 C 261.335938 200.019531 261.0625 200.167969 260.769531 200.289062 C 260.480469 200.40625 260.183594 200.5 259.875 200.558594 C 259.566406 200.621094 259.257812 200.652344 258.945312 200.652344 L 217.628906 200.652344 C 217.316406 200.652344 217.003906 200.621094 216.695312 200.558594 C 216.386719 200.496094 216.089844 200.40625 215.800781 200.285156 C 215.507812 200.167969 215.234375 200.019531 214.972656 199.84375 C 214.710938 199.671875 214.46875 199.472656 214.25 199.25 C 214.027344 199.027344 213.828125 198.789062 213.652344 198.527344 C 213.480469 198.265625 213.332031 197.988281 213.210938 197.699219 C 213.09375 197.410156 213 197.109375 212.941406 196.804688 C 212.878906 196.496094 212.847656 196.183594 212.847656 195.871094 C 212.847656 195.554688 212.878906 195.246094 212.941406 194.9375 C 213 194.628906 213.09375 194.332031 213.210938 194.042969 C 213.332031 193.75 213.480469 193.476562 213.652344 193.214844 C 213.828125 192.953125 214.027344 192.710938 214.25 192.488281 C 214.46875 192.269531 214.710938 192.070312 214.972656 191.894531 C 215.234375 191.722656 215.507812 191.574219 215.800781 191.453125 C 216.089844 191.332031 216.386719 191.242188 216.695312 191.183594 C 217.003906 191.121094 217.316406 191.089844 217.628906 191.089844 L 258.945312 191.089844 C 259.261719 191.089844 259.574219 191.121094 259.882812 191.183594 C 260.191406 191.242188 260.488281 191.335938 260.78125 191.457031 C 261.070312 191.574219 261.347656 191.722656 261.609375 191.898438 C 261.871094 192.074219 262.113281 192.273438 262.332031 192.496094 C 262.554688 192.71875 262.753906 192.960938 262.925781 193.226562 C 263.101562 193.488281 263.246094 193.765625 263.367188 194.054688 C 263.484375 194.347656 263.574219 194.644531 263.636719 194.957031 C 263.695312 195.265625 263.722656 195.574219 263.722656 195.890625 Z M 263.71875 195.875 "/></g></g></svg>