<svg xmlns="http://www.w3.org/2000/svg" xmlns:xlink="http://www.w3.org/1999/xlink" width="480" zoomAndPan="magnify" viewBox="0 0 360 269.999989" height="360" preserveAspectRatio="xMidYMid meet" version="1.2"><g id="f51764c469"><path style=" stroke:none;fill-rule:nonzero;fill:#00a6f4;fill-opacity:1;" d="M 158.226562 139.355469 C 158.226562 151.359375 167.992188 161.128906 180 161.128906 C 192.007812 161.128906 201.773438 151.359375 201.773438 139.355469 C 201.773438 127.347656 192.007812 117.582031 180 117.582031 C 167.992188 117.582031 158.226562 127.347656 158.226562 139.355469 Z M 180 126.289062 C 187.203125 126.289062 193.066406 132.152344 193.066406 139.355469 C 193.066406 146.558594 187.203125 152.417969 180 152.417969 C 172.796875 152.417969 166.933594 146.558594 166.933594 139.355469 C 166.933594 132.152344 172.796875 126.289062 180 126.289062 Z M 180 126.289062 "/><path style=" stroke:none;fill-rule:nonzero;fill:#00a6f4;fill-opacity:1;" d="M 314.695312 98.664062 C 314.648438 98.53125 314.59375 98.410156 314.535156 98.289062 C 314.476562 98.167969 314.445312 98.035156 314.378906 97.921875 L 275.183594 32.601562 C 274.398438 31.285156 272.980469 30.484375 271.453125 30.484375 L 254.03125 30.484375 L 254.03125 4.355469 C 254.03125 1.949219 252.082031 0 249.675781 0 L 232.257812 0 C 229.855469 0 227.902344 1.949219 227.902344 4.355469 L 227.902344 30.484375 L 136.453125 30.484375 L 136.453125 4.355469 C 136.453125 1.949219 134.5 0 132.097656 0 L 114.675781 0 C 112.273438 0 110.324219 1.949219 110.324219 4.355469 L 110.324219 30.484375 L 88.546875 30.484375 C 87.019531 30.484375 85.601562 31.285156 84.816406 32.597656 L 45.621094 97.917969 C 45.554688 98.03125 45.523438 98.164062 45.464844 98.285156 C 45.40625 98.410156 45.351562 98.527344 45.304688 98.660156 C 45.125 99.140625 45 99.644531 45 100.160156 L 45 265.644531 C 45 268.050781 46.949219 270 49.355469 270 L 310.644531 270 C 313.050781 270 315 268.050781 315 265.644531 L 315 100.160156 C 315 99.644531 314.875 99.140625 314.695312 98.664062 Z M 302.953125 95.804688 L 239.949219 95.804688 L 271.453125 43.304688 Z M 120.050781 95.804688 L 57.046875 95.804688 L 88.546875 43.304688 Z M 132.097656 252.582031 L 227.902344 252.582031 L 227.902344 261.289062 L 132.097656 261.289062 Z M 227.902344 243.871094 L 210.484375 243.871094 L 210.484375 230.804688 C 210.484375 228.402344 208.53125 226.453125 206.128906 226.453125 C 203.726562 226.453125 201.773438 228.402344 201.773438 230.804688 L 201.773438 243.871094 L 158.226562 243.871094 L 158.226562 182.902344 L 201.773438 182.902344 L 201.773438 213.386719 C 201.773438 215.789062 203.726562 217.742188 206.128906 217.742188 C 208.53125 217.742188 210.484375 215.789062 210.484375 213.386719 L 210.484375 178.546875 C 210.484375 176.144531 208.53125 174.195312 206.128906 174.195312 L 153.871094 174.195312 C 151.46875 174.195312 149.515625 176.144531 149.515625 178.546875 L 149.515625 243.871094 L 132.097656 243.871094 L 132.097656 104.515625 L 149.515625 104.515625 C 151.921875 104.515625 153.871094 102.566406 153.871094 100.160156 C 153.871094 97.757812 151.921875 95.804688 149.515625 95.804688 L 130.207031 95.804688 L 96.238281 39.195312 L 263.761719 39.195312 L 229.792969 95.804688 L 166.933594 95.804688 C 164.53125 95.804688 162.582031 97.757812 162.582031 100.160156 C 162.582031 102.566406 164.53125 104.515625 166.933594 104.515625 L 227.902344 104.515625 Z M 236.613281 8.710938 L 245.324219 8.710938 L 245.324219 30.484375 L 236.613281 30.484375 Z M 119.03125 8.710938 L 127.742188 8.710938 L 127.742188 30.484375 L 119.03125 30.484375 Z M 53.710938 104.515625 L 123.386719 104.515625 L 123.386719 261.289062 L 53.710938 261.289062 Z M 236.613281 261.289062 L 236.613281 104.515625 L 306.289062 104.515625 L 306.289062 261.289062 Z M 236.613281 261.289062 "/><path style=" stroke:none;fill-rule:nonzero;fill:#00a6f4;fill-opacity:1;" d="M 171.289062 206.855469 C 168.886719 206.855469 166.933594 208.804688 166.933594 211.210938 L 166.933594 215.566406 C 166.933594 217.96875 168.886719 219.917969 171.289062 219.917969 C 173.695312 219.917969 175.644531 217.96875 175.644531 215.566406 L 175.644531 211.210938 C 175.644531 208.804688 173.695312 206.855469 171.289062 206.855469 Z M 171.289062 206.855469 "/><path style=" stroke:none;fill-rule:nonzero;fill:#00a6f4;fill-opacity:1;" d="M 293.226562 113.226562 L 249.675781 113.226562 C 247.273438 113.226562 245.324219 115.175781 245.324219 117.582031 L 245.324219 161.128906 C 245.324219 163.53125 247.273438 165.484375 249.675781 165.484375 L 293.226562 165.484375 C 295.628906 165.484375 297.582031 163.53125 297.582031 161.128906 L 297.582031 117.582031 C 297.582031 115.175781 295.628906 113.226562 293.226562 113.226562 Z M 254.03125 121.933594 L 267.097656 121.933594 L 267.097656 156.773438 L 254.03125 156.773438 Z M 288.871094 156.773438 L 275.804688 156.773438 L 275.804688 121.933594 L 288.871094 121.933594 Z M 288.871094 156.773438 "/><path style=" stroke:none;fill-rule:nonzero;fill:#00a6f4;fill-opacity:1;" d="M 293.226562 200.324219 L 249.675781 200.324219 C 247.273438 200.324219 245.324219 202.273438 245.324219 204.675781 L 245.324219 248.226562 C 245.324219 250.628906 247.273438 252.582031 249.675781 252.582031 L 293.226562 252.582031 C 295.628906 252.582031 297.582031 250.628906 297.582031 248.226562 L 297.582031 204.675781 C 297.582031 202.273438 295.628906 200.324219 293.226562 200.324219 Z M 254.03125 209.03125 L 267.097656 209.03125 L 267.097656 243.871094 L 254.03125 243.871094 Z M 288.871094 243.871094 L 275.804688 243.871094 L 275.804688 209.03125 L 288.871094 209.03125 Z M 288.871094 243.871094 "/><path style=" stroke:none;fill-rule:nonzero;fill:#00a6f4;fill-opacity:1;" d="M 110.324219 113.226562 L 66.773438 113.226562 C 64.371094 113.226562 62.417969 115.175781 62.417969 117.582031 L 62.417969 161.128906 C 62.417969 163.53125 64.371094 165.484375 66.773438 165.484375 L 110.324219 165.484375 C 112.726562 165.484375 114.675781 163.53125 114.675781 161.128906 L 114.675781 117.582031 C 114.675781 115.175781 112.726562 113.226562 110.324219 113.226562 Z M 71.128906 121.933594 L 84.195312 121.933594 L 84.195312 156.773438 L 71.128906 156.773438 Z M 105.96875 156.773438 L 92.902344 156.773438 L 92.902344 121.933594 L 105.96875 121.933594 Z M 105.96875 156.773438 "/><path style=" stroke:none;fill-rule:nonzero;fill:#00a6f4;fill-opacity:1;" d="M 110.324219 200.324219 L 66.773438 200.324219 C 64.371094 200.324219 62.417969 202.273438 62.417969 204.675781 L 62.417969 222.097656 C 62.417969 224.5 64.371094 226.453125 66.773438 226.453125 C 69.179688 226.453125 71.128906 224.5 71.128906 222.097656 L 71.128906 209.03125 L 84.195312 209.03125 L 84.195312 243.871094 L 71.128906 243.871094 L 71.128906 239.515625 C 71.128906 237.113281 69.179688 235.160156 66.773438 235.160156 C 64.371094 235.160156 62.417969 237.113281 62.417969 239.515625 L 62.417969 248.226562 C 62.417969 250.628906 64.371094 252.582031 66.773438 252.582031 L 110.324219 252.582031 C 112.726562 252.582031 114.675781 250.628906 114.675781 248.226562 L 114.675781 204.675781 C 114.675781 202.273438 112.726562 200.324219 110.324219 200.324219 Z M 105.96875 243.871094 L 92.902344 243.871094 L 92.902344 209.03125 L 105.96875 209.03125 Z M 105.96875 243.871094 "/></g></svg>