<svg xmlns="http://www.w3.org/2000/svg" xmlns:xlink="http://www.w3.org/1999/xlink" width="480" zoomAndPan="magnify" viewBox="0 0 360 269.999989" height="360" preserveAspectRatio="xMidYMid meet" version="1.2"><defs><clipPath id="cbb9948bef"><path d="M 38.023438 189 L 101 189 L 101 270 L 38.023438 270 Z M 38.023438 189 "/></clipPath></defs><g id="8a5c5af739"><path style=" stroke:none;fill-rule:nonzero;fill:#00a6f4;fill-opacity:1;" d="M 173.546875 194.4375 C 173.082031 194.4375 172.628906 194.371094 172.183594 194.234375 C 171.738281 194.097656 171.324219 193.902344 170.9375 193.644531 C 170.550781 193.386719 170.210938 193.074219 169.917969 192.714844 C 169.625 192.355469 169.386719 191.960938 169.210938 191.53125 C 169.035156 191.101562 168.921875 190.65625 168.878906 190.195312 C 168.835938 189.730469 168.859375 189.273438 168.949219 188.816406 C 169.042969 188.359375 169.199219 187.929688 169.417969 187.519531 C 169.640625 187.109375 169.914062 186.742188 170.246094 186.414062 L 223.878906 133.1875 C 224.570312 132.507812 225.308594 131.890625 226.101562 131.332031 C 226.355469 131.152344 226.621094 131 226.902344 130.875 C 227.183594 130.746094 227.476562 130.648438 227.777344 130.578125 C 228.082031 130.511719 228.386719 130.472656 228.695312 130.464844 C 229.003906 130.453125 229.3125 130.476562 229.617188 130.527344 C 229.921875 130.582031 230.21875 130.664062 230.507812 130.773438 C 230.796875 130.882812 231.070312 131.023438 231.332031 131.1875 C 231.59375 131.351562 231.835938 131.542969 232.0625 131.753906 C 232.285156 131.96875 232.484375 132.203125 232.664062 132.457031 C 232.839844 132.707031 232.992188 132.976562 233.117188 133.257812 C 233.242188 133.542969 233.339844 133.835938 233.40625 134.136719 C 233.472656 134.4375 233.507812 134.746094 233.515625 135.054688 C 233.523438 135.363281 233.5 135.671875 233.445312 135.976562 C 233.390625 136.28125 233.308594 136.574219 233.195312 136.863281 C 233.082031 137.152344 232.941406 137.425781 232.773438 137.6875 C 232.605469 137.945312 232.414062 138.1875 232.199219 138.410156 C 231.984375 138.632812 231.75 138.832031 231.496094 139.007812 C 231.144531 139.257812 230.8125 139.53125 230.507812 139.835938 L 176.832031 193.101562 C 175.917969 193.992188 174.824219 194.4375 173.546875 194.4375 Z M 173.546875 194.4375 "/><path style=" stroke:none;fill-rule:nonzero;fill:#00a6f4;fill-opacity:1;" d="M 248.238281 148.003906 C 247.683594 148.003906 247.144531 147.910156 246.621094 147.714844 C 246.101562 147.523438 245.628906 147.246094 245.203125 146.886719 C 244.78125 146.527344 244.429688 146.105469 244.15625 145.621094 C 243.882812 145.136719 243.703125 144.617188 243.613281 144.070312 C 243.347656 142.449219 242.636719 141.054688 241.472656 139.894531 C 241.15625 139.574219 240.816406 139.285156 240.445312 139.027344 C 240.191406 138.851562 239.960938 138.652344 239.746094 138.429688 C 239.53125 138.210938 239.339844 137.96875 239.175781 137.710938 C 239.007812 137.449219 238.867188 137.179688 238.753906 136.890625 C 238.640625 136.605469 238.558594 136.308594 238.503906 136.007812 C 238.449219 135.703125 238.421875 135.398438 238.429688 135.089844 C 238.433594 134.78125 238.46875 134.476562 238.535156 134.175781 C 238.601562 133.875 238.695312 133.582031 238.816406 133.300781 C 238.941406 133.019531 239.089844 132.75 239.265625 132.496094 C 239.441406 132.242188 239.636719 132.011719 239.859375 131.796875 C 240.082031 131.582031 240.320312 131.390625 240.582031 131.226562 C 240.839844 131.058594 241.113281 130.917969 241.398438 130.804688 C 241.6875 130.691406 241.980469 130.609375 242.285156 130.554688 C 242.585938 130.5 242.894531 130.472656 243.203125 130.480469 C 243.507812 130.484375 243.8125 130.519531 244.113281 130.585938 C 244.417969 130.652344 244.707031 130.746094 244.992188 130.867188 C 245.273438 130.992188 245.539062 131.140625 245.792969 131.316406 C 246.636719 131.898438 247.417969 132.554688 248.140625 133.285156 C 249.394531 134.542969 250.425781 135.964844 251.238281 137.546875 C 252.046875 139.128906 252.59375 140.796875 252.878906 142.550781 C 252.929688 142.855469 252.949219 143.160156 252.9375 143.46875 C 252.925781 143.777344 252.886719 144.082031 252.816406 144.382812 C 252.746094 144.679688 252.648438 144.972656 252.519531 145.25 C 252.390625 145.53125 252.238281 145.796875 252.058594 146.046875 C 251.878906 146.296875 251.675781 146.527344 251.453125 146.738281 C 251.226562 146.949219 250.984375 147.136719 250.722656 147.296875 C 250.460938 147.460938 250.183594 147.59375 249.894531 147.703125 C 249.609375 147.8125 249.3125 147.890625 249.007812 147.941406 C 248.753906 147.984375 248.496094 148.003906 248.238281 148.003906 Z M 248.238281 148.003906 "/><path style=" stroke:none;fill-rule:nonzero;fill:#00a6f4;fill-opacity:1;" d="M 220.3125 148 C 219.757812 148 219.21875 147.902344 218.699219 147.707031 C 218.175781 147.515625 217.703125 147.238281 217.28125 146.878906 C 216.859375 146.519531 216.511719 146.097656 216.238281 145.613281 C 215.964844 145.128906 215.78125 144.613281 215.691406 144.0625 C 215.425781 142.445312 214.710938 141.054688 213.550781 139.894531 C 213.238281 139.574219 212.894531 139.285156 212.527344 139.027344 C 212.273438 138.851562 212.039062 138.652344 211.824219 138.429688 C 211.609375 138.210938 211.421875 137.96875 211.253906 137.710938 C 211.085938 137.449219 210.945312 137.179688 210.832031 136.890625 C 210.71875 136.605469 210.636719 136.308594 210.582031 136.007812 C 210.527344 135.703125 210.5 135.398438 210.507812 135.089844 C 210.511719 134.78125 210.546875 134.476562 210.613281 134.175781 C 210.679688 133.875 210.773438 133.582031 210.894531 133.300781 C 211.019531 133.015625 211.167969 132.75 211.34375 132.496094 C 211.519531 132.242188 211.71875 132.007812 211.9375 131.792969 C 212.160156 131.582031 212.402344 131.390625 212.660156 131.222656 C 212.917969 131.054688 213.191406 130.917969 213.480469 130.804688 C 213.765625 130.691406 214.0625 130.605469 214.363281 130.550781 C 214.667969 130.496094 214.972656 130.472656 215.28125 130.476562 C 215.589844 130.484375 215.894531 130.519531 216.195312 130.585938 C 216.496094 130.648438 216.789062 130.746094 217.070312 130.867188 C 217.355469 130.992188 217.621094 131.140625 217.875 131.316406 C 218.71875 131.898438 219.5 132.554688 220.21875 133.285156 C 221.472656 134.542969 222.503906 135.964844 223.316406 137.542969 C 224.125 139.125 224.671875 140.792969 224.957031 142.546875 C 225.007812 142.847656 225.027344 143.15625 225.019531 143.464844 C 225.007812 143.769531 224.96875 144.074219 224.898438 144.375 C 224.828125 144.675781 224.726562 144.964844 224.601562 145.246094 C 224.472656 145.527344 224.320312 145.792969 224.140625 146.042969 C 223.960938 146.292969 223.757812 146.523438 223.53125 146.734375 C 223.308594 146.941406 223.0625 147.128906 222.800781 147.292969 C 222.539062 147.453125 222.265625 147.589844 221.976562 147.699219 C 221.6875 147.804688 221.390625 147.886719 221.089844 147.933594 C 220.832031 147.976562 220.574219 148 220.3125 148 Z M 220.3125 148 "/><path style=" stroke:none;fill-rule:nonzero;fill:#00a6f4;fill-opacity:1;" d="M 145.605469 194.4375 C 145.140625 194.4375 144.683594 194.371094 144.238281 194.234375 C 143.792969 194.101562 143.378906 193.90625 142.992188 193.644531 C 142.605469 193.386719 142.265625 193.078125 141.96875 192.71875 C 141.675781 192.359375 141.441406 191.964844 141.261719 191.535156 C 141.085938 191.105469 140.976562 190.660156 140.929688 190.195312 C 140.886719 189.734375 140.910156 189.273438 141 188.816406 C 141.09375 188.363281 141.25 187.929688 141.46875 187.519531 C 141.691406 187.113281 141.964844 186.742188 142.296875 186.414062 L 195.9375 133.191406 C 196.621094 132.507812 197.363281 131.886719 198.160156 131.332031 C 198.410156 131.144531 198.679688 130.984375 198.960938 130.851562 C 199.246094 130.71875 199.539062 130.613281 199.84375 130.539062 C 200.148438 130.464844 200.457031 130.421875 200.769531 130.410156 C 201.082031 130.394531 201.394531 130.414062 201.703125 130.464844 C 202.015625 130.515625 202.316406 130.59375 202.609375 130.703125 C 202.902344 130.816406 203.183594 130.953125 203.449219 131.121094 C 203.714844 131.285156 203.960938 131.476562 204.1875 131.691406 C 204.414062 131.910156 204.621094 132.144531 204.800781 132.402344 C 204.980469 132.65625 205.132812 132.929688 205.257812 133.214844 C 205.382812 133.503906 205.480469 133.800781 205.546875 134.105469 C 205.613281 134.414062 205.648438 134.722656 205.652344 135.035156 C 205.65625 135.351562 205.628906 135.660156 205.570312 135.96875 C 205.511719 136.277344 205.421875 136.578125 205.304688 136.867188 C 205.1875 137.15625 205.039062 137.433594 204.867188 137.695312 C 204.691406 137.953125 204.496094 138.195312 204.273438 138.417969 C 204.050781 138.640625 203.808594 138.835938 203.546875 139.007812 C 203.195312 139.257812 202.863281 139.53125 202.558594 139.835938 L 148.917969 193.101562 C 147.996094 194 146.890625 194.445312 145.605469 194.4375 Z M 145.605469 194.4375 "/><path style=" stroke:none;fill-rule:nonzero;fill:#00a6f4;fill-opacity:1;" d="M 201.449219 194.859375 L 135.292969 194.859375 C 134.4375 194.863281 133.640625 194.644531 132.898438 194.210938 C 132.160156 193.777344 131.585938 193.183594 131.171875 192.429688 C 130.757812 191.679688 130.5625 190.875 130.589844 190.019531 C 130.621094 189.160156 130.863281 188.371094 131.324219 187.648438 L 150.96875 156.871094 C 152.53125 154.445312 154.164062 152.011719 155.703125 149.804688 C 155.964844 149.433594 156.1875 149.039062 156.382812 148.628906 C 156.574219 148.214844 156.726562 147.789062 156.84375 147.351562 C 156.960938 146.910156 157.039062 146.464844 157.078125 146.011719 C 157.113281 145.558594 157.113281 145.105469 157.074219 144.65625 C 157.03125 144.203125 156.949219 143.757812 156.832031 143.316406 C 156.710938 142.878906 156.554688 142.453125 156.359375 142.042969 C 156.164062 141.632812 155.9375 141.242188 155.671875 140.871094 C 155.410156 140.5 155.117188 140.15625 154.792969 139.835938 C 154.484375 139.53125 154.148438 139.253906 153.796875 139.003906 C 153.542969 138.828125 153.308594 138.628906 153.097656 138.40625 C 152.882812 138.183594 152.691406 137.945312 152.527344 137.6875 C 152.359375 137.425781 152.21875 137.152344 152.105469 136.867188 C 151.996094 136.582031 151.910156 136.285156 151.855469 135.980469 C 151.800781 135.679688 151.777344 135.375 151.78125 135.066406 C 151.789062 134.757812 151.824219 134.453125 151.890625 134.152344 C 151.953125 133.851562 152.050781 133.558594 152.171875 133.277344 C 152.296875 132.996094 152.445312 132.726562 152.621094 132.472656 C 152.796875 132.21875 152.996094 131.988281 153.21875 131.773438 C 153.4375 131.558594 153.679688 131.371094 153.9375 131.203125 C 154.199219 131.035156 154.46875 130.898438 154.757812 130.785156 C 155.042969 130.671875 155.339844 130.589844 155.640625 130.535156 C 155.945312 130.480469 156.25 130.453125 156.558594 130.460938 C 156.867188 130.464844 157.171875 130.5 157.472656 130.566406 C 157.773438 130.632812 158.066406 130.726562 158.347656 130.851562 C 158.628906 130.972656 158.898438 131.121094 159.148438 131.296875 C 159.953125 131.859375 160.699219 132.480469 161.394531 133.167969 C 162.109375 133.875 162.753906 134.632812 163.335938 135.453125 C 163.914062 136.269531 164.417969 137.132812 164.847656 138.039062 C 165.273438 138.945312 165.621094 139.882812 165.882812 140.851562 C 166.148438 141.816406 166.324219 142.800781 166.414062 143.796875 C 166.503906 144.796875 166.507812 145.796875 166.421875 146.792969 C 166.339844 147.792969 166.167969 148.777344 165.910156 149.746094 C 165.652344 150.714844 165.3125 151.652344 164.890625 152.5625 C 164.46875 153.472656 163.96875 154.335938 163.394531 155.160156 C 161.925781 157.269531 160.359375 159.605469 158.867188 161.914062 L 143.855469 185.476562 L 199.515625 185.476562 L 244.933594 140.199219 L 251.757812 133.320312 C 252.480469 132.59375 253.265625 131.933594 254.105469 131.34375 C 254.355469 131.167969 254.625 131.019531 254.90625 130.898438 C 255.1875 130.773438 255.480469 130.679688 255.78125 130.613281 C 256.082031 130.546875 256.386719 130.511719 256.695312 130.507812 C 257.003906 130.5 257.308594 130.527344 257.613281 130.582031 C 257.914062 130.636719 258.210938 130.71875 258.496094 130.832031 C 258.785156 130.945312 259.054688 131.082031 259.316406 131.25 C 259.574219 131.417969 259.816406 131.605469 260.039062 131.820312 C 260.257812 132.035156 260.457031 132.269531 260.632812 132.519531 C 260.808594 132.773438 260.957031 133.042969 261.082031 133.324219 C 261.203125 133.605469 261.300781 133.898438 261.363281 134.199219 C 261.429688 134.5 261.464844 134.804688 261.472656 135.113281 C 261.476562 135.421875 261.453125 135.726562 261.398438 136.027344 C 261.34375 136.332031 261.257812 136.628906 261.148438 136.914062 C 261.035156 137.199219 260.894531 137.472656 260.726562 137.734375 C 260.5625 137.992188 260.371094 138.230469 260.15625 138.453125 C 259.945312 138.675781 259.710938 138.875 259.457031 139.050781 C 259.074219 139.324219 258.71875 139.628906 258.390625 139.964844 L 251.578125 146.828125 L 204.769531 193.492188 C 203.851562 194.40625 202.742188 194.863281 201.449219 194.859375 Z M 201.449219 194.859375 "/><path style=" stroke:none;fill-rule:nonzero;fill:#00a6f4;fill-opacity:1;" d="M 95.945312 252.328125 L 95.265625 252.328125 C 94.085938 252.277344 93.066406 251.84375 92.210938 251.027344 C 91.851562 250.691406 91.554688 250.304688 91.316406 249.875 C 91.078125 249.445312 90.910156 248.984375 90.816406 248.503906 C 90.722656 248.019531 90.707031 247.53125 90.765625 247.042969 C 90.824219 246.554688 90.957031 246.085938 91.164062 245.640625 C 91.371094 245.191406 91.640625 244.789062 91.976562 244.425781 C 92.308594 244.066406 92.691406 243.761719 93.121094 243.519531 C 93.550781 243.28125 94.003906 243.109375 94.488281 243.011719 C 94.96875 242.914062 95.457031 242.890625 95.945312 242.945312 C 96.339844 242.945312 96.730469 242.914062 97.117188 242.851562 L 208.445312 215.363281 C 208.550781 215.332031 208.660156 215.308594 208.765625 215.292969 C 210.332031 215.019531 211.6875 214.332031 212.832031 213.226562 L 269.15625 151.113281 L 269.328125 150.929688 C 269.6875 150.570312 270.011719 150.179688 270.296875 149.757812 C 270.578125 149.332031 270.820312 148.886719 271.015625 148.417969 C 271.210938 147.945312 271.359375 147.460938 271.460938 146.960938 C 271.5625 146.460938 271.613281 145.957031 271.617188 145.449219 C 271.617188 144.9375 271.570312 144.433594 271.472656 143.933594 C 271.375 143.433594 271.230469 142.945312 271.039062 142.476562 C 270.84375 142.003906 270.609375 141.554688 270.328125 141.128906 C 270.046875 140.703125 269.726562 140.308594 269.367188 139.949219 C 269.046875 139.625 268.699219 139.332031 268.324219 139.074219 C 268.054688 138.90625 267.804688 138.714844 267.574219 138.496094 C 267.34375 138.28125 267.136719 138.042969 266.957031 137.785156 C 266.773438 137.523438 266.617188 137.25 266.492188 136.960938 C 266.367188 136.667969 266.269531 136.367188 266.203125 136.058594 C 266.136719 135.75 266.105469 135.4375 266.101562 135.121094 C 266.097656 134.800781 266.128906 134.488281 266.191406 134.179688 C 266.25 133.867188 266.34375 133.566406 266.464844 133.273438 C 266.585938 132.980469 266.738281 132.703125 266.914062 132.441406 C 267.09375 132.179688 267.296875 131.941406 267.523438 131.71875 C 267.75 131.5 268 131.300781 268.265625 131.132812 C 268.53125 130.960938 268.8125 130.820312 269.109375 130.707031 C 269.402344 130.59375 269.707031 130.507812 270.019531 130.457031 C 270.332031 130.40625 270.648438 130.382812 270.964844 130.394531 C 271.28125 130.40625 271.59375 130.449219 271.902344 130.527344 C 272.207031 130.601562 272.503906 130.707031 272.792969 130.839844 C 273.078125 130.976562 273.347656 131.136719 273.601562 131.328125 C 274.472656 131.921875 275.273438 132.59375 276.011719 133.34375 C 276.40625 133.742188 276.777344 134.15625 277.128906 134.589844 C 277.484375 135.023438 277.8125 135.472656 278.121094 135.9375 C 278.429688 136.40625 278.714844 136.882812 278.976562 137.378906 C 279.238281 137.871094 279.476562 138.375 279.6875 138.894531 C 279.902344 139.410156 280.085938 139.933594 280.25 140.46875 C 280.410156 141.003906 280.542969 141.546875 280.652344 142.09375 C 280.761719 142.640625 280.84375 143.195312 280.894531 143.75 C 280.949219 144.304688 280.976562 144.863281 280.976562 145.421875 C 280.976562 145.980469 280.949219 146.539062 280.894531 147.09375 C 280.84375 147.648438 280.761719 148.203125 280.652344 148.75 C 280.542969 149.296875 280.410156 149.839844 280.25 150.375 C 280.085938 150.910156 279.902344 151.433594 279.6875 151.949219 C 279.476562 152.46875 279.238281 152.972656 278.976562 153.464844 C 278.714844 153.960938 278.429688 154.4375 278.121094 154.90625 C 277.8125 155.371094 277.484375 155.820312 277.128906 156.253906 C 276.777344 156.6875 276.40625 157.101562 276.011719 157.5 L 219.667969 219.660156 L 219.492188 219.847656 C 218.269531 221.0625 216.894531 222.074219 215.367188 222.871094 C 213.835938 223.671875 212.222656 224.226562 210.527344 224.539062 L 99.164062 252.042969 C 99.054688 252.070312 98.945312 252.09375 98.832031 252.113281 C 97.875 252.265625 96.914062 252.339844 95.945312 252.328125 Z M 216.234375 216.480469 Z M 216.234375 216.480469 "/><path style=" stroke:none;fill-rule:nonzero;fill:#00a6f4;fill-opacity:1;" d="M 95.441406 199.210938 C 95 199.210938 94.566406 199.148438 94.144531 199.023438 C 93.722656 198.898438 93.324219 198.71875 92.949219 198.484375 C 92.578125 198.246094 92.246094 197.964844 91.953125 197.632812 C 91.660156 197.304688 91.417969 196.941406 91.230469 196.542969 C 91.039062 196.144531 90.90625 195.726562 90.835938 195.292969 C 90.761719 194.859375 90.75 194.421875 90.800781 193.984375 C 90.851562 193.542969 90.960938 193.121094 91.132812 192.714844 C 91.300781 192.308594 91.523438 191.933594 91.800781 191.585938 L 136.777344 133.726562 C 136.890625 133.578125 137.011719 133.4375 137.140625 133.304688 C 137.863281 132.578125 138.644531 131.921875 139.488281 131.339844 C 139.738281 131.132812 140.007812 130.957031 140.292969 130.804688 C 140.582031 130.65625 140.882812 130.539062 141.195312 130.449219 C 141.503906 130.363281 141.824219 130.308594 142.148438 130.285156 C 142.46875 130.265625 142.792969 130.277344 143.113281 130.320312 C 143.433594 130.367188 143.746094 130.441406 144.050781 130.550781 C 144.355469 130.664062 144.648438 130.800781 144.921875 130.972656 C 145.199219 131.140625 145.453125 131.339844 145.691406 131.5625 C 145.925781 131.785156 146.132812 132.027344 146.320312 132.296875 C 146.503906 132.5625 146.660156 132.84375 146.785156 133.144531 C 146.910156 133.441406 147.003906 133.75 147.066406 134.066406 C 147.128906 134.386719 147.15625 134.707031 147.152344 135.03125 C 147.148438 135.355469 147.113281 135.675781 147.039062 135.992188 C 146.96875 136.308594 146.867188 136.613281 146.734375 136.90625 C 146.597656 137.203125 146.4375 137.480469 146.246094 137.742188 C 146.050781 138.003906 145.835938 138.242188 145.59375 138.457031 C 145.355469 138.675781 145.09375 138.863281 144.8125 139.027344 C 144.519531 139.242188 144.246094 139.476562 143.992188 139.738281 L 99.152344 197.421875 C 99.054688 197.550781 98.949219 197.667969 98.84375 197.785156 C 98.398438 198.246094 97.878906 198.597656 97.289062 198.847656 C 96.699219 199.09375 96.082031 199.214844 95.441406 199.210938 Z M 95.441406 199.210938 "/><g clip-rule="nonzero" clip-path="url(#cbb9948bef)"><path style=" stroke:none;fill-rule:nonzero;fill:#00a6f4;fill-opacity:1;" d="M 95.441406 269.921875 L 42.710938 269.921875 C 42.402344 269.921875 42.097656 269.890625 41.796875 269.832031 C 41.492188 269.773438 41.199219 269.683594 40.914062 269.566406 C 40.628906 269.445312 40.359375 269.300781 40.105469 269.132812 C 39.847656 268.960938 39.609375 268.765625 39.394531 268.546875 C 39.175781 268.332031 38.980469 268.09375 38.808594 267.835938 C 38.636719 267.582031 38.492188 267.308594 38.375 267.027344 C 38.257812 266.742188 38.167969 266.449219 38.109375 266.144531 C 38.050781 265.84375 38.019531 265.539062 38.019531 265.230469 L 38.019531 194.519531 C 38.019531 194.210938 38.050781 193.90625 38.109375 193.605469 C 38.167969 193.300781 38.257812 193.007812 38.375 192.726562 C 38.492188 192.441406 38.636719 192.167969 38.808594 191.914062 C 38.980469 191.65625 39.175781 191.421875 39.394531 191.203125 C 39.609375 190.984375 39.847656 190.789062 40.105469 190.621094 C 40.359375 190.449219 40.628906 190.304688 40.914062 190.1875 C 41.199219 190.066406 41.492188 189.980469 41.796875 189.917969 C 42.097656 189.859375 42.402344 189.828125 42.710938 189.828125 L 95.441406 189.828125 C 95.75 189.828125 96.054688 189.859375 96.355469 189.917969 C 96.660156 189.980469 96.953125 190.066406 97.238281 190.1875 C 97.519531 190.304688 97.792969 190.449219 98.046875 190.621094 C 98.304688 190.789062 98.539062 190.984375 98.757812 191.203125 C 98.976562 191.421875 99.171875 191.65625 99.34375 191.914062 C 99.511719 192.167969 99.65625 192.441406 99.777344 192.726562 C 99.894531 193.007812 99.984375 193.300781 100.042969 193.605469 C 100.101562 193.90625 100.132812 194.210938 100.132812 194.519531 L 100.132812 265.230469 C 100.132812 265.539062 100.101562 265.84375 100.042969 266.144531 C 99.984375 266.449219 99.894531 266.742188 99.777344 267.027344 C 99.65625 267.308594 99.511719 267.582031 99.34375 267.835938 C 99.171875 268.09375 98.976562 268.332031 98.757812 268.546875 C 98.539062 268.765625 98.304688 268.960938 98.046875 269.132812 C 97.792969 269.300781 97.519531 269.445312 97.238281 269.566406 C 96.953125 269.683594 96.660156 269.773438 96.355469 269.832031 C 96.054688 269.890625 95.75 269.921875 95.441406 269.921875 Z M 47.402344 260.539062 L 90.75 260.539062 L 90.75 199.210938 L 47.402344 199.210938 Z M 47.402344 260.539062 "/></g><path style=" stroke:none;fill-rule:nonzero;fill:#00a6f4;fill-opacity:1;" d="M 307.902344 139.859375 L 95.449219 139.859375 C 94.523438 139.859375 93.609375 139.769531 92.703125 139.589844 C 91.796875 139.410156 90.914062 139.140625 90.0625 138.789062 C 89.207031 138.433594 88.398438 138 87.628906 137.488281 C 86.859375 136.972656 86.148438 136.390625 85.496094 135.738281 C 84.84375 135.082031 84.257812 134.371094 83.746094 133.605469 C 83.230469 132.835938 82.796875 132.023438 82.445312 131.171875 C 82.089844 130.316406 81.824219 129.4375 81.644531 128.53125 C 81.464844 127.625 81.375 126.710938 81.375 125.785156 L 81.375 125.285156 C 81.375 124.363281 81.464844 123.449219 81.644531 122.542969 C 81.824219 121.636719 82.089844 120.753906 82.445312 119.902344 C 82.796875 119.046875 83.230469 118.234375 83.746094 117.46875 C 84.257812 116.699219 84.84375 115.988281 85.496094 115.335938 C 86.148438 114.683594 86.859375 114.097656 87.628906 113.585938 C 88.398438 113.070312 89.207031 112.636719 90.0625 112.285156 C 90.914062 111.929688 91.796875 111.664062 92.703125 111.484375 C 93.609375 111.304688 94.523438 111.214844 95.449219 111.214844 L 307.902344 111.214844 C 308.824219 111.214844 309.742188 111.304688 310.648438 111.484375 C 311.554688 111.664062 312.433594 111.929688 313.289062 112.285156 C 314.140625 112.636719 314.953125 113.070312 315.722656 113.585938 C 316.488281 114.097656 317.199219 114.683594 317.855469 115.335938 C 318.507812 115.988281 319.089844 116.699219 319.605469 117.46875 C 320.117188 118.234375 320.550781 119.046875 320.90625 119.902344 C 321.257812 120.753906 321.523438 121.636719 321.707031 122.542969 C 321.886719 123.449219 321.976562 124.363281 321.976562 125.285156 L 321.976562 125.785156 C 321.976562 126.710938 321.886719 127.625 321.707031 128.53125 C 321.523438 129.4375 321.257812 130.316406 320.90625 131.171875 C 320.550781 132.023438 320.117188 132.835938 319.605469 133.605469 C 319.089844 134.371094 318.507812 135.082031 317.855469 135.738281 C 317.199219 136.390625 316.488281 136.972656 315.722656 137.488281 C 314.953125 138 314.140625 138.433594 313.289062 138.789062 C 312.433594 139.140625 311.554688 139.410156 310.648438 139.589844 C 309.742188 139.769531 308.824219 139.859375 307.902344 139.859375 Z M 95.449219 120.59375 C 95.140625 120.59375 94.835938 120.625 94.53125 120.6875 C 94.230469 120.746094 93.9375 120.835938 93.652344 120.953125 C 93.367188 121.070312 93.097656 121.214844 92.839844 121.386719 C 92.585938 121.558594 92.347656 121.75 92.128906 121.96875 C 91.914062 122.1875 91.71875 122.425781 91.546875 122.679688 C 91.375 122.9375 91.230469 123.207031 91.113281 123.492188 C 90.996094 123.777344 90.90625 124.070312 90.847656 124.371094 C 90.785156 124.675781 90.757812 124.980469 90.757812 125.285156 L 90.757812 125.785156 C 90.757812 126.09375 90.785156 126.398438 90.847656 126.699219 C 90.90625 127.003906 90.996094 127.296875 91.113281 127.582031 C 91.230469 127.867188 91.375 128.136719 91.546875 128.390625 C 91.71875 128.648438 91.914062 128.886719 92.128906 129.101562 C 92.347656 129.320312 92.585938 129.515625 92.839844 129.6875 C 93.097656 129.855469 93.367188 130 93.652344 130.121094 C 93.9375 130.238281 94.230469 130.328125 94.53125 130.386719 C 94.835938 130.445312 95.140625 130.476562 95.449219 130.476562 L 307.902344 130.476562 C 308.210938 130.476562 308.515625 130.445312 308.816406 130.386719 C 309.121094 130.328125 309.414062 130.238281 309.699219 130.121094 C 309.980469 130 310.253906 129.855469 310.507812 129.6875 C 310.765625 129.515625 311 129.320312 311.21875 129.101562 C 311.4375 128.886719 311.632812 128.648438 311.800781 128.390625 C 311.972656 128.136719 312.117188 127.867188 312.234375 127.582031 C 312.355469 127.296875 312.441406 127.003906 312.503906 126.699219 C 312.5625 126.398438 312.59375 126.09375 312.59375 125.785156 L 312.59375 125.285156 C 312.59375 124.980469 312.5625 124.675781 312.503906 124.371094 C 312.441406 124.070312 312.355469 123.777344 312.234375 123.492188 C 312.117188 123.207031 311.972656 122.9375 311.800781 122.679688 C 311.632812 122.425781 311.4375 122.1875 311.21875 121.96875 C 311 121.75 310.765625 121.558594 310.507812 121.386719 C 310.253906 121.214844 309.980469 121.070312 309.699219 120.953125 C 309.414062 120.835938 309.121094 120.746094 308.816406 120.6875 C 308.515625 120.625 308.210938 120.59375 307.902344 120.59375 Z M 95.449219 120.59375 "/><path style=" stroke:none;fill-rule:nonzero;fill:#00a6f4;fill-opacity:1;" d="M 307.648438 120.59375 L 105.335938 120.59375 C 105.027344 120.59375 104.722656 120.566406 104.417969 120.503906 C 104.117188 120.445312 103.824219 120.355469 103.539062 120.238281 C 103.253906 120.121094 102.984375 119.976562 102.726562 119.804688 C 102.472656 119.632812 102.234375 119.4375 102.015625 119.222656 C 101.800781 119.003906 101.605469 118.765625 101.433594 118.511719 C 101.261719 118.253906 101.117188 117.984375 101 117.699219 C 100.882812 117.414062 100.792969 117.121094 100.734375 116.820312 C 100.671875 116.515625 100.644531 116.210938 100.644531 115.90625 L 100.644531 113.265625 C 100.644531 56.351562 146.941406 10.054688 203.851562 10.054688 L 209.132812 10.054688 C 266.042969 10.054688 312.339844 56.382812 312.339844 113.265625 L 312.339844 115.90625 C 312.339844 116.210938 312.3125 116.515625 312.25 116.820312 C 312.191406 117.121094 312.101562 117.414062 311.984375 117.699219 C 311.867188 117.984375 311.722656 118.253906 311.550781 118.511719 C 311.378906 118.765625 311.183594 119.003906 310.96875 119.222656 C 310.75 119.4375 310.511719 119.632812 310.257812 119.804688 C 310 119.976562 309.730469 120.121094 309.445312 120.238281 C 309.160156 120.355469 308.867188 120.445312 308.566406 120.503906 C 308.261719 120.566406 307.957031 120.59375 307.648438 120.59375 Z M 110.027344 111.214844 L 302.933594 111.214844 C 301.839844 60.417969 260.179688 19.4375 209.109375 19.4375 L 203.828125 19.4375 C 152.800781 19.4375 111.140625 60.417969 110.050781 111.214844 Z M 110.027344 111.214844 "/><path style=" stroke:none;fill-rule:nonzero;fill:#00a6f4;fill-opacity:1;" d="M 206.492188 19.4375 C 205.550781 19.4375 204.621094 19.347656 203.695312 19.164062 C 202.773438 18.980469 201.878906 18.707031 201.007812 18.347656 C 200.140625 17.988281 199.316406 17.546875 198.53125 17.023438 C 197.75 16.5 197.027344 15.90625 196.363281 15.242188 C 195.695312 14.578125 195.101562 13.851562 194.582031 13.070312 C 194.058594 12.289062 193.617188 11.464844 193.257812 10.59375 C 192.894531 9.726562 192.625 8.828125 192.441406 7.90625 C 192.257812 6.984375 192.164062 6.050781 192.164062 5.113281 C 192.164062 4.171875 192.257812 3.238281 192.441406 2.316406 C 192.625 1.394531 192.894531 0.5 193.257812 -0.371094 C 193.617188 -1.238281 194.058594 -2.066406 194.582031 -2.847656 C 195.101562 -3.628906 195.695312 -4.351562 196.363281 -5.019531 C 197.027344 -5.683594 197.75 -6.277344 198.53125 -6.800781 C 199.316406 -7.324219 200.140625 -7.765625 201.007812 -8.125 C 201.878906 -8.484375 202.773438 -8.753906 203.695312 -8.9375 C 204.621094 -9.121094 205.550781 -9.214844 206.492188 -9.214844 C 207.433594 -9.214844 208.363281 -9.121094 209.285156 -8.9375 C 210.210938 -8.753906 211.105469 -8.484375 211.972656 -8.125 C 212.84375 -7.765625 213.667969 -7.324219 214.453125 -6.800781 C 215.234375 -6.277344 215.957031 -5.683594 216.621094 -5.019531 C 217.289062 -4.351562 217.882812 -3.628906 218.402344 -2.847656 C 218.925781 -2.066406 219.367188 -1.238281 219.726562 -0.371094 C 220.085938 0.5 220.359375 1.394531 220.542969 2.316406 C 220.726562 3.238281 220.820312 4.171875 220.820312 5.113281 C 220.816406 6.050781 220.722656 6.984375 220.539062 7.90625 C 220.355469 8.828125 220.082031 9.722656 219.722656 10.589844 C 219.363281 11.460938 218.921875 12.285156 218.398438 13.066406 C 217.875 13.847656 217.28125 14.570312 216.617188 15.238281 C 215.953125 15.902344 215.230469 16.496094 214.449219 17.019531 C 213.664062 17.539062 212.839844 17.980469 211.972656 18.34375 C 211.101562 18.703125 210.207031 18.976562 209.285156 19.160156 C 208.363281 19.34375 207.433594 19.4375 206.492188 19.4375 Z M 206.492188 0.167969 C 206.167969 0.167969 205.847656 0.199219 205.527344 0.261719 C 205.210938 0.328125 204.898438 0.421875 204.601562 0.542969 C 204.300781 0.667969 204.015625 0.820312 203.746094 1 C 203.476562 1.179688 203.226562 1.386719 202.996094 1.617188 C 202.765625 1.84375 202.5625 2.09375 202.382812 2.363281 C 202.203125 2.636719 202.050781 2.921875 201.925781 3.21875 C 201.800781 3.519531 201.707031 3.828125 201.644531 4.148438 C 201.582031 4.464844 201.546875 4.785156 201.546875 5.113281 C 201.546875 5.4375 201.582031 5.757812 201.644531 6.074219 C 201.707031 6.394531 201.800781 6.703125 201.925781 7.003906 C 202.050781 7.304688 202.203125 7.589844 202.382812 7.859375 C 202.5625 8.128906 202.765625 8.378906 202.996094 8.605469 C 203.226562 8.835938 203.476562 9.042969 203.746094 9.222656 C 204.015625 9.402344 204.300781 9.554688 204.601562 9.679688 C 204.898438 9.804688 205.210938 9.898438 205.527344 9.960938 C 205.847656 10.023438 206.167969 10.054688 206.492188 10.054688 C 206.816406 10.054688 207.136719 10.023438 207.457031 9.960938 C 207.773438 9.898438 208.085938 9.804688 208.382812 9.679688 C 208.683594 9.554688 208.96875 9.402344 209.238281 9.222656 C 209.507812 9.042969 209.757812 8.835938 209.988281 8.605469 C 210.21875 8.378906 210.421875 8.128906 210.601562 7.859375 C 210.78125 7.589844 210.933594 7.304688 211.058594 7.003906 C 211.183594 6.703125 211.277344 6.394531 211.339844 6.074219 C 211.402344 5.757812 211.4375 5.4375 211.4375 5.113281 C 211.433594 4.789062 211.402344 4.464844 211.339844 4.148438 C 211.277344 3.828125 211.183594 3.519531 211.058594 3.222656 C 210.933594 2.921875 210.78125 2.636719 210.601562 2.367188 C 210.421875 2.097656 210.214844 1.847656 209.984375 1.617188 C 209.757812 1.386719 209.507812 1.183594 209.238281 1.003906 C 208.96875 0.824219 208.683594 0.671875 208.382812 0.546875 C 208.082031 0.421875 207.773438 0.328125 207.457031 0.265625 C 207.136719 0.199219 206.816406 0.167969 206.492188 0.167969 Z M 206.492188 0.167969 "/><path style=" stroke:none;fill-rule:nonzero;fill:#00a6f4;fill-opacity:1;" d="M 134.257812 82.027344 C 134.054688 82.027344 133.855469 82.015625 133.652344 81.988281 C 133.453125 81.960938 133.253906 81.921875 133.058594 81.871094 C 132.867188 81.820312 132.675781 81.757812 132.488281 81.679688 C 132.300781 81.605469 132.117188 81.515625 131.941406 81.417969 C 131.769531 81.316406 131.597656 81.207031 131.4375 81.085938 C 131.277344 80.964844 131.125 80.832031 130.980469 80.691406 C 130.835938 80.550781 130.699219 80.402344 130.574219 80.242188 C 130.449219 80.082031 130.335938 79.917969 130.230469 79.746094 C 130.128906 79.570312 130.035156 79.390625 129.957031 79.207031 C 129.875 79.023438 129.804688 78.832031 129.75 78.636719 C 129.695312 78.445312 129.652344 78.246094 129.621094 78.046875 C 129.589844 77.847656 129.570312 77.648438 129.566406 77.445312 C 129.5625 77.246094 129.570312 77.042969 129.589844 76.84375 C 129.613281 76.640625 129.648438 76.441406 129.695312 76.246094 C 129.742188 76.050781 129.800781 75.855469 129.871094 75.667969 C 129.945312 75.480469 130.027344 75.296875 130.121094 75.117188 C 132.578125 70.523438 135.421875 66.1875 138.65625 62.105469 C 141.894531 58.023438 145.46875 54.265625 149.382812 50.828125 C 153.296875 47.394531 157.484375 44.335938 161.949219 41.652344 C 166.414062 38.972656 171.085938 36.710938 175.957031 34.871094 C 176.246094 34.765625 176.542969 34.683594 176.847656 34.632812 C 177.152344 34.582031 177.457031 34.5625 177.765625 34.574219 C 178.074219 34.582031 178.378906 34.625 178.679688 34.695312 C 178.980469 34.761719 179.269531 34.863281 179.550781 34.988281 C 179.832031 35.117188 180.097656 35.269531 180.351562 35.449219 C 180.601562 35.628906 180.832031 35.832031 181.042969 36.058594 C 181.253906 36.28125 181.441406 36.527344 181.605469 36.789062 C 181.765625 37.050781 181.902344 37.324219 182.011719 37.613281 C 182.121094 37.902344 182.199219 38.199219 182.25 38.503906 C 182.300781 38.808594 182.320312 39.113281 182.3125 39.421875 C 182.300781 39.730469 182.261719 40.035156 182.191406 40.335938 C 182.121094 40.636719 182.023438 40.929688 181.894531 41.210938 C 181.769531 41.492188 181.613281 41.757812 181.433594 42.007812 C 181.253906 42.257812 181.050781 42.488281 180.828125 42.699219 C 180.601562 42.910156 180.359375 43.097656 180.097656 43.261719 C 179.835938 43.425781 179.558594 43.558594 179.269531 43.667969 C 174.921875 45.308594 170.757812 47.320312 166.769531 49.710938 C 162.785156 52.097656 159.046875 54.824219 155.554688 57.886719 C 152.0625 60.953125 148.871094 64.304688 145.980469 67.941406 C 143.09375 71.582031 140.554688 75.449219 138.363281 79.546875 C 137.957031 80.304688 137.386719 80.90625 136.648438 81.351562 C 135.914062 81.796875 135.117188 82.019531 134.257812 82.027344 Z M 134.257812 82.027344 "/></g></svg>