<svg xmlns="http://www.w3.org/2000/svg" xmlns:xlink="http://www.w3.org/1999/xlink" width="480" zoomAndPan="magnify" viewBox="0 0 360 269.999989" height="360" preserveAspectRatio="xMidYMid meet" version="1.2"><defs><clipPath id="705e8b0d81"><path d="M 124 0 L 357.75 0 L 357.75 169 L 124 169 Z M 124 0 "/></clipPath><clipPath id="d062133a53"><path d="M 278 218 L 357.75 218 L 357.75 270 L 278 270 Z M 278 218 "/></clipPath></defs><g id="b837278c83"><path style=" stroke:none;fill-rule:evenodd;fill:#00a6f4;fill-opacity:1;" d="M 88.824219 259.257812 L 88.90625 259.257812 C 91.148438 259.257812 92.992188 257.410156 92.992188 255.167969 L 92.992188 113.613281 C 92.992188 111.523438 94.195312 109.597656 96.121094 108.722656 C 98.046875 107.835938 100.289062 108.160156 101.902344 109.527344 L 113.53125 119.476562 C 114.734375 120.433594 116.417969 120.597656 117.699219 119.792969 L 148.269531 101.179688 C 150.441406 99.8125 151.15625 97.007812 149.871094 94.675781 C 148.585938 92.351562 145.621094 91.464844 143.214844 92.75 L 118.902344 106.550781 C 116.976562 107.671875 114.488281 107.4375 112.808594 105.988281 L 88.976562 86.175781 C 86.246094 83.929688 82.960938 82.730469 79.34375 82.730469 L 48.539062 82.730469 C 44.289062 82.730469 40.109375 84.574219 37.226562 87.867188 L 12.75 115.386719 C 11.792969 116.507812 11.628906 118.203125 12.433594 119.558594 C 21.742188 134.644531 35.625 157.027344 38.03125 160.800781 C 38.113281 160.878906 38.191406 160.960938 38.273438 161.042969 C 39.957031 162.574219 42.527344 162.808594 44.535156 161.605469 C 46.9375 160.074219 47.746094 156.875 46.132812 154.304688 L 29.285156 127.589844 C 27.835938 125.347656 28.328125 122.371094 30.324219 120.605469 L 44.441406 108.253906 C 46.683594 106.328125 50.058594 106.488281 52.066406 108.730469 C 53.992188 110.972656 53.828125 114.347656 51.585938 116.355469 L 40.914062 125.664062 L 55.359375 148.515625 C 55.359375 148.515625 55.359375 148.597656 55.441406 148.597656 C 60.015625 156.058594 57.765625 166.007812 50.382812 170.667969 C 47.011719 172.757812 43.085938 173.480469 39.46875 172.910156 L 39.46875 255.160156 C 39.550781 257.328125 41.3125 259.09375 43.554688 259.09375 C 43.554688 259.09375 43.554688 259.09375 43.636719 259.09375 L 47.40625 259.011719 C 49.652344 259.011719 51.425781 257.167969 51.425781 254.925781 L 51.425781 200.605469 C 51.425781 192.5 58 185.84375 66.113281 185.761719 L 66.355469 185.761719 C 74.542969 185.761719 81.199219 192.417969 81.199219 200.605469 L 81.199219 255.003906 C 81.199219 257.25 83.042969 259.023438 85.285156 259.09375 Z M 88.988281 270 L 88.742188 270 L 84.890625 269.917969 C 76.785156 269.835938 70.199219 263.097656 70.199219 255.078125 L 70.199219 200.675781 C 70.199219 198.433594 68.355469 196.585938 66.113281 196.585938 L 66.03125 196.585938 C 63.789062 196.667969 62.097656 198.433594 62.097656 200.675781 L 62.097656 254.996094 C 62.097656 263.097656 55.523438 269.753906 47.488281 269.835938 L 43.71875 269.917969 C 43.636719 269.917969 43.554688 269.917969 43.472656 269.917969 C 35.371094 269.917969 28.714844 263.414062 28.550781 255.3125 L 28.550781 165.84375 C 26.460938 162.472656 20.527344 153 3.269531 125.082031 C 3.269531 125.082031 3.269531 125.082031 3.269531 125 C 0.0585938 119.628906 0.621094 112.800781 4.71875 108.070312 L 29.109375 80.628906 C 34.085938 75.09375 41.148438 71.882812 48.449219 71.882812 L 79.261719 71.882812 C 85.277344 71.882812 91.21875 74.054688 95.796875 77.898438 L 116.742188 95.390625 L 138.007812 83.351562 C 138.007812 83.351562 138.085938 83.351562 138.085938 83.269531 C 145.628906 79.179688 155.183594 81.902344 159.351562 89.445312 C 163.367188 96.824219 161.03125 105.980469 153.980469 110.3125 L 123.328125 129.007812 C 118.027344 132.21875 111.289062 131.738281 106.476562 127.722656 L 103.746094 125.398438 L 103.746094 255.238281 C 103.828125 263.34375 97.171875 270 88.988281 270 Z M 88.988281 270 "/><path style=" stroke:none;fill-rule:evenodd;fill:#00a6f4;fill-opacity:1;" d="M 64.429688 10.824219 C 51.027344 10.824219 40.039062 21.742188 40.039062 35.21875 C 40.039062 48.621094 50.957031 59.609375 64.429688 59.609375 C 77.835938 59.609375 88.824219 48.695312 88.824219 35.21875 C 88.824219 21.742188 77.90625 10.824219 64.429688 10.824219 Z M 64.429688 70.363281 C 45.011719 70.363281 29.285156 54.554688 29.285156 35.21875 C 29.285156 15.800781 45.09375 0.0703125 64.429688 0.0703125 C 83.847656 0.0703125 99.578125 15.882812 99.578125 35.21875 C 99.578125 54.554688 83.847656 70.363281 64.429688 70.363281 Z M 64.429688 70.363281 "/><g clip-rule="nonzero" clip-path="url(#705e8b0d81)"><path style=" stroke:none;fill-rule:evenodd;fill:#00a6f4;fill-opacity:1;" d="M 352.097656 168.097656 L 269.847656 168.097656 C 266.878906 168.097656 264.472656 165.691406 264.472656 162.726562 C 264.472656 159.757812 266.878906 157.355469 269.847656 157.355469 L 346.632812 157.355469 L 346.632812 10.742188 L 134.957031 10.742188 L 134.957031 94.277344 C 134.957031 97.242188 132.550781 99.648438 129.585938 99.648438 C 126.621094 99.648438 124.214844 97.242188 124.214844 94.277344 L 124.214844 5.371094 C 124.214844 2.40625 126.621094 0 129.585938 0 L 352.097656 0 C 355.0625 0 357.46875 2.40625 357.46875 5.371094 L 357.46875 162.726562 C 357.46875 165.691406 355.0625 168.097656 352.097656 168.097656 Z M 352.097656 168.097656 "/></g><path style=" stroke:none;fill-rule:evenodd;fill:#00a6f4;fill-opacity:1;" d="M 210.226562 168.097656 L 129.503906 168.097656 C 126.539062 168.097656 124.132812 165.691406 124.132812 162.726562 L 124.132812 118.832031 C 124.132812 115.867188 126.539062 113.460938 129.503906 113.460938 C 132.472656 113.460938 134.875 115.867188 134.875 118.832031 L 134.875 157.355469 L 210.226562 157.355469 C 213.191406 157.355469 215.597656 159.757812 215.597656 162.726562 C 215.6875 165.691406 213.191406 168.097656 210.226562 168.097656 Z M 210.226562 168.097656 "/><path style=" stroke:none;fill-rule:evenodd;fill:#00a6f4;fill-opacity:1;" d="M 285.738281 44.933594 L 170.664062 44.933594 C 167.699219 44.933594 165.292969 42.527344 165.292969 39.558594 C 165.292969 36.59375 167.699219 34.1875 170.664062 34.1875 L 285.726562 34.1875 C 288.695312 34.1875 291.097656 36.59375 291.097656 39.558594 C 291.109375 42.527344 288.703125 44.933594 285.738281 44.933594 Z M 285.738281 44.933594 "/><path style=" stroke:none;fill-rule:evenodd;fill:#00a6f4;fill-opacity:1;" d="M 309.570312 76.785156 L 170.664062 76.785156 C 167.699219 76.785156 165.292969 74.378906 165.292969 71.414062 C 165.292969 68.449219 167.699219 66.042969 170.664062 66.042969 L 309.558594 66.042969 C 312.527344 66.042969 314.929688 68.449219 314.929688 71.414062 C 314.941406 74.378906 312.535156 76.785156 309.570312 76.785156 Z M 309.570312 76.785156 "/><path style=" stroke:none;fill-rule:evenodd;fill:#00a6f4;fill-opacity:1;" d="M 309.570312 108.558594 L 170.664062 108.558594 C 167.699219 108.558594 165.292969 106.152344 165.292969 103.1875 C 165.292969 100.21875 167.699219 97.816406 170.664062 97.816406 L 309.558594 97.816406 C 312.527344 97.816406 314.929688 100.21875 314.929688 103.1875 C 314.941406 106.152344 312.535156 108.558594 309.570312 108.558594 Z M 309.570312 108.558594 "/><path style=" stroke:none;fill-rule:evenodd;fill:#00a6f4;fill-opacity:1;" d="M 168.820312 178.605469 C 164.089844 178.605469 159.515625 180.289062 155.824219 183.417969 C 151.808594 186.863281 149.402344 191.765625 149.003906 196.976562 C 148.605469 202.277344 150.371094 207.402344 153.816406 211.417969 C 157.261719 215.433594 162.082031 217.839844 167.371094 218.238281 C 178.289062 219.042969 187.832031 210.777344 188.554688 199.859375 C 189.359375 188.941406 181.09375 179.402344 170.175781 178.679688 C 169.789062 178.605469 169.308594 178.605469 168.820312 178.605469 Z M 168.902344 229.164062 C 168.179688 229.164062 167.453125 229.164062 166.730469 229.085938 C 158.546875 228.523438 151.085938 224.75 145.710938 218.574219 C 140.339844 212.398438 137.691406 204.457031 138.332031 196.34375 C 138.894531 188.15625 142.664062 180.695312 148.839844 175.324219 C 155.019531 169.953125 162.960938 167.300781 171.074219 167.945312 C 187.921875 169.148438 200.683594 183.835938 199.480469 200.6875 C 198.269531 216.800781 184.792969 229.164062 168.902344 229.164062 Z M 168.902344 229.164062 "/><path style=" stroke:none;fill-rule:evenodd;fill:#00a6f4;fill-opacity:1;" d="M 186.160156 269.847656 L 127.984375 269.847656 C 126.539062 269.847656 125.171875 269.285156 124.132812 268.246094 C 123.09375 267.207031 122.53125 265.839844 122.53125 264.394531 C 122.613281 252.039062 127.507812 240.398438 136.253906 231.734375 C 145 223.152344 156.476562 218.410156 168.75 218.410156 C 168.832031 218.410156 168.992188 218.410156 169.066406 218.410156 C 180.214844 218.492188 190.890625 222.582031 199.238281 229.890625 C 201.480469 231.898438 201.722656 235.261719 199.714844 237.515625 C 197.707031 239.765625 194.34375 240 192.089844 237.992188 C 185.667969 232.375 177.484375 229.246094 168.902344 229.164062 C 168.820312 229.164062 168.738281 229.164062 168.65625 229.164062 C 159.269531 229.164062 150.441406 232.773438 143.785156 239.441406 C 138.332031 244.8125 134.875 251.640625 133.675781 259.101562 L 185.984375 259.101562 C 188.953125 259.101562 191.359375 261.507812 191.359375 264.476562 C 191.53125 267.441406 189.125 269.847656 186.160156 269.847656 Z M 186.160156 269.847656 "/><path style=" stroke:none;fill-rule:evenodd;fill:#00a6f4;fill-opacity:1;" d="M 311.25 178.605469 C 300.335938 178.605469 291.433594 187.515625 291.433594 198.421875 C 291.433594 209.328125 300.34375 218.238281 311.25 218.238281 C 322.15625 218.238281 331.066406 209.328125 331.066406 198.421875 C 331.066406 187.515625 322.238281 178.605469 311.25 178.605469 Z M 311.25 229.164062 C 294.320312 229.164062 280.601562 215.445312 280.601562 198.515625 C 280.601562 181.582031 294.320312 167.863281 311.25 167.863281 C 328.183594 167.863281 341.902344 181.582031 341.902344 198.515625 C 341.902344 215.363281 328.183594 229.164062 311.25 229.164062 Z M 311.25 229.164062 "/><g clip-rule="nonzero" clip-path="url(#d062133a53)"><path style=" stroke:none;fill-rule:evenodd;fill:#00a6f4;fill-opacity:1;" d="M 352.175781 269.847656 L 294.003906 269.847656 C 291.039062 269.847656 288.632812 267.441406 288.632812 264.476562 C 288.632812 261.507812 291.039062 259.101562 294.003906 259.101562 L 346.316406 259.101562 C 345.195312 251.722656 341.65625 244.824219 336.203125 239.441406 C 329.464844 232.785156 320.558594 229.164062 311.167969 229.164062 C 311.089844 229.164062 311.089844 229.164062 311.007812 229.164062 C 302.503906 229.246094 294.238281 232.375 287.816406 237.992188 C 285.574219 239.917969 282.117188 239.675781 280.191406 237.433594 C 278.265625 235.191406 278.511719 231.734375 280.753906 229.808594 C 289.183594 222.507812 299.925781 218.410156 311.007812 218.332031 C 311.089844 218.332031 311.089844 218.332031 311.167969 218.332031 C 323.523438 218.332031 335.082031 223.058594 343.828125 231.734375 C 352.65625 240.398438 357.46875 252.039062 357.550781 264.476562 C 357.550781 265.921875 356.988281 267.289062 355.949219 268.328125 C 354.980469 269.285156 353.53125 269.847656 352.175781 269.847656 Z M 352.175781 269.847656 "/></g><path style=" stroke:none;fill-rule:evenodd;fill:#00a6f4;fill-opacity:1;" d="M 240.082031 149.648438 C 224.679688 149.648438 212.164062 162.164062 212.164062 177.566406 C 212.164062 192.96875 224.679688 205.488281 240.082031 205.488281 C 255.484375 205.488281 268 192.96875 268 177.566406 C 268 162.164062 255.484375 149.648438 240.082031 149.648438 Z M 240.082031 216.242188 C 218.738281 216.242188 201.410156 198.910156 201.410156 177.566406 C 201.410156 156.222656 218.738281 138.894531 240.082031 138.894531 C 261.425781 138.894531 278.753906 156.222656 278.753906 177.566406 C 278.753906 198.832031 261.425781 216.242188 240.082031 216.242188 Z M 240.082031 216.242188 "/><path style=" stroke:none;fill-rule:evenodd;fill:#00a6f4;fill-opacity:1;" d="M 191.855469 259.09375 L 288.144531 259.09375 C 285.09375 235.179688 264.554688 216.566406 239.917969 216.566406 C 239.753906 216.566406 239.601562 216.566406 239.441406 216.566406 C 214.800781 216.882812 194.824219 235.179688 191.855469 259.09375 Z M 294.003906 269.847656 L 186.160156 269.847656 C 184.710938 269.847656 183.347656 269.285156 182.304688 268.246094 C 181.265625 267.207031 180.707031 265.839844 180.777344 264.394531 C 180.941406 248.828125 187.117188 234.140625 198.105469 223.152344 C 209.09375 212.164062 223.78125 205.976562 239.347656 205.742188 C 239.59375 205.742188 239.746094 205.742188 239.988281 205.742188 C 272.40625 205.742188 298.96875 231.898438 299.449219 264.394531 C 299.449219 265.839844 298.886719 267.207031 297.917969 268.246094 C 296.808594 269.285156 295.441406 269.847656 294.003906 269.847656 Z M 294.003906 269.847656 "/></g></svg>