<svg xmlns="http://www.w3.org/2000/svg" xmlns:xlink="http://www.w3.org/1999/xlink" width="480" zoomAndPan="magnify" viewBox="0 0 360 269.999989" height="360" preserveAspectRatio="xMidYMid meet" version="1.2"><g id="941c8f1089"><path style=" stroke:none;fill-rule:evenodd;fill:#00a6f4;fill-opacity:1;" d="M 203.796875 154.484375 L 91.390625 154.484375 C 87.101562 154.484375 83.613281 150.996094 83.613281 146.707031 L 83.613281 72.820312 C 83.613281 68.53125 87.101562 65.039062 91.390625 65.039062 L 203.796875 65.039062 C 208.085938 65.039062 211.578125 68.53125 211.578125 72.820312 L 211.578125 146.707031 C 211.578125 150.996094 208.085938 154.484375 203.796875 154.484375 Z M 92.046875 146.046875 L 203.140625 146.046875 L 203.140625 73.476562 L 92.046875 73.476562 Z M 92.046875 146.046875 "/><path style=" stroke:none;fill-rule:evenodd;fill:#00a6f4;fill-opacity:1;" d="M 154.039062 118.351562 C 152.957031 118.351562 151.917969 117.9375 151.128906 117.1875 C 150.292969 116.390625 149.820312 115.285156 149.820312 114.132812 L 149.820312 110.585938 L 145.371094 110.585938 L 145.371094 114.132812 C 145.371094 115.289062 144.898438 116.390625 144.0625 117.1875 C 143.222656 117.984375 142.082031 118.414062 140.945312 118.34375 C 117.957031 117.203125 97.589844 110.289062 85.058594 99.375 C 83.304688 97.84375 83.121094 95.179688 84.648438 93.421875 C 86.179688 91.671875 88.84375 91.484375 90.601562 93.011719 C 100.78125 101.882812 117.871094 107.964844 136.933594 109.613281 L 136.933594 106.367188 C 136.933594 104.035156 138.824219 102.148438 141.152344 102.148438 L 154.039062 102.148438 C 156.371094 102.148438 158.257812 104.035156 158.257812 106.367188 L 158.257812 109.613281 C 177.320312 107.964844 194.410156 101.882812 204.585938 93.011719 C 206.347656 91.480469 209.011719 91.664062 210.539062 93.421875 C 212.070312 95.179688 211.886719 97.84375 210.128906 99.375 C 197.601562 110.289062 177.234375 117.203125 154.246094 118.34375 C 154.179688 118.351562 154.109375 118.351562 154.039062 118.351562 Z M 154.039062 118.351562 "/><path style=" stroke:none;fill-rule:evenodd;fill:#00a6f4;fill-opacity:1;" d="M 147.59375 130.554688 C 146.382812 130.554688 145.234375 130.039062 144.433594 129.128906 L 137.992188 121.835938 C 137.308594 121.0625 136.9375 120.070312 136.9375 119.042969 L 136.9375 106.367188 C 136.9375 104.035156 138.824219 102.148438 141.15625 102.148438 L 154.042969 102.148438 C 156.371094 102.148438 158.257812 104.039062 158.257812 106.367188 L 158.257812 119.042969 C 158.257812 120.070312 157.882812 121.066406 157.203125 121.835938 L 150.757812 129.128906 C 149.957031 130.039062 148.804688 130.554688 147.59375 130.554688 Z M 145.371094 117.449219 L 147.59375 119.96875 L 149.820312 117.449219 L 149.820312 110.589844 L 145.371094 110.585938 Z M 145.371094 117.449219 "/><path style=" stroke:none;fill-rule:evenodd;fill:#00a6f4;fill-opacity:1;" d="M 174.789062 73.476562 L 120.40625 73.476562 C 118.074219 73.476562 116.1875 71.589844 116.1875 69.257812 L 116.1875 58.160156 C 116.1875 49.714844 123.054688 42.847656 131.5 42.847656 L 163.691406 42.847656 C 172.136719 42.847656 179.007812 49.71875 179.007812 58.160156 L 179.007812 69.257812 C 179.003906 71.589844 177.117188 73.476562 174.789062 73.476562 Z M 124.621094 65.039062 L 170.570312 65.039062 L 170.570312 58.160156 C 170.570312 54.371094 167.484375 51.285156 163.691406 51.285156 L 131.5 51.285156 C 127.707031 51.285156 124.621094 54.371094 124.621094 58.160156 Z M 124.621094 65.039062 "/><path style=" stroke:none;fill-rule:evenodd;fill:#00a6f4;fill-opacity:1;" d="M 147.59375 197.308594 C 121.246094 197.308594 96.472656 187.050781 77.839844 168.417969 C 39.378906 129.957031 39.378906 67.375 77.839844 28.914062 C 96.472656 10.28125 121.246094 0.0195312 147.59375 0.0195312 C 173.945312 0.0195312 198.714844 10.28125 217.347656 28.914062 C 255.808594 67.375 255.808594 129.957031 217.347656 168.417969 C 198.714844 187.046875 173.945312 197.308594 147.59375 197.308594 Z M 147.59375 8.457031 C 123.496094 8.457031 100.84375 17.839844 83.808594 34.878906 C 48.636719 70.050781 48.636719 127.28125 83.808594 162.453125 C 100.84375 179.488281 123.5 188.875 147.59375 188.875 C 171.691406 188.875 194.34375 179.492188 211.382812 162.453125 C 246.554688 127.28125 246.554688 70.050781 211.382812 34.878906 C 194.34375 17.839844 171.691406 8.457031 147.59375 8.457031 Z M 147.59375 8.457031 "/><path style=" stroke:none;fill-rule:evenodd;fill:#00a6f4;fill-opacity:1;" d="M 236.761719 192.050781 C 235.683594 192.050781 234.605469 191.636719 233.78125 190.8125 L 211.386719 168.417969 C 209.738281 166.773438 209.738281 164.101562 211.386719 162.453125 C 213.03125 160.804688 215.703125 160.804688 217.347656 162.453125 L 239.746094 184.851562 C 241.394531 186.496094 241.394531 189.167969 239.746094 190.8125 C 238.921875 191.636719 237.84375 192.050781 236.761719 192.050781 Z M 236.761719 192.050781 "/><path style=" stroke:none;fill-rule:evenodd;fill:#00a6f4;fill-opacity:1;" d="M 301.238281 269.980469 C 296.503906 269.980469 292.058594 268.144531 288.730469 264.816406 L 233.78125 209.859375 C 230.449219 206.53125 228.613281 202.089844 228.613281 197.355469 C 228.613281 192.621094 230.449219 188.175781 233.78125 184.847656 C 237.109375 181.519531 241.550781 179.683594 246.285156 179.683594 C 251.019531 179.683594 255.460938 181.519531 258.789062 184.851562 L 313.742188 239.804688 C 320.636719 246.703125 320.636719 257.921875 313.742188 264.816406 C 310.414062 268.144531 305.972656 269.980469 301.238281 269.980469 Z M 246.285156 188.125 C 243.804688 188.125 241.484375 189.082031 239.746094 190.820312 C 238.003906 192.558594 237.050781 194.878906 237.050781 197.359375 C 237.050781 199.839844 238.007812 202.164062 239.746094 203.898438 L 294.695312 258.855469 C 296.433594 260.589844 298.757812 261.550781 301.238281 261.550781 C 303.722656 261.550781 306.046875 260.589844 307.78125 258.855469 C 311.386719 255.25 311.386719 249.382812 307.777344 245.773438 L 252.828125 190.820312 C 251.089844 189.082031 248.765625 188.125 246.285156 188.125 Z M 246.285156 188.125 "/></g></svg>