<svg xmlns="http://www.w3.org/2000/svg" xmlns:xlink="http://www.w3.org/1999/xlink" width="480" zoomAndPan="magnify" viewBox="0 0 360 269.999989" height="360" preserveAspectRatio="xMidYMid meet" version="1.2"><defs><clipPath id="b6f7cca0ce"><path d="M 55.460938 103 L 304.460938 103 L 304.460938 270 L 55.460938 270 Z M 55.460938 103 "/></clipPath></defs><g id="49e8a99989"><g clip-rule="nonzero" clip-path="url(#b6f7cca0ce)"><path style=" stroke:none;fill-rule:nonzero;fill:#00a6f4;fill-opacity:1;" d="M 55.640625 130.851562 L 55.640625 265.710938 C 55.640625 268.027344 57.539062 269.921875 59.855469 269.921875 L 300.070312 269.921875 C 302.386719 269.921875 304.285156 268.027344 304.285156 265.710938 L 304.285156 130.851562 C 304.285156 128.535156 302.386719 126.640625 300.070312 126.640625 L 232.640625 126.640625 L 232.640625 103.460938 C 230.113281 104.722656 227.164062 105.988281 224.210938 107.253906 L 224.210938 261.496094 L 203.140625 261.496094 L 203.140625 206.710938 C 203.140625 204.390625 201.246094 202.496094 198.925781 202.496094 L 161 202.496094 C 158.679688 202.496094 156.785156 204.390625 156.785156 206.710938 L 156.785156 261.496094 L 135.710938 261.496094 L 135.710938 107.253906 C 132.761719 106.199219 129.8125 104.933594 127.285156 103.460938 L 127.285156 126.640625 L 59.855469 126.640625 C 57.539062 126.640625 55.640625 128.535156 55.640625 130.851562 Z M 295.855469 135.066406 L 295.855469 261.496094 L 232.640625 261.496094 L 232.640625 135.066406 Z M 165.210938 210.925781 L 194.710938 210.925781 L 194.710938 261.496094 L 165.210938 261.496094 Z M 64.070312 135.066406 L 127.285156 135.066406 L 127.285156 261.496094 L 64.070312 261.496094 Z M 64.070312 135.066406 "/></g><path style=" stroke:none;fill-rule:nonzero;fill:#00a6f4;fill-opacity:1;" d="M 215.785156 168.78125 C 215.785156 166.464844 213.886719 164.566406 211.570312 164.566406 L 148.355469 164.566406 C 146.039062 164.566406 144.140625 166.464844 144.140625 168.78125 C 144.140625 171.097656 146.039062 172.996094 148.355469 172.996094 L 211.570312 172.996094 C 213.886719 172.996094 215.785156 171.097656 215.785156 168.78125 Z M 215.785156 168.78125 "/><path style=" stroke:none;fill-rule:nonzero;fill:#00a6f4;fill-opacity:1;" d="M 116.75 200.386719 C 119.066406 200.386719 120.960938 198.492188 120.960938 196.175781 C 120.960938 193.855469 119.066406 191.960938 116.75 191.960938 L 74.605469 191.960938 C 72.289062 191.960938 70.390625 193.855469 70.390625 196.175781 C 70.390625 198.492188 72.289062 200.386719 74.605469 200.386719 Z M 116.75 200.386719 "/><path style=" stroke:none;fill-rule:nonzero;fill:#00a6f4;fill-opacity:1;" d="M 76.714844 156.136719 L 89.355469 156.136719 C 91.671875 156.136719 93.570312 154.242188 93.570312 151.925781 C 93.570312 149.605469 91.671875 147.710938 89.355469 147.710938 L 76.714844 147.710938 C 74.394531 147.710938 72.5 149.605469 72.5 151.925781 C 72.5 154.242188 74.394531 156.136719 76.714844 156.136719 Z M 76.714844 156.136719 "/><path style=" stroke:none;fill-rule:nonzero;fill:#00a6f4;fill-opacity:1;" d="M 116.960938 147.710938 L 104.316406 147.710938 C 102 147.710938 100.101562 149.605469 100.101562 151.925781 C 100.101562 154.242188 102 156.136719 104.316406 156.136719 L 116.960938 156.136719 C 119.277344 156.136719 121.171875 154.242188 121.171875 151.925781 C 121.171875 149.605469 119.277344 147.710938 116.960938 147.710938 Z M 116.960938 147.710938 "/><path style=" stroke:none;fill-rule:nonzero;fill:#00a6f4;fill-opacity:1;" d="M 76.714844 179.316406 L 89.355469 179.316406 C 91.671875 179.316406 93.570312 177.421875 93.570312 175.101562 C 93.570312 172.785156 91.671875 170.886719 89.355469 170.886719 L 76.714844 170.886719 C 74.394531 170.886719 72.5 172.785156 72.5 175.101562 C 72.5 177.421875 74.394531 179.316406 76.714844 179.316406 Z M 76.714844 179.316406 "/><path style=" stroke:none;fill-rule:nonzero;fill:#00a6f4;fill-opacity:1;" d="M 116.960938 170.886719 L 104.316406 170.886719 C 102 170.886719 100.101562 172.785156 100.101562 175.101562 C 100.101562 177.421875 102 179.316406 104.316406 179.316406 L 116.960938 179.316406 C 119.277344 179.316406 121.171875 177.421875 121.171875 175.101562 C 121.171875 172.785156 119.277344 170.886719 116.960938 170.886719 Z M 116.960938 170.886719 "/><path style=" stroke:none;fill-rule:nonzero;fill:#00a6f4;fill-opacity:1;" d="M 89.355469 213.03125 L 76.714844 213.03125 C 74.394531 213.03125 72.5 214.925781 72.5 217.246094 C 72.5 219.5625 74.394531 221.460938 76.714844 221.460938 L 89.355469 221.460938 C 91.671875 221.460938 93.570312 219.5625 93.570312 217.246094 C 93.570312 214.925781 91.671875 213.03125 89.355469 213.03125 Z M 89.355469 213.03125 "/><path style=" stroke:none;fill-rule:nonzero;fill:#00a6f4;fill-opacity:1;" d="M 116.960938 213.03125 L 104.316406 213.03125 C 102 213.03125 100.101562 214.925781 100.101562 217.246094 C 100.101562 219.5625 102 221.460938 104.316406 221.460938 L 116.960938 221.460938 C 119.277344 221.460938 121.171875 219.5625 121.171875 217.246094 C 121.171875 214.925781 119.277344 213.03125 116.960938 213.03125 Z M 116.960938 213.03125 "/><path style=" stroke:none;fill-rule:nonzero;fill:#00a6f4;fill-opacity:1;" d="M 89.355469 236.210938 L 76.714844 236.210938 C 74.394531 236.210938 72.5 238.105469 72.5 240.425781 C 72.5 242.742188 74.394531 244.636719 76.714844 244.636719 L 89.355469 244.636719 C 91.671875 244.636719 93.570312 242.742188 93.570312 240.425781 C 93.570312 238.105469 91.671875 236.210938 89.355469 236.210938 Z M 89.355469 236.210938 "/><path style=" stroke:none;fill-rule:nonzero;fill:#00a6f4;fill-opacity:1;" d="M 116.960938 236.210938 L 104.316406 236.210938 C 102 236.210938 100.101562 238.105469 100.101562 240.425781 C 100.101562 242.742188 102 244.636719 104.316406 244.636719 L 116.960938 244.636719 C 119.277344 244.636719 121.171875 242.742188 121.171875 240.425781 C 121.171875 238.105469 119.277344 236.210938 116.960938 236.210938 Z M 116.960938 236.210938 "/><path style=" stroke:none;fill-rule:nonzero;fill:#00a6f4;fill-opacity:1;" d="M 241.070312 200.386719 L 283.210938 200.386719 C 285.53125 200.386719 287.425781 198.492188 287.425781 196.175781 C 287.425781 193.855469 285.53125 191.960938 283.210938 191.960938 L 241.070312 191.960938 C 238.75 191.960938 236.855469 193.855469 236.855469 196.175781 C 236.855469 198.492188 238.75 200.386719 241.070312 200.386719 Z M 241.070312 200.386719 "/><path style=" stroke:none;fill-rule:nonzero;fill:#00a6f4;fill-opacity:1;" d="M 243.175781 156.136719 L 255.820312 156.136719 C 258.136719 156.136719 260.035156 154.242188 260.035156 151.925781 C 260.035156 149.605469 258.136719 147.710938 255.820312 147.710938 L 243.175781 147.710938 C 240.859375 147.710938 238.960938 149.605469 238.960938 151.925781 C 238.960938 154.242188 240.859375 156.136719 243.175781 156.136719 Z M 243.175781 156.136719 "/><path style=" stroke:none;fill-rule:nonzero;fill:#00a6f4;fill-opacity:1;" d="M 270.78125 156.136719 L 283.421875 156.136719 C 285.742188 156.136719 287.636719 154.242188 287.636719 151.925781 C 287.636719 149.605469 285.742188 147.710938 283.421875 147.710938 L 270.78125 147.710938 C 268.460938 147.710938 266.566406 149.605469 266.566406 151.925781 C 266.566406 154.242188 268.460938 156.136719 270.78125 156.136719 Z M 270.78125 156.136719 "/><path style=" stroke:none;fill-rule:nonzero;fill:#00a6f4;fill-opacity:1;" d="M 243.175781 179.316406 L 255.820312 179.316406 C 258.136719 179.316406 260.035156 177.421875 260.035156 175.101562 C 260.035156 172.785156 258.136719 170.886719 255.820312 170.886719 L 243.175781 170.886719 C 240.859375 170.886719 238.960938 172.785156 238.960938 175.101562 C 238.960938 177.421875 240.859375 179.316406 243.175781 179.316406 Z M 243.175781 179.316406 "/><path style=" stroke:none;fill-rule:nonzero;fill:#00a6f4;fill-opacity:1;" d="M 270.78125 179.316406 L 283.421875 179.316406 C 285.742188 179.316406 287.636719 177.421875 287.636719 175.101562 C 287.636719 172.785156 285.742188 170.886719 283.421875 170.886719 L 270.78125 170.886719 C 268.460938 170.886719 266.566406 172.785156 266.566406 175.101562 C 266.566406 177.421875 268.460938 179.316406 270.78125 179.316406 Z M 270.78125 179.316406 "/><path style=" stroke:none;fill-rule:nonzero;fill:#00a6f4;fill-opacity:1;" d="M 255.820312 213.03125 L 243.175781 213.03125 C 240.859375 213.03125 238.960938 214.925781 238.960938 217.246094 C 238.960938 219.5625 240.859375 221.460938 243.175781 221.460938 L 255.820312 221.460938 C 258.136719 221.460938 260.035156 219.5625 260.035156 217.246094 C 260.035156 214.925781 258.136719 213.03125 255.820312 213.03125 Z M 255.820312 213.03125 "/><path style=" stroke:none;fill-rule:nonzero;fill:#00a6f4;fill-opacity:1;" d="M 283.421875 213.03125 L 270.78125 213.03125 C 268.460938 213.03125 266.566406 214.925781 266.566406 217.246094 C 266.566406 219.5625 268.460938 221.460938 270.78125 221.460938 L 283.421875 221.460938 C 285.742188 221.460938 287.636719 219.5625 287.636719 217.246094 C 287.636719 214.925781 285.742188 213.03125 283.421875 213.03125 Z M 283.421875 213.03125 "/><path style=" stroke:none;fill-rule:nonzero;fill:#00a6f4;fill-opacity:1;" d="M 255.820312 236.210938 L 243.175781 236.210938 C 240.859375 236.210938 238.960938 238.105469 238.960938 240.425781 C 238.960938 242.742188 240.859375 244.636719 243.175781 244.636719 L 255.820312 244.636719 C 258.136719 244.636719 260.035156 242.742188 260.035156 240.425781 C 260.035156 238.105469 258.136719 236.210938 255.820312 236.210938 Z M 255.820312 236.210938 "/><path style=" stroke:none;fill-rule:nonzero;fill:#00a6f4;fill-opacity:1;" d="M 283.421875 236.210938 L 270.78125 236.210938 C 268.460938 236.210938 266.566406 238.105469 266.566406 240.425781 C 266.566406 242.742188 268.460938 244.636719 270.78125 244.636719 L 283.421875 244.636719 C 285.742188 244.636719 287.636719 242.742188 287.636719 240.425781 C 287.636719 238.105469 285.742188 236.210938 283.421875 236.210938 Z M 283.421875 236.210938 "/><path style=" stroke:none;fill-rule:nonzero;fill:#00a6f4;fill-opacity:1;" d="M 148.355469 128.746094 L 156.785156 128.746094 C 159.101562 128.746094 161 126.847656 161 124.53125 C 161 122.214844 159.101562 120.316406 156.785156 120.316406 L 148.355469 120.316406 C 146.039062 120.316406 144.140625 122.214844 144.140625 124.53125 C 144.140625 126.847656 146.039062 128.746094 148.355469 128.746094 Z M 148.355469 128.746094 "/><path style=" stroke:none;fill-rule:nonzero;fill:#00a6f4;fill-opacity:1;" d="M 176.378906 128.746094 L 184.808594 128.746094 C 187.125 128.746094 189.023438 126.847656 189.023438 124.53125 C 189.023438 122.214844 187.125 120.316406 184.808594 120.316406 L 176.378906 120.316406 C 174.0625 120.316406 172.167969 122.214844 172.167969 124.53125 C 172.167969 126.847656 174.0625 128.746094 176.378906 128.746094 Z M 176.378906 128.746094 "/><path style=" stroke:none;fill-rule:nonzero;fill:#00a6f4;fill-opacity:1;" d="M 212.203125 120.316406 L 203.773438 120.316406 C 201.457031 120.316406 199.558594 122.214844 199.558594 124.53125 C 199.558594 126.847656 201.457031 128.746094 203.773438 128.746094 L 212.203125 128.746094 C 214.519531 128.746094 216.414062 126.847656 216.414062 124.53125 C 216.414062 122.214844 214.519531 120.316406 212.203125 120.316406 Z M 212.203125 120.316406 "/><path style=" stroke:none;fill-rule:nonzero;fill:#00a6f4;fill-opacity:1;" d="M 148.355469 149.816406 L 156.785156 149.816406 C 159.101562 149.816406 161 147.921875 161 145.601562 C 161 143.285156 159.101562 141.386719 156.785156 141.386719 L 148.355469 141.386719 C 146.039062 141.386719 144.140625 143.285156 144.140625 145.601562 C 144.140625 147.921875 146.039062 149.816406 148.355469 149.816406 Z M 148.355469 149.816406 "/><path style=" stroke:none;fill-rule:nonzero;fill:#00a6f4;fill-opacity:1;" d="M 176.378906 149.816406 L 184.808594 149.816406 C 187.125 149.816406 189.023438 147.921875 189.023438 145.601562 C 189.023438 143.285156 187.125 141.386719 184.808594 141.386719 L 176.378906 141.386719 C 174.0625 141.386719 172.167969 143.285156 172.167969 145.601562 C 172.167969 147.921875 174.0625 149.816406 176.378906 149.816406 Z M 176.378906 149.816406 "/><path style=" stroke:none;fill-rule:nonzero;fill:#00a6f4;fill-opacity:1;" d="M 212.203125 141.386719 L 203.773438 141.386719 C 201.457031 141.386719 199.558594 143.285156 199.558594 145.601562 C 199.558594 147.921875 201.457031 149.816406 203.773438 149.816406 L 212.203125 149.816406 C 214.519531 149.816406 216.414062 147.921875 216.414062 145.601562 C 216.414062 143.285156 214.519531 141.386719 212.203125 141.386719 Z M 212.203125 141.386719 "/><path style=" stroke:none;fill-rule:nonzero;fill:#00a6f4;fill-opacity:1;" d="M 190.5 236.210938 C 190.5 236.484375 190.472656 236.761719 190.417969 237.03125 C 190.363281 237.304688 190.285156 237.566406 190.175781 237.824219 C 190.070312 238.078125 189.941406 238.320312 189.789062 238.550781 C 189.632812 238.78125 189.460938 238.992188 189.265625 239.191406 C 189.066406 239.386719 188.855469 239.558594 188.625 239.714844 C 188.394531 239.867188 188.152344 239.996094 187.898438 240.101562 C 187.640625 240.207031 187.378906 240.289062 187.105469 240.34375 C 186.835938 240.398438 186.5625 240.425781 186.285156 240.425781 C 186.007812 240.425781 185.734375 240.398438 185.460938 240.34375 C 185.191406 240.289062 184.925781 240.207031 184.671875 240.101562 C 184.414062 239.996094 184.171875 239.867188 183.941406 239.714844 C 183.710938 239.558594 183.5 239.386719 183.304688 239.191406 C 183.109375 238.992188 182.933594 238.78125 182.78125 238.550781 C 182.625 238.320312 182.496094 238.078125 182.390625 237.824219 C 182.285156 237.566406 182.203125 237.304688 182.152344 237.03125 C 182.097656 236.761719 182.070312 236.484375 182.070312 236.210938 C 182.070312 235.933594 182.097656 235.660156 182.152344 235.386719 C 182.203125 235.117188 182.285156 234.851562 182.390625 234.597656 C 182.496094 234.339844 182.625 234.097656 182.78125 233.867188 C 182.933594 233.636719 183.109375 233.425781 183.304688 233.230469 C 183.5 233.035156 183.710938 232.859375 183.941406 232.707031 C 184.171875 232.550781 184.414062 232.421875 184.671875 232.316406 C 184.925781 232.210938 185.191406 232.128906 185.460938 232.078125 C 185.734375 232.023438 186.007812 231.996094 186.285156 231.996094 C 186.5625 231.996094 186.835938 232.023438 187.105469 232.078125 C 187.378906 232.128906 187.640625 232.210938 187.898438 232.316406 C 188.152344 232.421875 188.394531 232.550781 188.625 232.707031 C 188.855469 232.859375 189.066406 233.035156 189.265625 233.230469 C 189.460938 233.425781 189.632812 233.636719 189.789062 233.867188 C 189.941406 234.097656 190.070312 234.339844 190.175781 234.597656 C 190.285156 234.851562 190.363281 235.117188 190.417969 235.386719 C 190.472656 235.660156 190.5 235.933594 190.5 236.210938 Z M 190.5 236.210938 "/><path style=" stroke:none;fill-rule:nonzero;fill:#00a6f4;fill-opacity:1;" d="M 268.671875 32.871094 C 268.671875 30.554688 266.777344 28.65625 264.457031 28.65625 C 264.246094 28.65625 263.828125 28.65625 263.617188 28.65625 L 181.4375 0.210938 C 180.59375 0 179.542969 0 178.699219 0.210938 L 94.203125 29.5 C 92.515625 30.132812 91.464844 31.605469 91.464844 33.503906 C 91.464844 35.398438 92.515625 36.875 94.203125 37.507812 L 116.75 45.304688 L 116.75 77.542969 C 116.75 91.449219 138.453125 105.566406 179.960938 105.566406 C 221.472656 105.566406 243.175781 91.449219 243.175781 77.542969 L 243.175781 45.304688 L 260.246094 39.402344 L 260.246094 74.382812 C 255.398438 76.066406 252.027344 80.492188 252.027344 85.761719 C 252.027344 90.605469 254.765625 94.609375 258.980469 96.71875 L 254.976562 108.304688 C 254.554688 109.570312 254.765625 111.046875 255.609375 112.097656 C 256.453125 113.152344 257.714844 113.785156 258.980469 113.785156 L 269.9375 113.785156 C 271.203125 113.785156 272.675781 113.152344 273.308594 112.097656 C 274.152344 111.046875 274.363281 109.570312 273.941406 108.304688 L 269.9375 96.71875 C 273.941406 94.820312 276.890625 90.605469 276.890625 85.761719 C 276.890625 80.492188 273.519531 76.066406 268.671875 74.382812 Z M 180.171875 8.851562 L 240.4375 29.710938 L 182.070312 29.710938 C 179.75 29.710938 177.855469 31.605469 177.855469 33.925781 C 177.855469 36.242188 179.75 38.140625 182.070312 38.140625 L 238.328125 38.140625 L 179.960938 58.367188 L 108.53125 33.503906 Z M 234.746094 77.542969 C 234.746094 85.761719 215.785156 97.140625 179.960938 97.140625 C 144.140625 97.140625 125.175781 85.761719 125.175781 77.332031 L 125.175781 48.253906 L 178.699219 66.796875 C 179.121094 67.007812 179.542969 67.007812 180.171875 67.007812 C 180.804688 67.007812 181.015625 67.007812 181.648438 66.796875 L 234.746094 48.253906 Z M 264.457031 89.765625 C 262.351562 89.765625 260.453125 88.078125 260.453125 85.972656 C 260.453125 83.863281 262.140625 82.179688 264.457031 82.179688 C 266.777344 82.179688 268.460938 83.863281 268.460938 85.972656 C 268.460938 88.078125 266.777344 89.765625 264.457031 89.765625 Z M 264.457031 89.765625 "/><path style=" stroke:none;fill-rule:nonzero;fill:#00a6f4;fill-opacity:1;" d="M 148.355469 185.636719 C 146.039062 185.636719 144.140625 187.535156 144.140625 189.851562 C 144.140625 192.171875 146.039062 194.066406 148.355469 194.066406 L 156.785156 194.066406 C 159.101562 194.066406 161 192.171875 161 189.851562 C 161 187.535156 159.101562 185.636719 156.785156 185.636719 Z M 148.355469 185.636719 "/><path style=" stroke:none;fill-rule:nonzero;fill:#00a6f4;fill-opacity:1;" d="M 176.378906 185.636719 C 174.0625 185.636719 172.167969 187.535156 172.167969 189.851562 C 172.167969 192.171875 174.0625 194.066406 176.378906 194.066406 L 184.808594 194.066406 C 187.125 194.066406 189.023438 192.171875 189.023438 189.851562 C 189.023438 187.535156 187.125 185.636719 184.808594 185.636719 Z M 176.378906 185.636719 "/><path style=" stroke:none;fill-rule:nonzero;fill:#00a6f4;fill-opacity:1;" d="M 203.773438 194.066406 L 212.203125 194.066406 C 214.519531 194.066406 216.414062 192.171875 216.414062 189.851562 C 216.414062 187.535156 214.519531 185.636719 212.203125 185.636719 L 203.773438 185.636719 C 201.457031 185.636719 199.558594 187.535156 199.558594 189.851562 C 199.558594 192.171875 201.457031 194.066406 203.773438 194.066406 Z M 203.773438 194.066406 "/></g></svg>