<svg xmlns="http://www.w3.org/2000/svg" xmlns:xlink="http://www.w3.org/1999/xlink" width="480" zoomAndPan="magnify" viewBox="0 0 360 269.999989" height="360" preserveAspectRatio="xMidYMid meet" version="1.2"><defs><clipPath id="504fd2934c"><path d="M 53.4375 0 L 315.9375 0 L 315.9375 270 L 53.4375 270 Z M 53.4375 0 "/></clipPath></defs><g id="586dc1dde2"><path style=" stroke:none;fill-rule:nonzero;fill:#00a6f4;fill-opacity:1;" d="M 109.496094 166.863281 C 108.042969 166.308594 106.421875 167.042969 105.871094 168.503906 L 100.085938 183.855469 L 94.300781 168.503906 C 93.75 167.054688 92.128906 166.308594 90.675781 166.863281 C 89.226562 167.414062 88.492188 169.035156 89.035156 170.484375 L 97.453125 192.816406 C 97.867188 193.90625 98.914062 194.636719 100.085938 194.636719 C 101.257812 194.636719 102.304688 193.917969 102.71875 192.816406 L 111.136719 170.484375 C 111.691406 169.035156 110.945312 167.414062 109.496094 166.863281 Z M 109.496094 166.863281 "/><path style=" stroke:none;fill-rule:nonzero;fill:#00a6f4;fill-opacity:1;" d="M 154.875 168.503906 C 154.457031 167.414062 153.410156 166.679688 152.238281 166.679688 C 151.070312 166.679688 150.023438 167.402344 149.605469 168.503906 L 141.1875 190.832031 C 140.636719 192.285156 141.378906 193.90625 142.832031 194.457031 C 144.28125 195.007812 145.902344 194.277344 146.453125 192.816406 L 148.863281 186.421875 L 155.617188 186.421875 L 158.023438 192.816406 C 158.453125 193.941406 159.519531 194.636719 160.65625 194.636719 C 160.984375 194.636719 161.320312 194.582031 161.648438 194.457031 C 163.101562 193.90625 163.832031 192.285156 163.292969 190.832031 Z M 150.992188 180.804688 L 152.238281 177.472656 L 153.488281 180.804688 L 150.980469 180.804688 Z M 150.992188 180.804688 "/><path style=" stroke:none;fill-rule:nonzero;fill:#00a6f4;fill-opacity:1;" d="M 116.472656 166.679688 C 114.917969 166.679688 113.660156 167.941406 113.660156 169.496094 L 113.660156 191.824219 C 113.660156 193.378906 114.917969 194.636719 116.472656 194.636719 C 118.027344 194.636719 119.285156 193.378906 119.285156 191.824219 L 119.285156 169.496094 C 119.285156 167.941406 118.027344 166.679688 116.472656 166.679688 Z M 116.472656 166.679688 "/><path style=" stroke:none;fill-rule:nonzero;fill:#00a6f4;fill-opacity:1;" d="M 132.792969 177.847656 L 130.066406 177.847656 C 128.515625 177.847656 127.253906 176.609375 127.253906 175.078125 C 127.253906 173.546875 128.515625 172.308594 130.066406 172.308594 L 135.269531 172.308594 C 136.820312 172.308594 138.082031 171.046875 138.082031 169.496094 C 138.082031 167.941406 136.820312 166.679688 135.269531 166.679688 L 130.066406 166.679688 C 125.410156 166.679688 121.628906 170.453125 121.628906 175.078125 C 121.628906 179.703125 125.410156 183.472656 130.066406 183.472656 L 132.792969 183.472656 C 134.34375 183.472656 135.605469 184.710938 135.605469 186.242188 C 135.605469 187.773438 134.34375 189.011719 132.792969 189.011719 L 124.441406 189.011719 C 122.886719 189.011719 121.628906 190.269531 121.628906 191.824219 C 121.628906 193.378906 122.886719 194.636719 124.441406 194.636719 L 132.792969 194.636719 C 137.453125 194.636719 141.234375 190.867188 141.234375 186.242188 C 141.234375 181.617188 137.453125 177.847656 132.792969 177.847656 Z M 132.792969 177.847656 "/><path style=" stroke:none;fill-rule:nonzero;fill:#00a6f4;fill-opacity:1;" d="M 158.644531 80.371094 C 151.664062 69.847656 139.714844 62.890625 126.175781 62.890625 C 112.636719 62.890625 100.683594 69.847656 93.703125 80.359375 C 93.59375 80.496094 93.503906 80.640625 93.421875 80.796875 C 89.507812 86.875 87.222656 94.089844 87.222656 101.832031 C 87.222656 123.304688 104.6875 140.785156 126.175781 140.785156 C 139.726562 140.785156 151.6875 133.816406 158.667969 123.285156 C 158.746094 123.183594 158.8125 123.070312 158.878906 122.957031 C 162.832031 116.867188 165.125 109.621094 165.125 101.832031 C 165.125 94.042969 162.851562 86.886719 158.949219 80.820312 C 158.867188 80.664062 158.765625 80.503906 158.65625 80.371094 Z M 155.277344 118.015625 C 151.824219 116.554688 148.34375 115.316406 144.902344 114.359375 C 145.902344 111.296875 146.601562 108.046875 146.859375 104.65625 L 159.363281 104.65625 C 158.957031 109.476562 157.53125 114 155.289062 118.015625 Z M 92.972656 104.65625 L 105.464844 104.65625 C 105.726562 108.046875 106.433594 111.308594 107.425781 114.371094 C 103.980469 115.328125 100.515625 116.554688 97.046875 118.015625 C 94.808594 114 93.367188 109.464844 92.960938 104.648438 Z M 97.046875 85.660156 C 100.503906 87.125 103.96875 88.351562 107.425781 89.316406 C 106.421875 92.390625 105.726562 95.644531 105.464844 99.03125 L 92.972656 99.03125 C 93.378906 94.214844 94.808594 89.679688 97.058594 85.660156 Z M 123.347656 99.03125 L 111.105469 99.03125 C 111.375 96.117188 112.039062 93.300781 112.949219 90.632812 C 116.4375 91.332031 119.917969 91.769531 123.347656 91.929688 Z M 123.347656 104.65625 L 123.347656 111.757812 C 119.929688 111.917969 116.449219 112.34375 112.949219 113.054688 C 112.039062 110.375 111.375 107.5625 111.105469 104.65625 Z M 128.976562 104.65625 L 141.222656 104.65625 C 140.953125 107.5625 140.289062 110.375 139.375 113.042969 C 135.875 112.34375 132.386719 111.90625 128.976562 111.757812 Z M 128.976562 99.03125 L 128.976562 91.929688 C 132.410156 91.78125 135.898438 91.34375 139.386719 90.644531 C 140.296875 93.3125 140.960938 96.125 141.222656 99.03125 Z M 128.976562 86.289062 L 128.976562 72.820312 C 131.554688 75.890625 134.714844 80.222656 137.203125 85.34375 C 134.433594 85.851562 131.6875 86.167969 128.976562 86.289062 Z M 123.347656 86.289062 C 120.636719 86.15625 117.902344 85.851562 115.144531 85.332031 C 117.632812 80.222656 120.785156 75.902344 123.347656 72.828125 Z M 123.347656 117.386719 L 123.347656 130.847656 C 120.773438 127.773438 117.632812 123.453125 115.144531 118.34375 C 117.902344 117.835938 120.648438 117.523438 123.347656 117.386719 Z M 128.976562 117.386719 C 131.675781 117.523438 134.421875 117.824219 137.191406 118.332031 C 134.707031 123.441406 131.554688 127.773438 128.976562 130.847656 Z M 146.859375 99.03125 C 146.601562 95.644531 145.902344 92.390625 144.902344 89.328125 C 148.355469 88.371094 151.824219 87.144531 155.289062 85.671875 C 157.53125 89.6875 158.957031 94.214844 159.363281 99.03125 Z M 152.082031 80.921875 C 149 82.183594 145.914062 83.21875 142.851562 84.050781 C 140.085938 77.984375 136.425781 72.910156 133.433594 69.328125 C 140.90625 70.996094 147.433594 75.171875 152.082031 80.933594 Z M 118.902344 69.328125 C 115.910156 72.910156 112.253906 77.972656 109.496094 84.039062 C 106.421875 83.207031 103.339844 82.171875 100.265625 80.921875 C 104.925781 75.171875 111.441406 70.996094 118.914062 69.328125 Z M 100.253906 122.765625 C 103.339844 121.503906 106.433594 120.46875 109.484375 119.648438 C 112.253906 125.714844 115.910156 130.78125 118.890625 134.359375 C 111.429688 132.691406 104.902344 128.515625 100.242188 122.765625 Z M 133.421875 134.359375 C 136.414062 130.78125 140.074219 125.703125 142.84375 119.636719 C 145.902344 120.46875 148.988281 121.503906 152.070312 122.765625 C 147.410156 128.515625 140.882812 132.691406 133.421875 134.359375 Z M 133.421875 134.359375 "/><path style=" stroke:none;fill-rule:nonzero;fill:#00a6f4;fill-opacity:1;" d="M 226.035156 41.09375 L 222.964844 44.164062 C 221.984375 45.144531 221.859375 46.6875 222.671875 47.8125 L 237.730469 68.566406 L 219.992188 69.453125 L 208.535156 57.996094 C 207.433594 56.894531 205.652344 56.894531 204.550781 57.996094 L 201.015625 61.53125 C 200.082031 62.464844 199.925781 63.90625 200.621094 65.019531 L 208.613281 77.679688 L 200.621094 90.34375 C 199.925781 91.457031 200.082031 92.90625 201.015625 93.832031 L 204.550781 97.363281 C 205.652344 98.46875 207.433594 98.46875 208.535156 97.363281 L 219.992188 85.90625 L 237.730469 86.796875 L 222.671875 107.550781 C 221.859375 108.675781 221.984375 110.21875 222.964844 111.195312 L 226.035156 114.269531 C 226.566406 114.796875 227.273438 115.089844 228.027344 115.089844 C 228.78125 115.089844 229.492188 114.796875 230.019531 114.269531 L 256.546875 87.742188 L 273.6875 88.597656 C 277.3125 88.777344 282.734375 86.558594 285.785156 83.65625 C 287.6875 81.84375 288.691406 79.773438 288.691406 77.679688 C 288.691406 75.585938 287.6875 73.503906 285.785156 71.703125 C 282.734375 68.800781 277.277344 66.59375 273.6875 66.765625 L 256.546875 67.621094 L 230.019531 41.09375 C 228.917969 39.988281 227.136719 39.988281 226.035156 41.09375 Z M 253.441406 72.480469 C 254.003906 73.042969 254.789062 73.347656 255.566406 73.300781 L 273.957031 72.378906 C 275.644531 72.300781 279.617188 73.605469 281.890625 75.765625 C 282.625 76.464844 283.050781 77.164062 283.050781 77.667969 C 283.050781 78.175781 282.625 78.875 281.890625 79.570312 C 279.617188 81.730469 275.589844 83.039062 273.957031 82.960938 L 255.566406 82.035156 C 254.78125 82.003906 254.003906 82.296875 253.441406 82.859375 L 231.898438 104.398438 L 245.335938 85.886719 C 245.945312 85.050781 246.046875 83.949219 245.597656 83.015625 C 245.144531 82.082031 244.234375 81.472656 243.199219 81.417969 L 219.023438 80.203125 C 219.023438 80.203125 218.933594 80.203125 218.890625 80.203125 C 218.144531 80.203125 217.425781 80.496094 216.898438 81.023438 L 206.757812 91.164062 L 214.070312 79.570312 C 214.351562 79.121094 214.511719 78.605469 214.511719 78.074219 L 214.511719 77.265625 C 214.511719 76.734375 214.363281 76.21875 214.070312 75.765625 L 206.757812 64.175781 L 216.898438 74.316406 C 217.460938 74.878906 218.214844 75.171875 219.023438 75.136719 L 243.199219 73.921875 C 244.234375 73.867188 245.144531 73.257812 245.597656 72.324219 C 246.046875 71.390625 245.945312 70.296875 245.335938 69.453125 L 231.898438 50.941406 Z M 253.441406 72.480469 "/><g clip-rule="nonzero" clip-path="url(#504fd2934c)"><path style=" stroke:none;fill-rule:nonzero;fill:#00a6f4;fill-opacity:1;" d="M 236.355469 1.160156 C 235.253906 0.0585938 233.476562 0.0585938 232.371094 1.160156 L 188.691406 44.839844 C 187.960938 44.703125 187.21875 44.636719 186.464844 44.636719 L 65.851562 44.636719 C 58.996094 44.636719 53.425781 50.207031 53.425781 57.0625 L 53.425781 217.066406 C 53.425781 223.921875 58.996094 229.492188 65.851562 229.492188 L 85.847656 229.492188 L 125.421875 269.074219 C 125.949219 269.605469 126.65625 269.898438 127.414062 269.898438 C 128.167969 269.898438 128.875 269.605469 129.402344 269.074219 L 168.988281 229.492188 L 186.476562 229.492188 C 193.328125 229.492188 198.902344 223.921875 198.902344 217.066406 L 198.902344 199.578125 L 314.855469 83.625 C 315.386719 83.09375 315.679688 82.386719 315.679688 81.632812 C 315.679688 80.878906 315.386719 80.167969 314.855469 79.640625 Z M 127.414062 263.097656 L 93.804688 229.492188 L 161.019531 229.492188 Z M 193.273438 217.066406 C 193.273438 220.816406 190.222656 223.867188 186.476562 223.867188 L 65.851562 223.867188 C 62.101562 223.867188 59.050781 220.816406 59.050781 217.066406 L 59.050781 57.0625 C 59.050781 53.316406 62.101562 50.265625 65.851562 50.265625 L 186.464844 50.265625 C 187.21875 50.265625 187.949219 50.386719 188.660156 50.625 C 191.417969 51.558594 193.273438 54.148438 193.273438 57.0625 Z M 198.902344 110.363281 L 239.53125 150.980469 L 198.902344 191.609375 Z M 243.503906 147.007812 L 198.890625 102.40625 L 198.890625 57.0625 C 198.890625 56.632812 198.855469 56.207031 198.8125 55.78125 C 198.800781 55.667969 198.789062 55.554688 198.765625 55.441406 C 198.722656 55.070312 198.652344 54.710938 198.574219 54.351562 C 198.5625 54.292969 198.550781 54.25 198.539062 54.191406 C 198.449219 53.789062 198.328125 53.394531 198.191406 53 C 198.15625 52.898438 198.125 52.808594 198.078125 52.707031 C 197.957031 52.378906 197.820312 52.066406 197.675781 51.75 C 197.640625 51.683594 197.605469 51.605469 197.574219 51.535156 C 197.394531 51.164062 197.191406 50.816406 196.976562 50.46875 C 196.929688 50.386719 196.875 50.308594 196.832031 50.242188 C 196.640625 49.960938 196.449219 49.679688 196.234375 49.410156 C 196.175781 49.339844 196.121094 49.261719 196.066406 49.195312 C 195.804688 48.878906 195.535156 48.578125 195.242188 48.285156 C 195.199219 48.238281 195.140625 48.183594 195.085938 48.136719 C 194.828125 47.890625 194.566406 47.652344 194.285156 47.429688 C 194.242188 47.394531 194.207031 47.351562 194.164062 47.316406 L 234.351562 7.125 L 308.867188 81.632812 L 243.492188 147.007812 Z M 243.503906 147.007812 "/></g></g></svg>